<svg xmlns="http://www.w3.org/2000/svg" id="Layer_1" data-name="Layer 1" viewBox="0 0 1532.25 450.74997"><defs><style>.cls-1{fill:#fff;}</style></defs><path class="cls-1" d="M989.57548,229.54464h0c0-14.25,10.5-25.5,25.5-25.5,9,0,14.25,3,19.5,7.5l-6,6c-3.75-3-7.5-6-13.5-6-9,0-16.5,8.25-16.5,17.25v.75c0,9,7.5,17.25,16.5,17.25,6,0,9.75-2.25,14.25-6.75l5.25,6c-5.25,5.25-10.5,8.25-19.5,8.25-14.25,0-25.5-10.5-25.5-24.75Z" transform="translate(-25.82548 -22.54464)"></path><polygon class="cls-1" points="1017.75 182.25 1026.75 182.25 1026.75 202.5 1050 202.5 1050 182.25 1058.25 182.25 1058.25 231 1050 231 1050 210.75 1026.75 210.75 1026.75 231 1017.75 231 1017.75 182.25 1017.75 182.25"></polygon><path class="cls-1" d="M1114.07548,204.04464h7.5l21.75,49.5h-9l-5.25-11.25h-22.5l-5.25,11.25h-9l21.75-49.5Zm12,30-8.25-19.5-8.25,19.5Z" transform="translate(-25.82548 -22.54464)"></path><path class="cls-1" d="M1151.57548,204.79464h22.5q9,0,13.5,4.5a15.26364,15.26364,0,0,1,4.5,11.25h0c0,7.5-5.25,12.75-12,15l13.5,18h-10.5l-12-16.5h-10.5v16.5h-9Zm21.75,24c6,0,9.75-3,9.75-8.25h0c0-5.25-3.75-8.25-9.75-8.25h-12.75v16.5Z" transform="translate(-25.82548 -22.54464)"></path><polygon class="cls-1" points="1188.75 190.5 1173 190.5 1173 182.25 1212.75 182.25 1212.75 190.5 1197.75 190.5 1197.75 231 1188.75 231 1188.75 190.5 1188.75 190.5"></polygon><polygon class="cls-1" points="1221.75 182.25 1258.5 182.25 1258.5 189.75 1230.75 189.75 1230.75 202.5 1255.5 202.5 1255.5 210 1230.75 210 1230.75 223.5 1258.5 223.5 1258.5 231 1221.75 231 1221.75 182.25 1221.75 182.25"></polygon><path class="cls-1" d="M1294.82548,204.79464h22.5q9,0,13.5,4.5a15.26364,15.26364,0,0,1,4.5,11.25h0c0,7.5-5.25,12.75-12,15l13.5,18h-10.5l-12-16.5h-10.5v16.5h-9Zm21.75,24c6,0,9.75-3,9.75-8.25h0c0-5.25-3.75-8.25-9.75-8.25h-12.75v16.5Z" transform="translate(-25.82548 -22.54464)"></path><polygon class="cls-1" points="1320 182.25 1356.75 182.25 1356.75 189.75 1329 189.75 1329 202.5 1353.75 202.5 1353.75 210 1329 210 1329 223.5 1356.75 223.5 1356.75 231 1320 231 1320 182.25 1320 182.25"></polygon><path class="cls-1" d="M1392.32548,204.79464h18c15.75,0,26.25,10.5,26.25,24v.75c0,13.5-10.5,24-26.25,24h-18Zm8.25,7.5v33.75h9.75c10.5,0,17.25-6.75,17.25-16.5h0c0-9.75-6.75-17.25-17.25-17.25Z" transform="translate(-25.82548 -22.54464)"></path><path class="cls-1" d="M991.82548,287.29461h19.5c11.25,0,18.75,6.75,18.75,16.5h0c0,11.25-9,16.5-19.5,16.5h-9.75v15.75h-9Zm18.75,25.5c6.75,0,10.5-3.75,10.5-9h0c0-6-3.75-9-10.5-9h-9.75v18Z" transform="translate(-25.82548 -22.54464)"></path><path class="cls-1" d="M1039.07548,287.29461h21.75c6,0,10.5,1.5,14.25,4.5a18.4222,18.4222,0,0,1,3.75,11.25h0c0,7.5-4.5,12.75-11.25,15l12.75,18h-9.75l-12-16.5h-11.25v16.5h-8.25Zm21,24c6,0,9.75-3,9.75-8.25h0c0-5.25-3.75-8.25-9.75-8.25h-12.75v16.5Z" transform="translate(-25.82548 -22.54464)"></path><path class="cls-1" d="M1087.07548,312.04461h0c0-14.25,10.5-25.5,26.25-25.5,15,0,25.5,11.25,25.5,24.75v.75c0,13.5-11.25,24.75-26.25,24.75s-25.5-11.25-25.5-24.75Zm42.75,0h0c0-9.75-7.5-18-17.25-18s-16.5,8.25-16.5,17.25v.75a17.44546,17.44546,0,0,0,17.25,17.25c9.75,0,16.5-8.25,16.5-17.25Z" transform="translate(-25.82548 -22.54464)"></path><polygon class="cls-1" points="1122.75 264.75 1159.5 264.75 1159.5 272.25 1131.75 272.25 1131.75 285.75 1156.5 285.75 1156.5 294 1131.75 294 1131.75 313.5 1122.75 313.5 1122.75 264.75 1122.75 264.75"></polygon><polygon class="cls-1" points="1169.25 264.75 1206 264.75 1206 272.25 1178.25 272.25 1178.25 285 1202.25 285 1202.25 292.5 1178.25 292.5 1178.25 306 1206 306 1206 313.5 1169.25 313.5 1169.25 264.75 1169.25 264.75"></polygon><path class="cls-1" d="M1238.57548,329.29461l5.25-6a24.20423,24.20423,0,0,0,15.75,6c5.25,0,8.25-2.25,8.25-6h0c0-3.75-1.5-6-10.5-7.5-10.5-3-16.5-6-16.5-15h0c0-8.25,6.75-14.25,16.5-14.25,7.5,0,12.75,2.25,18,6l-4.5,6.75c-4.5-3-9-5.25-13.5-5.25-5.25,0-8.25,3-8.25,6h0c0,3.75,2.25,5.25,12,7.5,10.5,3,15.75,6.75,15.75,15h0c0,9-7.5,14.25-17.25,14.25a31.438,31.438,0,0,1-21-7.5Z" transform="translate(-25.82548 -22.54464)"></path><path class="cls-1" d="M1283.57548,329.29461l5.25-6a24.20423,24.20423,0,0,0,15.75,6c5.25,0,8.25-2.25,8.25-6h0c0-3.75-1.5-6-11.25-7.5-9.75-3-15.75-6-15.75-15h0c0-8.25,6.75-14.25,16.5-14.25,7.5,0,12.75,2.25,18,6l-4.5,6.75c-4.5-3-9-5.25-13.5-5.25-5.25,0-8.25,3-8.25,6h0c0,3.75,2.25,5.25,12,7.5,10.5,3,15.75,6.75,15.75,15h0c0,9-7.5,14.25-18,14.25a29.56648,29.56648,0,0,1-20.25-7.5Z" transform="translate(-25.82548 -22.54464)"></path><polygon class="cls-1" points="1306.5 264.75 1314.75 264.75 1314.75 313.5 1306.5 313.5 1306.5 264.75 1306.5 264.75"></polygon><path class="cls-1" d="M1351.82548,312.04461h0c0-14.25,10.5-25.5,25.5-25.5s25.5,11.25,25.5,24.75v.75c0,13.5-10.5,24.75-25.5,24.75s-25.5-11.25-25.5-24.75Zm42,0h0c0-9.75-6.75-18-16.5-18s-16.5,8.25-16.5,17.25v.75c0,9,6.75,17.25,16.5,17.25s16.5-8.25,16.5-17.25Z" transform="translate(-25.82548 -22.54464)"></path><polygon class="cls-1" points="1387.5 264.75 1395.75 264.75 1422 298.5 1422 264.75 1430.25 264.75 1430.25 313.5 1422.75 313.5 1395.75 279 1395.75 313.5 1387.5 313.5 1387.5 264.75 1387.5 264.75"></polygon><path class="cls-1" d="M1486.07548,286.54461h8.25l21,49.5h-9l-4.5-11.25h-23.25l-5.25,11.25h-9l21.75-49.5Zm12,30-8.25-19.5-8.25,19.5Z" transform="translate(-25.82548 -22.54464)"></path><polygon class="cls-1" points="1497.75 264.75 1506.75 264.75 1506.75 306 1532.25 306 1532.25 313.5 1497.75 313.5 1497.75 264.75 1497.75 264.75"></polygon><path class="cls-1" d="M1009.07548,369.04461h8.25l21.75,49.5h-9l-5.25-11.25h-23.25l-5.25,11.25h-8.25l21-49.5Zm12.75,30-8.25-19.5-9,19.5Z" transform="translate(-25.82548 -22.54464)"></path><path class="cls-1" d="M1041.32548,394.54461h0c0-14.25,10.5-25.5,25.5-25.5,9,0,15,3,19.5,7.5l-6,6c-3.75-3-7.5-6-13.5-6-9,0-15.75,8.25-15.75,17.25v.75c0,9,6.75,17.25,15.75,17.25,6,0,9.75-2.25,14.25-6.75l5.25,6c-5.25,5.25-10.5,8.25-19.5,8.25-14.25,0-25.5-10.5-25.5-24.75Z" transform="translate(-25.82548 -22.54464)"></path><path class="cls-1" d="M1092.32548,394.54461h0c0-14.25,9.75-25.5,24.75-25.5,9,0,15,3,19.5,7.5l-6,6c-3.75-3-7.5-6-13.5-6-9,0-15.75,8.25-15.75,17.25v.75c0,9,6.75,17.25,15.75,17.25,6,0,9.75-2.25,14.25-6.75l5.25,6c-5.25,5.25-10.5,8.25-19.5,8.25-14.25,0-24.75-10.5-24.75-24.75Z" transform="translate(-25.82548 -22.54464)"></path><path class="cls-1" d="M1142.57548,394.54461h0c0-14.25,10.5-25.5,25.5-25.5s25.5,11.25,25.5,24.75v.75c0,13.5-10.5,24.75-25.5,24.75s-25.5-11.25-25.5-24.75Zm42,0h0c0-9.75-6.75-18-16.5-18s-16.5,8.25-16.5,17.25v.75c0,9,6.75,17.25,16.5,17.25s16.5-8.25,16.5-17.25Z" transform="translate(-25.82548 -22.54464)"></path><path class="cls-1" d="M1201.82548,398.29461v-28.5h9v27.75c0,9,4.5,14.25,12,14.25,8.25,0,12.75-4.5,12.75-13.5v-28.5h8.25v27.75c0,15-8.25,21.75-21,21.75s-21-6.75-21-21Z" transform="translate(-25.82548 -22.54464)"></path><polygon class="cls-1" points="1230 347.25 1238.25 347.25 1264.5 381 1264.5 347.25 1272.75 347.25 1272.75 396 1265.25 396 1238.25 361.5 1238.25 396 1230 396 1230 347.25 1230 347.25"></polygon><polygon class="cls-1" points="1297.5 355.5 1281.75 355.5 1281.75 347.25 1321.5 347.25 1321.5 355.5 1305.75 355.5 1305.75 396 1297.5 396 1297.5 355.5 1297.5 355.5"></polygon><path class="cls-1" d="M1368.32548,369.04461h8.25l21,49.5h-9l-4.5-11.25h-23.25l-5.25,11.25h-9l21.75-49.5Zm12,30-8.25-19.5-8.25,19.5Z" transform="translate(-25.82548 -22.54464)"></path><polygon class="cls-1" points="1380 347.25 1387.5 347.25 1413.75 381 1413.75 347.25 1422.75 347.25 1422.75 396 1415.25 396 1388.25 361.5 1388.25 396 1380 396 1380 347.25 1380 347.25"></polygon><polygon class="cls-1" points="1446.75 355.5 1431.75 355.5 1431.75 347.25 1471.5 347.25 1471.5 355.5 1455.75 355.5 1455.75 396 1446.75 396 1446.75 355.5 1446.75 355.5"></polygon><path class="cls-1" d="M915.32548,403.54461c-12-48.75-45.75-159.75-66-198a2.75525,2.75525,0,0,0-2.25-.75h-74.25c-.75,0-1.5,0-1.5.75-20.25,38.25-54.75,151.5-66,198h0v11.25a1.98874,1.98874,0,0,0,2.25,2.25h56.25c.75,0,2.25-.75,2.25-1.5a145.84515,145.84515,0,0,1,3.75-15c1.5-7.5,3.75-18,5.25-26.25h66c1.5,7.5,3.75,16.5,5.25,23.25a108.22021,108.22021,0,0,0,3.75,18c0,.75.75,1.5,2.25,1.5h60.75a2.39476,2.39476,0,0,0,2.25-2.25v-11.25h0m-129.75-74.25c3-11.25,22.5-76.5,22.5-76.5h2.25s18.75,65.25,21,76.5Z" transform="translate(-25.82548 -22.54464)"></path><path class="cls-1" d="M598.07548,202.54464c-36.75,0-63.75,5.25-74.25,10.5-.75.75-2.25,1.5-2.25,3v255a2.39476,2.39476,0,0,0,2.25,2.25h60a2.39476,2.39476,0,0,0,2.25-2.25v-54h29.25c57,0,84.75-50.25,84.75-106.5,0-70.5-36-108-102-108m5.25,166.5h-17.25v-117h18.75c26.25,0,30,29.25,30,58.5,0,28.5-3.75,58.5-31.5,58.5" transform="translate(-25.82548 -22.54464)"></path><path class="cls-1" d="M433.07548,252.04461c21,0,38.25,15.75,38.25,15.75h19.5a2.39476,2.39476,0,0,0,2.25-2.25v-46.5c0-.75-.75-1.5-1.5-2.25-12-6.75-42.75-14.25-68.25-14.25-67.5,0-105.75,46.5-105.75,108,0,62.25,40.5,108.75,105.75,108.75,26.25,0,56.25-8.25,68.25-15a1.61309,1.61309,0,0,0,1.5-1.5v-46.5a2.39476,2.39476,0,0,0-2.25-2.25h-19.5s-17.25,15.75-38.25,15.75c-35.25,0-49.5-30-49.5-59.25s14.25-58.5,49.5-58.5" transform="translate(-25.82548 -22.54464)"></path><path class="cls-1" d="M165.32548,249.04461a11.84649,11.84649,0,0,0-12,12c0,6.75,5.25,12.75,12,12.75a12.6411,12.6411,0,0,0,12.75-12.75c0-6.75-5.25-12-12.75-12Zm0,31.5c-5.25,0-9,3.75-9,9.75,0,5.25,3.75,9.75,9,9.75a9.45375,9.45375,0,0,0,9.75-9.75c0-6-3.75-9.75-9.75-9.75Zm31.5-93a16.31618,16.31618,0,0,0-12,5.25c-1.5-2.25-3.75-5.25-6.75-6.75a17.09514,17.09514,0,0,0-5.25-27,15.464,15.464,0,0,0,8.25-13.5c0-8.25-6.75-15-15.75-15a15.0441,15.0441,0,0,0-15,15c0,6,3,11.25,8.25,13.5a17.09514,17.09514,0,0,0-5.25,27c-3,1.5-5.25,4.5-6.75,6.75a16.31618,16.31618,0,0,0-12-5.25c-8.25,0-15.75,7.5-15.75,16.5,0,8.25,7.5,15.75,15.75,15.75a16.02,16.02,0,0,0,12.75-6c1.5,3,3,5.25,6,6.75a16.53646,16.53646,0,0,0-4.5,11.25c0,9.75,7.5,17.25,16.5,17.25a16.97226,16.97226,0,0,0,17.25-17.25,16.53646,16.53646,0,0,0-4.5-11.25,17.7071,17.7071,0,0,0,6-6.75,16.02,16.02,0,0,0,12.75,6c8.25,0,15.75-7.5,15.75-15.75,0-9-7.5-16.5-15.75-16.5Zm-31.5,124.5a6.75,6.75,0,0,0,0,13.5c4.5,0,7.5-3,7.5-6.75s-3-6.75-7.5-6.75Zm0,30c-2.25,0-5.25,3-5.25,5.25a5.63511,5.63511,0,0,0,5.25,5.25,5.12652,5.12652,0,0,0,5.25-5.25,5.63511,5.63511,0,0,0-5.25-5.25Zm61.5-151.5a14.752,14.752,0,0,0-14.25,14.25c0,8.25,6.75,15,14.25,15a15.0441,15.0441,0,0,0,15-15c0-7.5-6.75-14.25-15-14.25Zm-122.25,0c-8.25,0-15,6.75-15,14.25a15.0441,15.0441,0,0,0,15,15c7.5,0,14.25-6.75,14.25-15a14.752,14.752,0,0,0-14.25-14.25Z" transform="translate(-25.82548 -22.54464)"></path><path class="cls-1" d="M165.32548,130.54464a13.5,13.5,0,1,0,0-27c-6.75,0-12.75,6-12.75,13.5s6,13.5,12.75,13.5Z" transform="translate(-25.82548 -22.54464)"></path><path class="cls-1" d="M257.57548,195.04464a11.84649,11.84649,0,0,0-12,12c0,6.75,5.25,12.75,12,12.75s12-6,12-12.75a11.84649,11.84649,0,0,0-12-12Z" transform="translate(-25.82548 -22.54464)"></path><path class="cls-1" d="M85.82548,207.04464a12,12,0,0,0-24,0c0,6.75,5.25,12.75,12,12.75s12-6,12-12.75Z" transform="translate(-25.82548 -22.54464)"></path><path class="cls-1" d="M198.32548,132.79464a13.44387,13.44387,0,0,0-13.5,13.5c0,7.5,6,12.75,13.5,12.75s12.75-5.25,12.75-12.75-5.25-13.5-12.75-13.5Z" transform="translate(-25.82548 -22.54464)"></path><path class="cls-1" d="M197.57548,160.54464a14.24033,14.24033,0,0,0-14.25,14.25,13.79059,13.79059,0,0,0,14.25,14.25,14.24033,14.24033,0,0,0,14.25-14.25,14.752,14.752,0,0,0-14.25-14.25Z" transform="translate(-25.82548 -22.54464)"></path><path class="cls-1" d="M195.32548,219.04464c-6.75,0-12.75,6-12.75,13.5s6,13.5,12.75,13.5a13.5,13.5,0,1,0,0-27Z" transform="translate(-25.82548 -22.54464)"></path><path class="cls-1" d="M194.57548,247.54461a14.24033,14.24033,0,0,0-14.25,14.25,14.752,14.752,0,0,0,14.25,14.25,14.24033,14.24033,0,0,0,14.25-14.25,13.79059,13.79059,0,0,0-14.25-14.25Z" transform="translate(-25.82548 -22.54464)"></path><path class="cls-1" d="M229.07548,162.79464a13.5,13.5,0,1,0,13.5,13.5,13.44387,13.44387,0,0,0-13.5-13.5Z" transform="translate(-25.82548 -22.54464)"></path><path class="cls-1" d="M133.07548,132.79464c-7.5,0-12.75,6-12.75,13.5s5.25,12.75,12.75,12.75,13.5-5.25,13.5-12.75a13.44387,13.44387,0,0,0-13.5-13.5Z" transform="translate(-25.82548 -22.54464)"></path><path class="cls-1" d="M133.82548,160.54464a14.752,14.752,0,0,0-14.25,14.25,14.24033,14.24033,0,0,0,14.25,14.25,13.79059,13.79059,0,0,0,14.25-14.25,14.24033,14.24033,0,0,0-14.25-14.25Z" transform="translate(-25.82548 -22.54464)"></path><path class="cls-1" d="M135.32548,219.04464c-6.75,0-12.75,6-12.75,13.5s6,13.5,12.75,13.5a13.5,13.5,0,1,0,0-27Z" transform="translate(-25.82548 -22.54464)"></path><path class="cls-1" d="M136.82548,247.54461a13.79059,13.79059,0,0,0-14.25,14.25,14.24033,14.24033,0,0,0,14.25,14.25,14.752,14.752,0,0,0,14.25-14.25,14.24033,14.24033,0,0,0-14.25-14.25Z" transform="translate(-25.82548 -22.54464)"></path><path class="cls-1" d="M102.32548,162.79464a13.5,13.5,0,1,0,13.5,13.5,13.44387,13.44387,0,0,0-13.5-13.5Z" transform="translate(-25.82548 -22.54464)"></path><path class="cls-1" d="M132.32548,129.79464a12.6411,12.6411,0,0,0,12.75-12.75c0-6.75-6-12-12.75-12s-12.75,5.25-12.75,12a12.6411,12.6411,0,0,0,12.75,12.75Z" transform="translate(-25.82548 -22.54464)"></path><path class="cls-1" d="M94.07548,234.04464a12,12,0,1,0,12-12,11.84649,11.84649,0,0,0-12,12Z" transform="translate(-25.82548 -22.54464)"></path><path class="cls-1" d="M199.07548,129.79464a12.6411,12.6411,0,0,0,12.75-12.75c0-6.75-6-12-12.75-12s-12.75,5.25-12.75,12a12.6411,12.6411,0,0,0,12.75,12.75Z" transform="translate(-25.82548 -22.54464)"></path><path class="cls-1" d="M165.32548,99.79464a12,12,0,0,0,0-24c-6,0-11.25,5.25-11.25,12s5.25,12,11.25,12Z" transform="translate(-25.82548 -22.54464)"></path><path class="cls-1" d="M225.32548,246.04461a12,12,0,1,0-12-12,11.84649,11.84649,0,0,0,12,12Z" transform="translate(-25.82548 -22.54464)"></path><path class="cls-1" d="M109.07548,283.54461c-4.5,0-7.5,3.75-7.5,8.25s3,8.25,7.5,8.25a8.25,8.25,0,1,0,0-16.5Z" transform="translate(-25.82548 -22.54464)"></path><path class="cls-1" d="M44.57548,153.04464a8.25,8.25,0,1,0-8.25,8.25,8.32324,8.32324,0,0,0,8.25-8.25Z" transform="translate(-25.82548 -22.54464)"></path><path class="cls-1" d="M66.32548,129.79464a8.25,8.25,0,1,0-8.25-8.25,8.32324,8.32324,0,0,0,8.25,8.25Z" transform="translate(-25.82548 -22.54464)"></path><path class="cls-1" d="M33.32548,132.04464a7.51564,7.51564,0,0,0,7.5-7.5,8.06544,8.06544,0,0,0-7.5-7.5,7.51564,7.51564,0,0,0-7.5,7.5,7.0858,7.0858,0,0,0,7.5,7.5Z" transform="translate(-25.82548 -22.54464)"></path><path class="cls-1" d="M199.82548,98.29464c6,0,10.5-4.5,10.5-9.75a10.253,10.253,0,0,0-10.5-10.5c-5.25,0-9.75,4.5-9.75,10.5a9.92791,9.92791,0,0,0,9.75,9.75Z" transform="translate(-25.82548 -22.54464)"></path><path class="cls-1" d="M131.57548,98.29464a9.92791,9.92791,0,0,0,9.75-9.75c0-6-4.5-10.5-9.75-10.5a10.253,10.253,0,0,0-10.5,10.5c0,5.25,4.5,9.75,10.5,9.75Z" transform="translate(-25.82548 -22.54464)"></path><path class="cls-1" d="M165.32548,38.29464a8.32324,8.32324,0,0,0,8.25-8.25c0-3.75-3.75-7.5-8.25-7.5a8.06544,8.06544,0,0,0-7.5,7.5c0,4.5,3.75,8.25,7.5,8.25Z" transform="translate(-25.82548 -22.54464)"></path><path class="cls-1" d="M200.57548,66.79464c4.5,0,7.5-3,7.5-6.75a7.0858,7.0858,0,0,0-7.5-7.5,7.51564,7.51564,0,0,0-7.5,7.5c0,3.75,3.75,6.75,7.5,6.75Z" transform="translate(-25.82548 -22.54464)"></path><path class="cls-1" d="M130.82548,66.79464a6.72193,6.72193,0,0,0,6.75-6.75c0-4.5-3-7.5-6.75-7.5a7.0858,7.0858,0,0,0-7.5,7.5c0,3.75,3,6.75,7.5,6.75Z" transform="translate(-25.82548 -22.54464)"></path><path class="cls-1" d="M298.07548,132.04464a7.0858,7.0858,0,0,0,7.5-7.5,7.51564,7.51564,0,0,0-7.5-7.5,8.06544,8.06544,0,0,0-7.5,7.5,7.51564,7.51564,0,0,0,7.5,7.5Z" transform="translate(-25.82548 -22.54464)"></path><path class="cls-1" d="M250.07548,288.04461c-3.75,0-6,2.25-6,6,0,3,2.25,5.25,6,5.25,3,0,6-2.25,6-5.25a5.91554,5.91554,0,0,0-6-6Z" transform="translate(-25.82548 -22.54464)"></path><path class="cls-1" d="M214.07548,291.79461a7.86908,7.86908,0,0,0,8.25,8.25c4.5,0,7.5-3.75,7.5-8.25s-3-8.25-7.5-8.25a7.86908,7.86908,0,0,0-8.25,8.25Z" transform="translate(-25.82548 -22.54464)"></path><path class="cls-1" d="M295.07548,144.79464a8.25,8.25,0,1,0,8.25,8.25,8.32324,8.32324,0,0,0-8.25-8.25Z" transform="translate(-25.82548 -22.54464)"></path><path class="cls-1" d="M262.82548,138.79464a11.25,11.25,0,0,0,0,22.5,11.25,11.25,0,0,0,0-22.5Z" transform="translate(-25.82548 -22.54464)"></path><path class="cls-1" d="M81.32548,288.04461a5.91554,5.91554,0,0,0-6,6c0,3,3,5.25,6,5.25s6-2.25,6-5.25a5.91554,5.91554,0,0,0-6-6Z" transform="translate(-25.82548 -22.54464)"></path><path class="cls-1" d="M265.07548,129.79464a8.25,8.25,0,1,0-8.25-8.25,8.32324,8.32324,0,0,0,8.25,8.25Z" transform="translate(-25.82548 -22.54464)"></path><path class="cls-1" d="M68.57548,161.29464a11.25,11.25,0,1,0-11.25-11.25,11.53468,11.53468,0,0,0,11.25,11.25Z" transform="translate(-25.82548 -22.54464)"></path><path class="cls-1" d="M107.57548,252.04461c-6,0-10.5,5.25-10.5,11.25a10.5,10.5,0,0,0,21,0c0-6-4.5-11.25-10.5-11.25Z" transform="translate(-25.82548 -22.54464)"></path><path class="cls-1" d="M100.82548,158.29464a10.5,10.5,0,1,0-10.5-10.5,10.253,10.253,0,0,0,10.5,10.5Z" transform="translate(-25.82548 -22.54464)"></path><path class="cls-1" d="M43.07548,203.29464c-3.75,0-6.75,3-6.75,7.5a6.72193,6.72193,0,0,0,6.75,6.75c3.75,0,7.5-3,7.5-6.75a7.51564,7.51564,0,0,0-7.5-7.5Z" transform="translate(-25.82548 -22.54464)"></path><path class="cls-1" d="M165.32548,69.04464c6,0,10.5-4.5,10.5-9.75s-4.5-9.75-10.5-9.75a9.75,9.75,0,0,0,0,19.5Z" transform="translate(-25.82548 -22.54464)"></path><path class="cls-1" d="M255.32548,227.29464c-5.25,0-9.75,3.75-9.75,9s4.5,9,9.75,9a9,9,0,1,0,0-18Z" transform="translate(-25.82548 -22.54464)"></path><path class="cls-1" d="M259.82548,166.54464a12,12,0,0,0,0,24c6.75,0,12.75-5.25,12.75-12s-6-12-12.75-12Z" transform="translate(-25.82548 -22.54464)"></path><path class="cls-1" d="M288.32548,203.29464a7.0858,7.0858,0,0,0-7.5,7.5c0,3.75,3,6.75,7.5,6.75a6.72193,6.72193,0,0,0,6.75-6.75c0-4.5-3-7.5-6.75-7.5Z" transform="translate(-25.82548 -22.54464)"></path><path class="cls-1" d="M230.57548,158.29464a10.5,10.5,0,1,0-10.5-10.5,10.253,10.253,0,0,0,10.5,10.5Z" transform="translate(-25.82548 -22.54464)"></path><path class="cls-1" d="M85.82548,236.29464c0-5.25-4.5-9-9.75-9a9,9,0,1,0,0,18c5.25,0,9.75-3.75,9.75-9Z" transform="translate(-25.82548 -22.54464)"></path><path class="cls-1" d="M70.82548,190.54464c6.75,0,12.75-5.25,12.75-12s-6-12-12.75-12a12,12,0,0,0,0,24Z" transform="translate(-25.82548 -22.54464)"></path><path class="cls-1" d="M223.82548,273.79461a10.7263,10.7263,0,0,0,10.5-10.5c0-6-4.5-11.25-10.5-11.25s-10.5,5.25-10.5,11.25a10.7263,10.7263,0,0,0,10.5,10.5Z" transform="translate(-25.82548 -22.54464)"></path></svg>