<svg xmlns="http://www.w3.org/2000/svg" xmlns:xlink="http://www.w3.org/1999/xlink" id="Layer_1" data-name="Layer 1" viewBox="0 0 821.92 225.2"><defs><style>.cls-1{fill:url(#linear-gradient);}.cls-2{fill:#231f20;}</style><linearGradient id="linear-gradient" x1="7.01" y1="117.35" x2="160.78" y2="50.81" gradientUnits="userSpaceOnUse"><stop offset="0" stop-color="#672d89"></stop><stop offset="0.2" stop-color="#702f85"></stop><stop offset="0.53" stop-color="#883579"></stop><stop offset="0.94" stop-color="#b03f67"></stop><stop offset="1" stop-color="#b64164"></stop></linearGradient></defs><path class="cls-1" d="M158.7,113.58,107.86,3.52a83.78,83.78,0,0,1,59.65,79.93C167.51,96.05,164.54,106.29,158.7,113.58ZM27.1,42.51c0-15.72,9-28.06,13.8-30.73h0A83.79,83.79,0,0,0,14.47,130.83L42.2,91.22C32.79,76.59,27.1,59.91,27.1,42.51Zm20,55.74L19.59,137.59a83.76,83.76,0,0,0,123.61,5.17,56.91,56.91,0,0,1-10.33,1C101.11,143.79,67.69,125.32,47.12,98.25Zm7.68-11c18,22.09,46.42,38.79,74.08,38.79a43.28,43.28,0,0,0,19-3.91L105,15.48Zm-19-46.62C35.75,54,41,67.87,49.7,80.5l54.58-78A84.13,84.13,0,0,0,83.76,0C46.94,0,35.75,21.7,35.75,40.66Z"></path><path class="cls-2" d="M147.32,159.2h6v1.16H151v6.93h-1.27v-6.93h-2.39Z"></path><path class="cls-2" d="M161.73,159.2h1.11l1,8.09h-1.24l-.7-5.78-2.37,4.88h-1.06l-2.38-4.88-.7,5.78h-1.24l1-8.09h1.1L159,165Z"></path><path class="cls-2" d="M253.77,146.28a30.7,30.7,0,0,1-24.65,11.77c-18,0-32.11-14.46-32.16-32.43s14-32.65,32-32.7a31,31,0,0,1,24.54,11.35l-7.54,5.92a22.52,22.52,0,0,0-17-7.88c-12.62,0-22.26,10.48-22.22,23.28s9.74,23.1,22.36,23.06a21.62,21.62,0,0,0,17.11-8.34Z"></path><path class="cls-2" d="M266.07,93.55l25.52-.08c13.73,0,19.38,10,19.4,20.12s-5.56,20-19.28,20l-15.67.05.07,23.3-9.86,0Zm9.88,9,.07,22.2,15.11,0c7.09,0,10.12-5.65,10.1-11.09s-3-11.14-9.8-11.12Z"></path><path class="cls-2" d="M353.82,140.92l-25.61.08-6,15.86-10.41,0,23.77-63.54,10.6,0,24.13,63.4-10.31,0Zm-22.32-8.68,19-.06-9.57-26.6Z"></path><path class="cls-2" d="M224,214.66H207.31l-3.78,10h-5.36L213,185.78h5.41l14.78,38.86h-5.36Zm-1.69-4.52-6.66-17.59L209,210.14Z"></path><path class="cls-2" d="M279,209.41v15.23h-4.91V209.69c0-4.4-2.42-7.22-6.26-7.22-4.68-.05-7.5,3.9-7.05,9l-.06-.22v13.42h-4.9V209.69c0-4.45-2.43-7.22-5.92-7.22-3.73,0-7.45,2.32-7.45,7.9v14.27h-4.9V198.3h4.9v4c1.36-2.82,4.74-4.57,8.46-4.57a9.17,9.17,0,0,1,8.69,5.47,9.76,9.76,0,0,1,9.19-5.47C275.37,197.74,279,202,279,209.41Z"></path><path class="cls-2" d="M311.37,213.58H289.94c.73,4.69,4.11,7,8.63,7a8.5,8.5,0,0,0,7.67-4l4.28,1.7c-2.31,4.56-7,6.93-12.12,6.93-7.5,0-13.54-5.47-13.54-13.81s6-13.65,13.54-13.65,13.08,5.3,13.08,13.65C311.48,212.12,311.42,212.85,311.37,213.58Zm-4.79-4.22c-.63-4.52-3.84-7-8.18-7s-7.62,2.26-8.41,7Z"></path><path class="cls-2" d="M334.57,198.75l-.79,4.63a9.09,9.09,0,0,0-3.84-.91c-5.24,0-7.33,5.59-7.33,12.52v9.65h-5V198.3h5v6c1.35-4.62,3.89-6.54,7.39-6.54A9.94,9.94,0,0,1,334.57,198.75Z"></path><path class="cls-2" d="M338,188.6a3.48,3.48,0,1,1,3.44,3.27A3.35,3.35,0,0,1,338,188.6Zm1,9.7H344v26.34h-4.9Z"></path><path class="cls-2" d="M349.81,211.44c0-8.34,6.59-13.7,14.15-13.7a13.5,13.5,0,0,1,10,4.17l-3.1,3.21a9.32,9.32,0,0,0-6.77-2.76c-5.19,0-9.36,3.67-9.36,9.08s4.17,9.08,9.36,9.08a9.32,9.32,0,0,0,6.77-2.76L374,221a13.29,13.29,0,0,1-10,4.18C356.4,225.15,349.81,219.79,349.81,211.44Z"></path><path class="cls-2" d="M404.47,198.3v26.34h-4.91v-4.18c-1.75,3-5.58,4.74-9.36,4.74-7.22,0-13.2-5.47-13.2-13.76s5.92-13.7,13.14-13.7c3.95,0,7.67,1.58,9.42,4.68V198.3Zm-4.91,13.09a8.92,8.92,0,0,0-9-9c-4.79,0-8.63,3.72-8.63,9s3.84,9.19,8.63,9.19A8.86,8.86,0,0,0,399.56,211.39Z"></path><path class="cls-2" d="M426.18,211.44c0-8.34,6.6-13.7,14.16-13.7a13.5,13.5,0,0,1,10,4.17l-3.1,3.21a9.29,9.29,0,0,0-6.77-2.76c-5.18,0-9.36,3.67-9.36,9.08s4.18,9.08,9.36,9.08a9.29,9.29,0,0,0,6.77-2.76l3.1,3.21a13.28,13.28,0,0,1-10,4.18C432.78,225.15,426.18,219.79,426.18,211.44Z"></path><path class="cls-2" d="M453.35,211.39c0-8.35,6.26-13.65,13.76-13.65s13.82,5.3,13.82,13.65a13.79,13.79,0,1,1-27.58,0Zm22.67,0a8.86,8.86,0,1,0-8.91,9.19A8.85,8.85,0,0,0,476,211.39Z"></path><path class="cls-2" d="M511,198.3v26.34h-4.9v-4.12c-1.58,3.27-5.81,4.68-8.74,4.68-6.6,0-10.66-4.28-10.61-11.67V198.3h4.91v14.95c0,4.4,2.65,7.1,6.32,7.1s8.06-2.08,8.12-7.78V198.3Z"></path><path class="cls-2" d="M543,209.41v15.23h-4.91V209.69c0-4.4-2.71-7.1-6.37-7.1s-8.07,2.08-8.07,7.78v14.27h-4.9V198.3h4.9v4c1.58-3.22,5.87-4.57,8.74-4.57C539,197.74,543.08,202,543,209.41Z"></path><path class="cls-2" d="M562.55,202.53h-5.7v22.11H552V202.53h-4.74V198.3H552v-10h4.9v10h5.7Z"></path><path class="cls-2" d="M565.67,216.8h4.57c.06,2.26,2,4.12,5.25,4.12s5.3-1.53,5.3-3.67c0-2-1.53-3-3.61-3.44l-3.61-.85c-4.4-1.18-6.94-3.32-6.94-7.55s3.72-7.67,9-7.67c4.45,0,9.08,2.37,9.08,7.67H580c-.06-2-2.15-3.39-4.23-3.39-2.54,0-4.23,1.53-4.23,3.56,0,1.8,1.69,2.76,3.38,3.15l3.89,1c5.47,1.36,6.88,4.63,6.88,7.62,0,4.9-4.73,7.89-10.2,7.89C570.75,225.2,565.9,222.21,565.67,216.8Z"></path><path class="cls-2" d="M605.49,211.39c0-8.35,6.26-13.65,13.76-13.65s13.82,5.3,13.82,13.65a13.79,13.79,0,1,1-27.58,0Zm22.67,0a8.86,8.86,0,1,0-8.91,9.19A8.85,8.85,0,0,0,628.16,211.39Z"></path><path class="cls-2" d="M663.56,209.41v15.23h-4.9V209.69c0-4.4-2.71-7.1-6.38-7.1s-8.06,2.08-8.06,7.78v14.27h-4.91V198.3h4.91v4c1.58-3.22,5.86-4.57,8.74-4.57C659.5,197.74,663.62,202,663.56,209.41Z"></path><path class="cls-2" d="M685.11,205.29a19.76,19.76,0,0,1,19.74-19.9,18.87,18.87,0,0,1,14.6,6.6l-3.72,3.15a14.35,14.35,0,0,0-10.88-5c-8.18,0-14.61,6.83-14.61,15.17s6.43,15.17,14.61,15.17a14.34,14.34,0,0,0,10.88-5l3.72,3.15a18.91,18.91,0,0,1-14.6,6.6A19.76,19.76,0,0,1,685.11,205.29Z"></path><path class="cls-2" d="M752.94,197.91c0,6.14-3.32,12.12-11.56,12.12H731.06v14.61h-5.13V185.78h15.45C749.62,185.78,752.94,191.87,752.94,197.91Zm-5.13,0c0-3.61-1.86-7.39-6.48-7.39H731.06v14.72h10C745.89,205.24,747.81,201.63,747.81,197.91Z"></path><path class="cls-2" d="M778,214.66h-16.7l-3.78,10h-5.35l14.77-38.86h5.42l14.77,38.86h-5.36Zm-1.7-4.52-6.65-17.59-6.66,17.59Z"></path><path class="cls-2" d="M789.38,216.8H794c.06,2.26,2,4.12,5.25,4.12s5.3-1.53,5.3-3.67c0-2-1.52-3-3.61-3.44l-3.61-.85c-4.4-1.18-6.94-3.32-6.94-7.55s3.73-7.67,9-7.67c4.45,0,9.08,2.37,9.08,7.67h-4.74c-.06-2-2.14-3.39-4.23-3.39-2.54,0-4.23,1.53-4.23,3.56,0,1.8,1.69,2.76,3.38,3.15l3.9,1c5.47,1.36,6.88,4.63,6.88,7.62,0,4.9-4.74,7.89-10.21,7.89C794.46,225.2,789.61,222.21,789.38,216.8Z"></path><path class="cls-2" d="M821.92,191.18a5.91,5.91,0,1,1-5.91-6A5.92,5.92,0,0,1,821.92,191.18Zm-1,0a4.9,4.9,0,1,0-4.9,4.94A4.92,4.92,0,0,0,820.91,191.18Zm-4,.86,1.5,2.15h-1.21l-1.47-2.06h-.61v2.06H814v-5.86h2.27a1.76,1.76,0,0,1,1.91,1.85C818.22,191.23,817.83,191.83,816.92,192Zm-1.79-.87h1.13a.92.92,0,0,0,0-1.83h-1.13Z"></path></svg>