<svg xmlns="http://www.w3.org/2000/svg" version="1.1" xmlns:xlink="http://www.w3.org/1999/xlink" xmlns:svgjs="http://svgjs.dev/svgjs" width="1440" height="560" preserveAspectRatio="none" viewBox="0 0 1440 560"><g mask="url(&quot;#SvgjsMask1653&quot;)" fill="none"><rect width="1440" height="560" x="0" y="0" fill="rgba(237, 242, 247, 0.9098039215686274)"></rect><path d="M49.84 -94.66L144.24 -40.16L144.24 68.84L49.84 123.34L-44.56 68.84L-44.56 -40.16zM144.24 68.84L238.64 123.34L238.64 232.34L144.24 286.84L49.84 232.34L49.84 123.34zM49.84 232.34L144.24 286.84L144.24 395.84L49.84 450.34L-44.56 395.84L-44.56 286.84zM427.44 -94.66L521.84 -40.16L521.84 68.84L427.44 123.34L333.04 68.84L333.04 -40.16zM521.84 395.84L616.24 450.34L616.24 559.34L521.84 613.84L427.44 559.34L427.44 450.34zM616.24 -94.66L710.64 -40.16L710.64 68.84L616.24 123.34L521.84 68.84L521.84 -40.16zM616.24 232.34L710.64 286.84L710.64 395.84L616.24 450.34L521.84 395.84L521.84 286.84zM710.64 395.84L805.04 450.34L805.04 559.34L710.64 613.84L616.24 559.34L616.24 450.34zM899.44 395.84L993.83 450.34L993.83 559.34L899.44 613.84L805.04 559.34L805.04 450.34zM1371.43 -94.66L1465.83 -40.16L1465.83 68.84L1371.43 123.34L1277.03 68.84L1277.03 -40.16zM1371.43 232.34L1465.83 286.84L1465.83 395.84L1371.43 450.34L1277.03 395.84L1277.03 286.84z" stroke="rgba(243, 244, 245, 1)" stroke-width="2"></path><path d="M38.94 -94.66 a10.9 10.9 0 1 0 21.8 0 a10.9 10.9 0 1 0 -21.8 0zM133.34 -40.16 a10.9 10.9 0 1 0 21.8 0 a10.9 10.9 0 1 0 -21.8 0zM133.34 68.84 a10.9 10.9 0 1 0 21.8 0 a10.9 10.9 0 1 0 -21.8 0zM38.94 123.34 a10.9 10.9 0 1 0 21.8 0 a10.9 10.9 0 1 0 -21.8 0zM-55.46 68.84 a10.9 10.9 0 1 0 21.8 0 a10.9 10.9 0 1 0 -21.8 0zM-55.46 -40.16 a10.9 10.9 0 1 0 21.8 0 a10.9 10.9 0 1 0 -21.8 0zM227.74 123.34 a10.9 10.9 0 1 0 21.8 0 a10.9 10.9 0 1 0 -21.8 0zM227.74 232.34 a10.9 10.9 0 1 0 21.8 0 a10.9 10.9 0 1 0 -21.8 0zM133.34 286.84 a10.9 10.9 0 1 0 21.8 0 a10.9 10.9 0 1 0 -21.8 0zM38.94 232.34 a10.9 10.9 0 1 0 21.8 0 a10.9 10.9 0 1 0 -21.8 0zM133.34 395.84 a10.9 10.9 0 1 0 21.8 0 a10.9 10.9 0 1 0 -21.8 0zM38.94 450.34 a10.9 10.9 0 1 0 21.8 0 a10.9 10.9 0 1 0 -21.8 0zM-55.46 395.84 a10.9 10.9 0 1 0 21.8 0 a10.9 10.9 0 1 0 -21.8 0zM-55.46 286.84 a10.9 10.9 0 1 0 21.8 0 a10.9 10.9 0 1 0 -21.8 0zM416.54 -94.66 a10.9 10.9 0 1 0 21.8 0 a10.9 10.9 0 1 0 -21.8 0zM510.94 -40.16 a10.9 10.9 0 1 0 21.8 0 a10.9 10.9 0 1 0 -21.8 0zM510.94 68.84 a10.9 10.9 0 1 0 21.8 0 a10.9 10.9 0 1 0 -21.8 0zM416.54 123.34 a10.9 10.9 0 1 0 21.8 0 a10.9 10.9 0 1 0 -21.8 0zM322.14 68.84 a10.9 10.9 0 1 0 21.8 0 a10.9 10.9 0 1 0 -21.8 0zM322.14 -40.16 a10.9 10.9 0 1 0 21.8 0 a10.9 10.9 0 1 0 -21.8 0zM510.94 395.84 a10.9 10.9 0 1 0 21.8 0 a10.9 10.9 0 1 0 -21.8 0zM605.34 450.34 a10.9 10.9 0 1 0 21.8 0 a10.9 10.9 0 1 0 -21.8 0zM605.34 559.34 a10.9 10.9 0 1 0 21.8 0 a10.9 10.9 0 1 0 -21.8 0zM510.94 613.84 a10.9 10.9 0 1 0 21.8 0 a10.9 10.9 0 1 0 -21.8 0zM416.54 559.34 a10.9 10.9 0 1 0 21.8 0 a10.9 10.9 0 1 0 -21.8 0zM416.54 450.34 a10.9 10.9 0 1 0 21.8 0 a10.9 10.9 0 1 0 -21.8 0zM605.34 -94.66 a10.9 10.9 0 1 0 21.8 0 a10.9 10.9 0 1 0 -21.8 0zM699.74 -40.16 a10.9 10.9 0 1 0 21.8 0 a10.9 10.9 0 1 0 -21.8 0zM699.74 68.84 a10.9 10.9 0 1 0 21.8 0 a10.9 10.9 0 1 0 -21.8 0zM605.34 123.34 a10.9 10.9 0 1 0 21.8 0 a10.9 10.9 0 1 0 -21.8 0zM605.34 232.34 a10.9 10.9 0 1 0 21.8 0 a10.9 10.9 0 1 0 -21.8 0zM699.74 286.84 a10.9 10.9 0 1 0 21.8 0 a10.9 10.9 0 1 0 -21.8 0zM699.74 395.84 a10.9 10.9 0 1 0 21.8 0 a10.9 10.9 0 1 0 -21.8 0zM510.94 286.84 a10.9 10.9 0 1 0 21.8 0 a10.9 10.9 0 1 0 -21.8 0zM794.14 450.34 a10.9 10.9 0 1 0 21.8 0 a10.9 10.9 0 1 0 -21.8 0zM794.14 559.34 a10.9 10.9 0 1 0 21.8 0 a10.9 10.9 0 1 0 -21.8 0zM699.74 613.84 a10.9 10.9 0 1 0 21.8 0 a10.9 10.9 0 1 0 -21.8 0zM888.54 395.84 a10.9 10.9 0 1 0 21.8 0 a10.9 10.9 0 1 0 -21.8 0zM982.93 450.34 a10.9 10.9 0 1 0 21.8 0 a10.9 10.9 0 1 0 -21.8 0zM982.93 559.34 a10.9 10.9 0 1 0 21.8 0 a10.9 10.9 0 1 0 -21.8 0zM888.54 613.84 a10.9 10.9 0 1 0 21.8 0 a10.9 10.9 0 1 0 -21.8 0zM1360.53 -94.66 a10.9 10.9 0 1 0 21.8 0 a10.9 10.9 0 1 0 -21.8 0zM1454.93 -40.16 a10.9 10.9 0 1 0 21.8 0 a10.9 10.9 0 1 0 -21.8 0zM1454.93 68.84 a10.9 10.9 0 1 0 21.8 0 a10.9 10.9 0 1 0 -21.8 0zM1360.53 123.34 a10.9 10.9 0 1 0 21.8 0 a10.9 10.9 0 1 0 -21.8 0zM1266.13 68.84 a10.9 10.9 0 1 0 21.8 0 a10.9 10.9 0 1 0 -21.8 0zM1266.13 -40.16 a10.9 10.9 0 1 0 21.8 0 a10.9 10.9 0 1 0 -21.8 0zM1360.53 232.34 a10.9 10.9 0 1 0 21.8 0 a10.9 10.9 0 1 0 -21.8 0zM1454.93 286.84 a10.9 10.9 0 1 0 21.8 0 a10.9 10.9 0 1 0 -21.8 0zM1454.93 395.84 a10.9 10.9 0 1 0 21.8 0 a10.9 10.9 0 1 0 -21.8 0zM1360.53 450.34 a10.9 10.9 0 1 0 21.8 0 a10.9 10.9 0 1 0 -21.8 0zM1266.13 395.84 a10.9 10.9 0 1 0 21.8 0 a10.9 10.9 0 1 0 -21.8 0zM1266.13 286.84 a10.9 10.9 0 1 0 21.8 0 a10.9 10.9 0 1 0 -21.8 0z" fill="rgba(243, 244, 245, 1)"></path><path d="M207.22 139.64L325.87 208.14L325.87 345.14L207.22 413.64L88.57 345.14L88.57 208.14zM919.11 139.64L1037.76 208.14L1037.76 345.14L919.11 413.64L800.46 345.14L800.46 208.14zM800.46 345.14L919.11 413.64L919.11 550.64L800.46 619.14L681.81 550.64L681.81 413.64zM1037.76 -65.86L1156.41 2.64L1156.41 139.64L1037.76 208.14L919.11 139.64L919.11 2.64zM1156.41 139.64L1275.06 208.14L1275.06 345.14L1156.41 413.64L1037.76 345.14L1037.76 208.14zM1393.71 139.64L1512.36 208.14L1512.36 345.14L1393.71 413.64L1275.06 345.14L1275.06 208.14zM1275.06 345.14L1393.71 413.64L1393.71 550.64L1275.06 619.14L1156.41 550.64L1156.41 413.64zM1393.71 550.64L1512.36 619.14L1512.36 756.14L1393.71 824.64L1275.06 756.14L1275.06 619.14zM1631.01 139.64L1749.65 208.14L1749.65 345.14L1631.01 413.64L1512.36 345.14L1512.36 208.14z" stroke="rgba(237, 239, 240, 1)" stroke-width="2"></path></g><defs><mask id="SvgjsMask1653"><rect width="1440" height="560" fill="#ffffff"></rect></mask></defs></svg>