<svg xmlns="http://www.w3.org/2000/svg" version="1.1" xmlns:xlink="http://www.w3.org/1999/xlink" xmlns:svgjs="http://svgjs.dev/svgjs" width="1440" height="560" preserveAspectRatio="none" viewBox="0 0 1440 560"><g mask="url(&quot;#SvgjsMask1539&quot;)" fill="none"><rect width="1440" height="560" x="0" y="0" fill="rgba(237, 242, 247, 1)"></rect><path d="M100.12 51.65L165.08 89.15L165.08 164.15L100.12 201.65L35.17 164.15L35.17 89.15zM35.17 164.15L100.12 201.65L100.12 276.65L35.17 314.15L-29.78 276.65L-29.78 201.65zM100.12 276.65L165.08 314.15L165.08 389.15L100.12 426.65L35.17 389.15L35.17 314.15zM35.17 389.15L100.12 426.65L100.12 501.65L35.17 539.15L-29.78 501.65L-29.78 426.65zM100.12 501.65L165.08 539.15L165.08 614.15L100.12 651.65L35.17 614.15L35.17 539.15zM230.03 51.65L294.99 89.15L294.99 164.15L230.03 201.65L165.08 164.15L165.08 89.15zM165.08 164.15L230.03 201.65L230.03 276.65L165.08 314.15L100.12 276.65L100.12 201.65zM230.03 276.65L294.99 314.15L294.99 389.15L230.03 426.65L165.08 389.15L165.08 314.15zM230.03 501.65L294.99 539.15L294.99 614.15L230.03 651.65L165.08 614.15L165.08 539.15zM359.94 276.65L424.89 314.15L424.89 389.15L359.94 426.65L294.99 389.15L294.99 314.15zM424.89 -60.85L489.85 -23.35L489.85 51.65L424.89 89.15L359.94 51.65L359.94 -23.35zM424.89 164.15L489.85 201.65L489.85 276.65L424.89 314.15L359.94 276.65L359.94 201.65zM424.89 389.15L489.85 426.65L489.85 501.65L424.89 539.15L359.94 501.65L359.94 426.65zM489.85 501.65L554.8 539.15L554.8 614.15L489.85 651.65L424.89 614.15L424.89 539.15zM554.8 -60.85L619.75 -23.35L619.75 51.65L554.8 89.15L489.85 51.65L489.85 -23.35zM619.75 51.65L684.71 89.15L684.71 164.15L619.75 201.65L554.8 164.15L554.8 89.15zM554.8 164.15L619.75 201.65L619.75 276.65L554.8 314.15L489.85 276.65L489.85 201.65zM554.8 389.15L619.75 426.65L619.75 501.65L554.8 539.15L489.85 501.65L489.85 426.65zM684.71 -60.85L749.66 -23.35L749.66 51.65L684.71 89.15L619.75 51.65L619.75 -23.35zM749.66 51.65L814.62 89.15L814.62 164.15L749.66 201.65L684.71 164.15L684.71 89.15zM684.71 164.15L749.66 201.65L749.66 276.65L684.71 314.15L619.75 276.65L619.75 201.65zM749.66 276.65L814.62 314.15L814.62 389.15L749.66 426.65L684.71 389.15L684.71 314.15zM684.71 389.15L749.66 426.65L749.66 501.65L684.71 539.15L619.75 501.65L619.75 426.65zM814.61 164.15L879.57 201.65L879.57 276.65L814.61 314.15L749.66 276.65L749.66 201.65zM814.61 389.15L879.57 426.65L879.57 501.65L814.61 539.15L749.66 501.65L749.66 426.65zM879.57 501.65L944.52 539.15L944.52 614.15L879.57 651.65L814.61 614.15L814.61 539.15zM944.52 -60.85L1009.48 -23.35L1009.48 51.65L944.52 89.15L879.57 51.65L879.57 -23.35zM1074.43 -60.85L1139.38 -23.35L1139.38 51.65L1074.43 89.15L1009.48 51.65L1009.48 -23.35zM1139.38 51.65L1204.34 89.15L1204.34 164.15L1139.38 201.65L1074.43 164.15L1074.43 89.15zM1074.43 164.15L1139.38 201.65L1139.38 276.65L1074.43 314.15L1009.48 276.65L1009.48 201.65zM1139.38 276.65L1204.34 314.15L1204.34 389.15L1139.38 426.65L1074.43 389.15L1074.43 314.15zM1204.34 -60.85L1269.29 -23.35L1269.29 51.65L1204.34 89.15L1139.38 51.65L1139.38 -23.35zM1204.34 164.15L1269.29 201.65L1269.29 276.65L1204.34 314.15L1139.38 276.65L1139.38 201.65zM1204.34 389.15L1269.29 426.65L1269.29 501.65L1204.34 539.15L1139.38 501.65L1139.38 426.65zM1399.2 276.65L1464.15 314.15L1464.15 389.15L1399.2 426.65L1334.25 389.15L1334.25 314.15zM1334.25 389.15L1399.2 426.65L1399.2 501.65L1334.25 539.15L1269.29 501.65L1269.29 426.65zM1464.15 164.15L1529.11 201.65L1529.11 276.65L1464.15 314.15L1399.2 276.65L1399.2 201.65zM1529.11 276.65L1594.06 314.15L1594.06 389.15L1529.11 426.65L1464.15 389.15L1464.15 314.15zM1464.15 389.15L1529.11 426.65L1529.11 501.65L1464.15 539.15L1399.2 501.65L1399.2 426.65z" stroke="rgba(228, 232, 237, 1)" stroke-width="2"></path><path d="M92.62 51.65 a7.5 7.5 0 1 0 15 0 a7.5 7.5 0 1 0 -15 0zM157.58 89.15 a7.5 7.5 0 1 0 15 0 a7.5 7.5 0 1 0 -15 0zM157.58 164.15 a7.5 7.5 0 1 0 15 0 a7.5 7.5 0 1 0 -15 0zM92.62 201.65 a7.5 7.5 0 1 0 15 0 a7.5 7.5 0 1 0 -15 0zM27.67 164.15 a7.5 7.5 0 1 0 15 0 a7.5 7.5 0 1 0 -15 0zM27.67 89.15 a7.5 7.5 0 1 0 15 0 a7.5 7.5 0 1 0 -15 0zM92.62 276.65 a7.5 7.5 0 1 0 15 0 a7.5 7.5 0 1 0 -15 0zM27.67 314.15 a7.5 7.5 0 1 0 15 0 a7.5 7.5 0 1 0 -15 0zM-37.28 276.65 a7.5 7.5 0 1 0 15 0 a7.5 7.5 0 1 0 -15 0zM-37.28 201.65 a7.5 7.5 0 1 0 15 0 a7.5 7.5 0 1 0 -15 0zM157.58 314.15 a7.5 7.5 0 1 0 15 0 a7.5 7.5 0 1 0 -15 0zM157.58 389.15 a7.5 7.5 0 1 0 15 0 a7.5 7.5 0 1 0 -15 0zM92.62 426.65 a7.5 7.5 0 1 0 15 0 a7.5 7.5 0 1 0 -15 0zM27.67 389.15 a7.5 7.5 0 1 0 15 0 a7.5 7.5 0 1 0 -15 0zM92.62 501.65 a7.5 7.5 0 1 0 15 0 a7.5 7.5 0 1 0 -15 0zM27.67 539.15 a7.5 7.5 0 1 0 15 0 a7.5 7.5 0 1 0 -15 0zM-37.28 501.65 a7.5 7.5 0 1 0 15 0 a7.5 7.5 0 1 0 -15 0zM-37.28 426.65 a7.5 7.5 0 1 0 15 0 a7.5 7.5 0 1 0 -15 0zM157.58 539.15 a7.5 7.5 0 1 0 15 0 a7.5 7.5 0 1 0 -15 0zM157.58 614.15 a7.5 7.5 0 1 0 15 0 a7.5 7.5 0 1 0 -15 0zM92.62 651.65 a7.5 7.5 0 1 0 15 0 a7.5 7.5 0 1 0 -15 0zM27.67 614.15 a7.5 7.5 0 1 0 15 0 a7.5 7.5 0 1 0 -15 0zM222.53 51.65 a7.5 7.5 0 1 0 15 0 a7.5 7.5 0 1 0 -15 0zM287.49 89.15 a7.5 7.5 0 1 0 15 0 a7.5 7.5 0 1 0 -15 0zM287.49 164.15 a7.5 7.5 0 1 0 15 0 a7.5 7.5 0 1 0 -15 0zM222.53 201.65 a7.5 7.5 0 1 0 15 0 a7.5 7.5 0 1 0 -15 0zM222.53 276.65 a7.5 7.5 0 1 0 15 0 a7.5 7.5 0 1 0 -15 0zM287.49 314.15 a7.5 7.5 0 1 0 15 0 a7.5 7.5 0 1 0 -15 0zM287.49 389.15 a7.5 7.5 0 1 0 15 0 a7.5 7.5 0 1 0 -15 0zM222.53 426.65 a7.5 7.5 0 1 0 15 0 a7.5 7.5 0 1 0 -15 0zM222.53 501.65 a7.5 7.5 0 1 0 15 0 a7.5 7.5 0 1 0 -15 0zM287.49 539.15 a7.5 7.5 0 1 0 15 0 a7.5 7.5 0 1 0 -15 0zM287.49 614.15 a7.5 7.5 0 1 0 15 0 a7.5 7.5 0 1 0 -15 0zM222.53 651.65 a7.5 7.5 0 1 0 15 0 a7.5 7.5 0 1 0 -15 0zM352.44 276.65 a7.5 7.5 0 1 0 15 0 a7.5 7.5 0 1 0 -15 0zM417.39 314.15 a7.5 7.5 0 1 0 15 0 a7.5 7.5 0 1 0 -15 0zM417.39 389.15 a7.5 7.5 0 1 0 15 0 a7.5 7.5 0 1 0 -15 0zM352.44 426.65 a7.5 7.5 0 1 0 15 0 a7.5 7.5 0 1 0 -15 0zM417.39 -60.85 a7.5 7.5 0 1 0 15 0 a7.5 7.5 0 1 0 -15 0zM482.35 -23.35 a7.5 7.5 0 1 0 15 0 a7.5 7.5 0 1 0 -15 0zM482.35 51.65 a7.5 7.5 0 1 0 15 0 a7.5 7.5 0 1 0 -15 0zM417.39 89.15 a7.5 7.5 0 1 0 15 0 a7.5 7.5 0 1 0 -15 0zM352.44 51.65 a7.5 7.5 0 1 0 15 0 a7.5 7.5 0 1 0 -15 0zM352.44 -23.35 a7.5 7.5 0 1 0 15 0 a7.5 7.5 0 1 0 -15 0zM417.39 164.15 a7.5 7.5 0 1 0 15 0 a7.5 7.5 0 1 0 -15 0zM482.35 201.65 a7.5 7.5 0 1 0 15 0 a7.5 7.5 0 1 0 -15 0zM482.35 276.65 a7.5 7.5 0 1 0 15 0 a7.5 7.5 0 1 0 -15 0zM352.44 201.65 a7.5 7.5 0 1 0 15 0 a7.5 7.5 0 1 0 -15 0zM482.35 426.65 a7.5 7.5 0 1 0 15 0 a7.5 7.5 0 1 0 -15 0zM482.35 501.65 a7.5 7.5 0 1 0 15 0 a7.5 7.5 0 1 0 -15 0zM417.39 539.15 a7.5 7.5 0 1 0 15 0 a7.5 7.5 0 1 0 -15 0zM352.44 501.65 a7.5 7.5 0 1 0 15 0 a7.5 7.5 0 1 0 -15 0zM547.3 539.15 a7.5 7.5 0 1 0 15 0 a7.5 7.5 0 1 0 -15 0zM547.3 614.15 a7.5 7.5 0 1 0 15 0 a7.5 7.5 0 1 0 -15 0zM482.35 651.65 a7.5 7.5 0 1 0 15 0 a7.5 7.5 0 1 0 -15 0zM417.39 614.15 a7.5 7.5 0 1 0 15 0 a7.5 7.5 0 1 0 -15 0zM547.3 -60.85 a7.5 7.5 0 1 0 15 0 a7.5 7.5 0 1 0 -15 0zM612.25 -23.35 a7.5 7.5 0 1 0 15 0 a7.5 7.5 0 1 0 -15 0zM612.25 51.65 a7.5 7.5 0 1 0 15 0 a7.5 7.5 0 1 0 -15 0zM547.3 89.15 a7.5 7.5 0 1 0 15 0 a7.5 7.5 0 1 0 -15 0zM677.21 89.15 a7.5 7.5 0 1 0 15 0 a7.5 7.5 0 1 0 -15 0zM677.21 164.15 a7.5 7.5 0 1 0 15 0 a7.5 7.5 0 1 0 -15 0zM612.25 201.65 a7.5 7.5 0 1 0 15 0 a7.5 7.5 0 1 0 -15 0zM547.3 164.15 a7.5 7.5 0 1 0 15 0 a7.5 7.5 0 1 0 -15 0zM612.25 276.65 a7.5 7.5 0 1 0 15 0 a7.5 7.5 0 1 0 -15 0zM547.3 314.15 a7.5 7.5 0 1 0 15 0 a7.5 7.5 0 1 0 -15 0zM547.3 389.15 a7.5 7.5 0 1 0 15 0 a7.5 7.5 0 1 0 -15 0zM612.25 426.65 a7.5 7.5 0 1 0 15 0 a7.5 7.5 0 1 0 -15 0zM612.25 501.65 a7.5 7.5 0 1 0 15 0 a7.5 7.5 0 1 0 -15 0zM677.21 -60.85 a7.5 7.5 0 1 0 15 0 a7.5 7.5 0 1 0 -15 0zM742.16 -23.35 a7.5 7.5 0 1 0 15 0 a7.5 7.5 0 1 0 -15 0zM742.16 51.65 a7.5 7.5 0 1 0 15 0 a7.5 7.5 0 1 0 -15 0zM807.12 89.15 a7.5 7.5 0 1 0 15 0 a7.5 7.5 0 1 0 -15 0zM807.12 164.15 a7.5 7.5 0 1 0 15 0 a7.5 7.5 0 1 0 -15 0zM742.16 201.65 a7.5 7.5 0 1 0 15 0 a7.5 7.5 0 1 0 -15 0zM742.16 276.65 a7.5 7.5 0 1 0 15 0 a7.5 7.5 0 1 0 -15 0zM677.21 314.15 a7.5 7.5 0 1 0 15 0 a7.5 7.5 0 1 0 -15 0zM807.12 314.15 a7.5 7.5 0 1 0 15 0 a7.5 7.5 0 1 0 -15 0zM807.12 389.15 a7.5 7.5 0 1 0 15 0 a7.5 7.5 0 1 0 -15 0zM742.16 426.65 a7.5 7.5 0 1 0 15 0 a7.5 7.5 0 1 0 -15 0zM677.21 389.15 a7.5 7.5 0 1 0 15 0 a7.5 7.5 0 1 0 -15 0zM742.16 501.65 a7.5 7.5 0 1 0 15 0 a7.5 7.5 0 1 0 -15 0zM677.21 539.15 a7.5 7.5 0 1 0 15 0 a7.5 7.5 0 1 0 -15 0zM807.11 164.15 a7.5 7.5 0 1 0 15 0 a7.5 7.5 0 1 0 -15 0zM872.07 201.65 a7.5 7.5 0 1 0 15 0 a7.5 7.5 0 1 0 -15 0zM872.07 276.65 a7.5 7.5 0 1 0 15 0 a7.5 7.5 0 1 0 -15 0zM807.11 314.15 a7.5 7.5 0 1 0 15 0 a7.5 7.5 0 1 0 -15 0zM807.11 389.15 a7.5 7.5 0 1 0 15 0 a7.5 7.5 0 1 0 -15 0zM872.07 426.65 a7.5 7.5 0 1 0 15 0 a7.5 7.5 0 1 0 -15 0zM872.07 501.65 a7.5 7.5 0 1 0 15 0 a7.5 7.5 0 1 0 -15 0zM807.11 539.15 a7.5 7.5 0 1 0 15 0 a7.5 7.5 0 1 0 -15 0zM937.02 539.15 a7.5 7.5 0 1 0 15 0 a7.5 7.5 0 1 0 -15 0zM937.02 614.15 a7.5 7.5 0 1 0 15 0 a7.5 7.5 0 1 0 -15 0zM872.07 651.65 a7.5 7.5 0 1 0 15 0 a7.5 7.5 0 1 0 -15 0zM807.11 614.15 a7.5 7.5 0 1 0 15 0 a7.5 7.5 0 1 0 -15 0zM937.02 -60.85 a7.5 7.5 0 1 0 15 0 a7.5 7.5 0 1 0 -15 0zM1001.98 -23.35 a7.5 7.5 0 1 0 15 0 a7.5 7.5 0 1 0 -15 0zM1001.98 51.65 a7.5 7.5 0 1 0 15 0 a7.5 7.5 0 1 0 -15 0zM937.02 89.15 a7.5 7.5 0 1 0 15 0 a7.5 7.5 0 1 0 -15 0zM872.07 51.65 a7.5 7.5 0 1 0 15 0 a7.5 7.5 0 1 0 -15 0zM872.07 -23.35 a7.5 7.5 0 1 0 15 0 a7.5 7.5 0 1 0 -15 0zM1066.93 -60.85 a7.5 7.5 0 1 0 15 0 a7.5 7.5 0 1 0 -15 0zM1131.88 -23.35 a7.5 7.5 0 1 0 15 0 a7.5 7.5 0 1 0 -15 0zM1131.88 51.65 a7.5 7.5 0 1 0 15 0 a7.5 7.5 0 1 0 -15 0zM1066.93 89.15 a7.5 7.5 0 1 0 15 0 a7.5 7.5 0 1 0 -15 0zM1196.84 89.15 a7.5 7.5 0 1 0 15 0 a7.5 7.5 0 1 0 -15 0zM1196.84 164.15 a7.5 7.5 0 1 0 15 0 a7.5 7.5 0 1 0 -15 0zM1131.88 201.65 a7.5 7.5 0 1 0 15 0 a7.5 7.5 0 1 0 -15 0zM1066.93 164.15 a7.5 7.5 0 1 0 15 0 a7.5 7.5 0 1 0 -15 0zM1131.88 276.65 a7.5 7.5 0 1 0 15 0 a7.5 7.5 0 1 0 -15 0zM1066.93 314.15 a7.5 7.5 0 1 0 15 0 a7.5 7.5 0 1 0 -15 0zM1001.98 276.65 a7.5 7.5 0 1 0 15 0 a7.5 7.5 0 1 0 -15 0zM1001.98 201.65 a7.5 7.5 0 1 0 15 0 a7.5 7.5 0 1 0 -15 0zM1196.84 314.15 a7.5 7.5 0 1 0 15 0 a7.5 7.5 0 1 0 -15 0zM1196.84 389.15 a7.5 7.5 0 1 0 15 0 a7.5 7.5 0 1 0 -15 0zM1131.88 426.65 a7.5 7.5 0 1 0 15 0 a7.5 7.5 0 1 0 -15 0zM1066.93 389.15 a7.5 7.5 0 1 0 15 0 a7.5 7.5 0 1 0 -15 0zM1196.84 -60.85 a7.5 7.5 0 1 0 15 0 a7.5 7.5 0 1 0 -15 0zM1261.79 -23.35 a7.5 7.5 0 1 0 15 0 a7.5 7.5 0 1 0 -15 0zM1261.79 51.65 a7.5 7.5 0 1 0 15 0 a7.5 7.5 0 1 0 -15 0zM1261.79 201.65 a7.5 7.5 0 1 0 15 0 a7.5 7.5 0 1 0 -15 0zM1261.79 276.65 a7.5 7.5 0 1 0 15 0 a7.5 7.5 0 1 0 -15 0zM1261.79 426.65 a7.5 7.5 0 1 0 15 0 a7.5 7.5 0 1 0 -15 0zM1261.79 501.65 a7.5 7.5 0 1 0 15 0 a7.5 7.5 0 1 0 -15 0zM1196.84 539.15 a7.5 7.5 0 1 0 15 0 a7.5 7.5 0 1 0 -15 0zM1131.88 501.65 a7.5 7.5 0 1 0 15 0 a7.5 7.5 0 1 0 -15 0zM1391.7 276.65 a7.5 7.5 0 1 0 15 0 a7.5 7.5 0 1 0 -15 0zM1456.65 314.15 a7.5 7.5 0 1 0 15 0 a7.5 7.5 0 1 0 -15 0zM1456.65 389.15 a7.5 7.5 0 1 0 15 0 a7.5 7.5 0 1 0 -15 0zM1391.7 426.65 a7.5 7.5 0 1 0 15 0 a7.5 7.5 0 1 0 -15 0zM1326.75 389.15 a7.5 7.5 0 1 0 15 0 a7.5 7.5 0 1 0 -15 0zM1326.75 314.15 a7.5 7.5 0 1 0 15 0 a7.5 7.5 0 1 0 -15 0zM1391.7 501.65 a7.5 7.5 0 1 0 15 0 a7.5 7.5 0 1 0 -15 0zM1326.75 539.15 a7.5 7.5 0 1 0 15 0 a7.5 7.5 0 1 0 -15 0zM1456.65 164.15 a7.5 7.5 0 1 0 15 0 a7.5 7.5 0 1 0 -15 0zM1521.61 201.65 a7.5 7.5 0 1 0 15 0 a7.5 7.5 0 1 0 -15 0zM1521.61 276.65 a7.5 7.5 0 1 0 15 0 a7.5 7.5 0 1 0 -15 0zM1391.7 201.65 a7.5 7.5 0 1 0 15 0 a7.5 7.5 0 1 0 -15 0zM1586.56 314.15 a7.5 7.5 0 1 0 15 0 a7.5 7.5 0 1 0 -15 0zM1586.56 389.15 a7.5 7.5 0 1 0 15 0 a7.5 7.5 0 1 0 -15 0zM1521.61 426.65 a7.5 7.5 0 1 0 15 0 a7.5 7.5 0 1 0 -15 0zM1521.61 501.65 a7.5 7.5 0 1 0 15 0 a7.5 7.5 0 1 0 -15 0zM1456.65 539.15 a7.5 7.5 0 1 0 15 0 a7.5 7.5 0 1 0 -15 0z" fill="rgba(228, 232, 237, 1)"></path><path d="M6.11 -6.69L28.63 6.31L28.63 32.31L6.11 45.31L-16.41 32.31L-16.41 6.31zM6.11 305.31L28.63 318.31L28.63 344.31L6.11 357.31L-16.41 344.31L-16.41 318.31zM141.21 305.31L163.73 318.31L163.73 344.31L141.21 357.31L118.7 344.31L118.7 318.31zM163.73 500.31L186.25 513.31L186.25 539.31L163.73 552.31L141.21 539.31L141.21 513.31zM186.25 149.31L208.77 162.31L208.77 188.31L186.25 201.31L163.73 188.31L163.73 162.31zM208.77 266.31L231.28 279.31L231.28 305.31L208.77 318.31L186.25 305.31L186.25 279.31zM208.77 344.31L231.28 357.31L231.28 383.31L208.77 396.31L186.25 383.31L186.25 357.31zM231.28 -6.69L253.8 6.31L253.8 32.31L231.28 45.31L208.77 32.31L208.77 6.31zM276.32 -6.69L298.83 6.31L298.83 32.31L276.32 45.31L253.8 32.31L253.8 6.31zM298.83 266.31L321.35 279.31L321.35 305.31L298.83 318.31L276.32 305.31L276.32 279.31zM276.32 305.31L298.83 318.31L298.83 344.31L276.32 357.31L253.8 344.31L253.8 318.31zM321.35 -6.69L343.87 6.31L343.87 32.31L321.35 45.31L298.83 32.31L298.83 6.31zM343.87 344.31L366.39 357.31L366.39 383.31L343.87 396.31L321.35 383.31L321.35 357.31zM478.97 32.31L501.49 45.31L501.49 71.31L478.97 84.31L456.46 71.31L456.46 45.31zM456.46 461.31L478.97 474.31L478.97 500.31L456.46 513.31L433.94 500.31L433.94 474.31zM456.46 539.31L478.97 552.31L478.97 578.31L456.46 591.31L433.94 578.31L433.94 552.31zM524.01 110.31L546.53 123.31L546.53 149.31L524.01 162.31L501.49 149.31L501.49 123.31zM501.49 149.31L524.01 162.31L524.01 188.31L501.49 201.31L478.97 188.31L478.97 162.31zM546.53 -6.69L569.04 6.31L569.04 32.31L546.53 45.31L524.01 32.31L524.01 6.31zM569.04 344.31L591.56 357.31L591.56 383.31L569.04 396.31L546.53 383.31L546.53 357.31zM546.53 461.31L569.04 474.31L569.04 500.31L546.53 513.31L524.01 500.31L524.01 474.31zM591.56 -6.69L614.08 6.31L614.08 32.31L591.56 45.31L569.04 32.31L569.04 6.31zM591.56 71.31L614.08 84.31L614.08 110.31L591.56 123.31L569.04 110.31L569.04 84.31zM614.08 110.31L636.59 123.31L636.59 149.31L614.08 162.31L591.56 149.31L591.56 123.31zM614.08 422.31L636.59 435.31L636.59 461.31L614.08 474.31L591.56 461.31L591.56 435.31zM659.11 266.31L681.63 279.31L681.63 305.31L659.11 318.31L636.59 305.31L636.59 279.31zM681.63 149.31L704.15 162.31L704.15 188.31L681.63 201.31L659.11 188.31L659.11 162.31zM681.63 305.31L704.15 318.31L704.15 344.31L681.63 357.31L659.11 344.31L659.11 318.31zM681.63 461.31L704.15 474.31L704.15 500.31L681.63 513.31L659.11 500.31L659.11 474.31zM794.22 422.31L816.73 435.31L816.73 461.31L794.22 474.31L771.7 461.31L771.7 435.31zM816.73 149.31L839.25 162.31L839.25 188.31L816.73 201.31L794.22 188.31L794.22 162.31zM839.25 422.31L861.77 435.31L861.77 461.31L839.25 474.31L816.73 461.31L816.73 435.31zM839.25 500.31L861.77 513.31L861.77 539.31L839.25 552.31L816.73 539.31L816.73 513.31zM861.77 227.31L884.28 240.31L884.28 266.31L861.77 279.31L839.25 266.31L839.25 240.31zM884.28 344.31L906.8 357.31L906.8 383.31L884.28 396.31L861.77 383.31L861.77 357.31zM884.28 500.31L906.8 513.31L906.8 539.31L884.28 552.31L861.77 539.31L861.77 513.31zM861.77 539.31L884.28 552.31L884.28 578.31L861.77 591.31L839.25 578.31L839.25 552.31zM974.35 32.31L996.87 45.31L996.87 71.31L974.35 84.31L951.84 71.31L951.84 45.31zM996.87 -6.69L1019.39 6.31L1019.39 32.31L996.87 45.31L974.35 32.31L974.35 6.31zM1019.39 344.31L1041.91 357.31L1041.91 383.31L1019.39 396.31L996.87 383.31L996.87 357.31zM996.87 461.31L1019.39 474.31L1019.39 500.31L996.87 513.31L974.35 500.31L974.35 474.31zM1041.91 71.31L1064.42 84.31L1064.42 110.31L1041.91 123.31L1019.39 110.31L1019.39 84.31zM1109.46 110.31L1131.97 123.31L1131.97 149.31L1109.46 162.31L1086.94 149.31L1086.94 123.31zM1086.94 305.31L1109.46 318.31L1109.46 344.31L1086.94 357.31L1064.42 344.31L1064.42 318.31zM1086.94 539.31L1109.46 552.31L1109.46 578.31L1086.94 591.31L1064.42 578.31L1064.42 552.31zM1131.97 71.31L1154.49 84.31L1154.49 110.31L1131.97 123.31L1109.46 110.31L1109.46 84.31zM1131.97 539.31L1154.49 552.31L1154.49 578.31L1131.97 591.31L1109.46 578.31L1109.46 552.31zM1177.01 227.31L1199.53 240.31L1199.53 266.31L1177.01 279.31L1154.49 266.31L1154.49 240.31zM1222.04 -6.69L1244.56 6.31L1244.56 32.31L1222.04 45.31L1199.53 32.31L1199.53 6.31zM1222.04 149.31L1244.56 162.31L1244.56 188.31L1222.04 201.31L1199.53 188.31L1199.53 162.31zM1222.04 305.31L1244.56 318.31L1244.56 344.31L1222.04 357.31L1199.53 344.31L1199.53 318.31zM1244.56 422.31L1267.08 435.31L1267.08 461.31L1244.56 474.31L1222.04 461.31L1222.04 435.31zM1289.6 188.31L1312.11 201.31L1312.11 227.31L1289.6 240.31L1267.08 227.31L1267.08 201.31zM1289.6 344.31L1312.11 357.31L1312.11 383.31L1289.6 396.31L1267.08 383.31L1267.08 357.31zM1267.08 383.31L1289.6 396.31L1289.6 422.31L1267.08 435.31L1244.56 422.31L1244.56 396.31zM1334.63 32.31L1357.15 45.31L1357.15 71.31L1334.63 84.31L1312.11 71.31L1312.11 45.31zM1334.63 110.31L1357.15 123.31L1357.15 149.31L1334.63 162.31L1312.11 149.31L1312.11 123.31zM1312.11 305.31L1334.63 318.31L1334.63 344.31L1312.11 357.31L1289.6 344.31L1289.6 318.31zM1334.63 422.31L1357.15 435.31L1357.15 461.31L1334.63 474.31L1312.11 461.31L1312.11 435.31zM1312.11 539.31L1334.63 552.31L1334.63 578.31L1312.11 591.31L1289.6 578.31L1289.6 552.31zM1357.15 305.31L1379.67 318.31L1379.67 344.31L1357.15 357.31L1334.63 344.31L1334.63 318.31zM1402.18 -6.69L1424.7 6.31L1424.7 32.31L1402.18 45.31L1379.67 32.31L1379.67 6.31z" stroke="rgba(228, 232, 237, 0.93)" stroke-width="2"></path></g><defs><mask id="SvgjsMask1539"><rect width="1440" height="560" fill="#ffffff"></rect></mask></defs></svg>