<svg xmlns="http://www.w3.org/2000/svg" version="1.1" xmlns:xlink="http://www.w3.org/1999/xlink" xmlns:svgjs="http://svgjs.dev/svgjs" width="1440" height="560" preserveAspectRatio="none" viewBox="0 0 1440 560"><g mask="url(&quot;#SvgjsMask1515&quot;)" fill="none"><rect width="1440" height="560" x="0" y="0" fill="rgba(237, 242, 247, 1)"></rect><path d="M63.23 -59.33L128.18 -21.83L128.18 53.17L63.23 90.67L-1.72 53.17L-1.72 -21.83zM128.18 53.17L193.14 90.67L193.14 165.67L128.18 203.17L63.23 165.67L63.23 90.67zM63.23 165.67L128.18 203.17L128.18 278.17L63.23 315.67L-1.72 278.17L-1.72 203.17zM63.23 390.67L128.18 428.17L128.18 503.17L63.23 540.67L-1.72 503.17L-1.72 428.17zM258.09 53.17L323.05 90.67L323.05 165.67L258.09 203.17L193.14 165.67L193.14 90.67zM452.95 165.67L517.91 203.17L517.91 278.17L452.95 315.67L388 278.17L388 203.17zM452.95 390.67L517.91 428.17L517.91 503.17L452.95 540.67L388 503.17L388 428.17zM712.77 -59.33L777.72 -21.83L777.72 53.17L712.77 90.67L647.81 53.17L647.81 -21.83zM712.77 165.67L777.72 203.17L777.72 278.17L712.77 315.67L647.81 278.17L647.81 203.17zM777.72 503.17L842.68 540.67L842.68 615.67L777.72 653.17L712.77 615.67L712.77 540.67zM842.67 165.67L907.63 203.17L907.63 278.17L842.67 315.67L777.72 278.17L777.72 203.17zM907.63 278.17L972.58 315.67L972.58 390.67L907.63 428.17L842.67 390.67L842.67 315.67zM1037.54 53.17L1102.49 90.67L1102.49 165.67L1037.54 203.17L972.58 165.67L972.58 90.67zM1037.54 278.17L1102.49 315.67L1102.49 390.67L1037.54 428.17L972.58 390.67L972.58 315.67zM1167.44 53.17L1232.4 90.67L1232.4 165.67L1167.44 203.17L1102.49 165.67L1102.49 90.67zM1427.26 53.17L1492.21 90.67L1492.21 165.67L1427.26 203.17L1362.31 165.67L1362.31 90.67zM1362.31 390.67L1427.26 428.17L1427.26 503.17L1362.31 540.67L1297.35 503.17L1297.35 428.17zM1557.17 53.17L1622.12 90.67L1622.12 165.67L1557.17 203.17L1492.21 165.67L1492.21 90.67zM1492.21 390.67L1557.17 428.17L1557.17 503.17L1492.21 540.67L1427.26 503.17L1427.26 428.17z" stroke="rgba(228, 232, 237, 1)" stroke-width="2"></path><path d="M55.73 -59.33 a7.5 7.5 0 1 0 15 0 a7.5 7.5 0 1 0 -15 0zM120.68 -21.83 a7.5 7.5 0 1 0 15 0 a7.5 7.5 0 1 0 -15 0zM120.68 53.17 a7.5 7.5 0 1 0 15 0 a7.5 7.5 0 1 0 -15 0zM55.73 90.67 a7.5 7.5 0 1 0 15 0 a7.5 7.5 0 1 0 -15 0zM-9.22 53.17 a7.5 7.5 0 1 0 15 0 a7.5 7.5 0 1 0 -15 0zM-9.22 -21.83 a7.5 7.5 0 1 0 15 0 a7.5 7.5 0 1 0 -15 0zM185.64 90.67 a7.5 7.5 0 1 0 15 0 a7.5 7.5 0 1 0 -15 0zM185.64 165.67 a7.5 7.5 0 1 0 15 0 a7.5 7.5 0 1 0 -15 0zM120.68 203.17 a7.5 7.5 0 1 0 15 0 a7.5 7.5 0 1 0 -15 0zM55.73 165.67 a7.5 7.5 0 1 0 15 0 a7.5 7.5 0 1 0 -15 0zM120.68 278.17 a7.5 7.5 0 1 0 15 0 a7.5 7.5 0 1 0 -15 0zM55.73 315.67 a7.5 7.5 0 1 0 15 0 a7.5 7.5 0 1 0 -15 0zM-9.22 278.17 a7.5 7.5 0 1 0 15 0 a7.5 7.5 0 1 0 -15 0zM-9.22 203.17 a7.5 7.5 0 1 0 15 0 a7.5 7.5 0 1 0 -15 0zM55.73 390.67 a7.5 7.5 0 1 0 15 0 a7.5 7.5 0 1 0 -15 0zM120.68 428.17 a7.5 7.5 0 1 0 15 0 a7.5 7.5 0 1 0 -15 0zM120.68 503.17 a7.5 7.5 0 1 0 15 0 a7.5 7.5 0 1 0 -15 0zM55.73 540.67 a7.5 7.5 0 1 0 15 0 a7.5 7.5 0 1 0 -15 0zM-9.22 503.17 a7.5 7.5 0 1 0 15 0 a7.5 7.5 0 1 0 -15 0zM-9.22 428.17 a7.5 7.5 0 1 0 15 0 a7.5 7.5 0 1 0 -15 0zM250.59 53.17 a7.5 7.5 0 1 0 15 0 a7.5 7.5 0 1 0 -15 0zM315.55 90.67 a7.5 7.5 0 1 0 15 0 a7.5 7.5 0 1 0 -15 0zM315.55 165.67 a7.5 7.5 0 1 0 15 0 a7.5 7.5 0 1 0 -15 0zM250.59 203.17 a7.5 7.5 0 1 0 15 0 a7.5 7.5 0 1 0 -15 0zM445.45 165.67 a7.5 7.5 0 1 0 15 0 a7.5 7.5 0 1 0 -15 0zM510.41 203.17 a7.5 7.5 0 1 0 15 0 a7.5 7.5 0 1 0 -15 0zM510.41 278.17 a7.5 7.5 0 1 0 15 0 a7.5 7.5 0 1 0 -15 0zM445.45 315.67 a7.5 7.5 0 1 0 15 0 a7.5 7.5 0 1 0 -15 0zM380.5 278.17 a7.5 7.5 0 1 0 15 0 a7.5 7.5 0 1 0 -15 0zM380.5 203.17 a7.5 7.5 0 1 0 15 0 a7.5 7.5 0 1 0 -15 0zM445.45 390.67 a7.5 7.5 0 1 0 15 0 a7.5 7.5 0 1 0 -15 0zM510.41 428.17 a7.5 7.5 0 1 0 15 0 a7.5 7.5 0 1 0 -15 0zM510.41 503.17 a7.5 7.5 0 1 0 15 0 a7.5 7.5 0 1 0 -15 0zM445.45 540.67 a7.5 7.5 0 1 0 15 0 a7.5 7.5 0 1 0 -15 0zM380.5 503.17 a7.5 7.5 0 1 0 15 0 a7.5 7.5 0 1 0 -15 0zM380.5 428.17 a7.5 7.5 0 1 0 15 0 a7.5 7.5 0 1 0 -15 0zM705.27 -59.33 a7.5 7.5 0 1 0 15 0 a7.5 7.5 0 1 0 -15 0zM770.22 -21.83 a7.5 7.5 0 1 0 15 0 a7.5 7.5 0 1 0 -15 0zM770.22 53.17 a7.5 7.5 0 1 0 15 0 a7.5 7.5 0 1 0 -15 0zM705.27 90.67 a7.5 7.5 0 1 0 15 0 a7.5 7.5 0 1 0 -15 0zM640.31 53.17 a7.5 7.5 0 1 0 15 0 a7.5 7.5 0 1 0 -15 0zM640.31 -21.83 a7.5 7.5 0 1 0 15 0 a7.5 7.5 0 1 0 -15 0zM705.27 165.67 a7.5 7.5 0 1 0 15 0 a7.5 7.5 0 1 0 -15 0zM770.22 203.17 a7.5 7.5 0 1 0 15 0 a7.5 7.5 0 1 0 -15 0zM770.22 278.17 a7.5 7.5 0 1 0 15 0 a7.5 7.5 0 1 0 -15 0zM705.27 315.67 a7.5 7.5 0 1 0 15 0 a7.5 7.5 0 1 0 -15 0zM640.31 278.17 a7.5 7.5 0 1 0 15 0 a7.5 7.5 0 1 0 -15 0zM640.31 203.17 a7.5 7.5 0 1 0 15 0 a7.5 7.5 0 1 0 -15 0zM770.22 503.17 a7.5 7.5 0 1 0 15 0 a7.5 7.5 0 1 0 -15 0zM835.18 540.67 a7.5 7.5 0 1 0 15 0 a7.5 7.5 0 1 0 -15 0zM835.18 615.67 a7.5 7.5 0 1 0 15 0 a7.5 7.5 0 1 0 -15 0zM770.22 653.17 a7.5 7.5 0 1 0 15 0 a7.5 7.5 0 1 0 -15 0zM705.27 615.67 a7.5 7.5 0 1 0 15 0 a7.5 7.5 0 1 0 -15 0zM705.27 540.67 a7.5 7.5 0 1 0 15 0 a7.5 7.5 0 1 0 -15 0zM835.17 165.67 a7.5 7.5 0 1 0 15 0 a7.5 7.5 0 1 0 -15 0zM900.13 203.17 a7.5 7.5 0 1 0 15 0 a7.5 7.5 0 1 0 -15 0zM900.13 278.17 a7.5 7.5 0 1 0 15 0 a7.5 7.5 0 1 0 -15 0zM835.17 315.67 a7.5 7.5 0 1 0 15 0 a7.5 7.5 0 1 0 -15 0zM965.08 315.67 a7.5 7.5 0 1 0 15 0 a7.5 7.5 0 1 0 -15 0zM965.08 390.67 a7.5 7.5 0 1 0 15 0 a7.5 7.5 0 1 0 -15 0zM900.13 428.17 a7.5 7.5 0 1 0 15 0 a7.5 7.5 0 1 0 -15 0zM835.17 390.67 a7.5 7.5 0 1 0 15 0 a7.5 7.5 0 1 0 -15 0zM1030.04 53.17 a7.5 7.5 0 1 0 15 0 a7.5 7.5 0 1 0 -15 0zM1094.99 90.67 a7.5 7.5 0 1 0 15 0 a7.5 7.5 0 1 0 -15 0zM1094.99 165.67 a7.5 7.5 0 1 0 15 0 a7.5 7.5 0 1 0 -15 0zM1030.04 203.17 a7.5 7.5 0 1 0 15 0 a7.5 7.5 0 1 0 -15 0zM965.08 165.67 a7.5 7.5 0 1 0 15 0 a7.5 7.5 0 1 0 -15 0zM965.08 90.67 a7.5 7.5 0 1 0 15 0 a7.5 7.5 0 1 0 -15 0zM1030.04 278.17 a7.5 7.5 0 1 0 15 0 a7.5 7.5 0 1 0 -15 0zM1094.99 315.67 a7.5 7.5 0 1 0 15 0 a7.5 7.5 0 1 0 -15 0zM1094.99 390.67 a7.5 7.5 0 1 0 15 0 a7.5 7.5 0 1 0 -15 0zM1030.04 428.17 a7.5 7.5 0 1 0 15 0 a7.5 7.5 0 1 0 -15 0zM1159.94 53.17 a7.5 7.5 0 1 0 15 0 a7.5 7.5 0 1 0 -15 0zM1224.9 90.67 a7.5 7.5 0 1 0 15 0 a7.5 7.5 0 1 0 -15 0zM1224.9 165.67 a7.5 7.5 0 1 0 15 0 a7.5 7.5 0 1 0 -15 0zM1159.94 203.17 a7.5 7.5 0 1 0 15 0 a7.5 7.5 0 1 0 -15 0zM1419.76 53.17 a7.5 7.5 0 1 0 15 0 a7.5 7.5 0 1 0 -15 0zM1484.71 90.67 a7.5 7.5 0 1 0 15 0 a7.5 7.5 0 1 0 -15 0zM1484.71 165.67 a7.5 7.5 0 1 0 15 0 a7.5 7.5 0 1 0 -15 0zM1419.76 203.17 a7.5 7.5 0 1 0 15 0 a7.5 7.5 0 1 0 -15 0zM1354.81 165.67 a7.5 7.5 0 1 0 15 0 a7.5 7.5 0 1 0 -15 0zM1354.81 90.67 a7.5 7.5 0 1 0 15 0 a7.5 7.5 0 1 0 -15 0zM1354.81 390.67 a7.5 7.5 0 1 0 15 0 a7.5 7.5 0 1 0 -15 0zM1419.76 428.17 a7.5 7.5 0 1 0 15 0 a7.5 7.5 0 1 0 -15 0zM1419.76 503.17 a7.5 7.5 0 1 0 15 0 a7.5 7.5 0 1 0 -15 0zM1354.81 540.67 a7.5 7.5 0 1 0 15 0 a7.5 7.5 0 1 0 -15 0zM1289.85 503.17 a7.5 7.5 0 1 0 15 0 a7.5 7.5 0 1 0 -15 0zM1289.85 428.17 a7.5 7.5 0 1 0 15 0 a7.5 7.5 0 1 0 -15 0zM1549.67 53.17 a7.5 7.5 0 1 0 15 0 a7.5 7.5 0 1 0 -15 0zM1614.62 90.67 a7.5 7.5 0 1 0 15 0 a7.5 7.5 0 1 0 -15 0zM1614.62 165.67 a7.5 7.5 0 1 0 15 0 a7.5 7.5 0 1 0 -15 0zM1549.67 203.17 a7.5 7.5 0 1 0 15 0 a7.5 7.5 0 1 0 -15 0zM1484.71 390.67 a7.5 7.5 0 1 0 15 0 a7.5 7.5 0 1 0 -15 0zM1549.67 428.17 a7.5 7.5 0 1 0 15 0 a7.5 7.5 0 1 0 -15 0zM1549.67 503.17 a7.5 7.5 0 1 0 15 0 a7.5 7.5 0 1 0 -15 0zM1484.71 540.67 a7.5 7.5 0 1 0 15 0 a7.5 7.5 0 1 0 -15 0z" fill="rgba(228, 232, 237, 1)"></path><path d="M93.38 -1.99L136.68 23.01L136.68 73.01L93.38 98.01L50.07 73.01L50.07 23.01zM179.98 448.01L223.28 473.01L223.28 523.01L179.98 548.01L136.68 523.01L136.68 473.01zM266.58 298.01L309.89 323.01L309.89 373.01L266.58 398.01L223.28 373.01L223.28 323.01zM396.49 73.01L439.8 98.01L439.8 148.01L396.49 173.01L353.19 148.01L353.19 98.01zM483.1 73.01L526.4 98.01L526.4 148.01L483.1 173.01L439.8 148.01L439.8 98.01zM483.1 373.01L526.4 398.01L526.4 448.01L483.1 473.01L439.8 448.01L439.8 398.01zM526.4 448.01L569.7 473.01L569.7 523.01L526.4 548.01L483.1 523.01L483.1 473.01zM656.31 523.01L699.61 548.01L699.61 598.01L656.31 623.01L613 598.01L613 548.01zM742.91 373.01L786.22 398.01L786.22 448.01L742.91 473.01L699.61 448.01L699.61 398.01zM699.61 448.01L742.91 473.01L742.91 523.01L699.61 548.01L656.31 523.01L656.31 473.01zM786.22 448.01L829.52 473.01L829.52 523.01L786.22 548.01L742.91 523.01L742.91 473.01zM1002.73 523.01L1046.03 548.01L1046.03 598.01L1002.73 623.01L959.43 598.01L959.43 548.01zM1175.94 523.01L1219.24 548.01L1219.24 598.01L1175.94 623.01L1132.63 598.01L1132.63 548.01zM1262.54 223.01L1305.85 248.01L1305.85 298.01L1262.54 323.01L1219.24 298.01L1219.24 248.01zM1219.24 298.01L1262.54 323.01L1262.54 373.01L1219.24 398.01L1175.94 373.01L1175.94 323.01zM1392.45 448.01L1435.75 473.01L1435.75 523.01L1392.45 548.01L1349.15 523.01L1349.15 473.01z" stroke="rgba(228, 232, 237, 0.93)" stroke-width="2"></path></g><defs><mask id="SvgjsMask1515"><rect width="1440" height="560" fill="#ffffff"></rect></mask></defs></svg>