<svg xmlns="http://www.w3.org/2000/svg" version="1.1" xmlns:xlink="http://www.w3.org/1999/xlink" xmlns:svgjs="http://svgjs.dev/svgjs" width="1440" height="560" preserveAspectRatio="none" viewBox="0 0 1440 560"><g mask="url(&quot;#SvgjsMask1517&quot;)" fill="none"><rect width="1440" height="560" x="0" y="0" fill="rgba(237, 242, 247, 1)"></rect><path d="M41.09 221.63L106.04 259.13L106.04 334.13L41.09 371.63L-23.86 334.13L-23.86 259.13zM106.04 334.13L171 371.63L171 446.63L106.04 484.13L41.09 446.63L41.09 371.63zM235.95 559.13L300.9 596.63L300.9 671.63L235.95 709.13L171 671.63L171 596.63zM365.86 109.13L430.81 146.63L430.81 221.63L365.86 259.13L300.9 221.63L300.9 146.63zM300.9 221.63L365.86 259.13L365.86 334.13L300.9 371.63L235.95 334.13L235.95 259.13zM430.81 -3.37L495.77 34.13L495.77 109.13L430.81 146.63L365.86 109.13L365.86 34.13zM560.72 -3.37L625.67 34.13L625.67 109.13L560.72 146.63L495.77 109.13L495.77 34.13zM690.63 -3.37L755.58 34.13L755.58 109.13L690.63 146.63L625.67 109.13L625.67 34.13zM690.63 446.63L755.58 484.13L755.58 559.13L690.63 596.63L625.67 559.13L625.67 484.13zM755.58 559.13L820.54 596.63L820.54 671.63L755.58 709.13L690.63 671.63L690.63 596.63zM820.53 221.63L885.49 259.13L885.49 334.13L820.53 371.63L755.58 334.13L755.58 259.13zM820.53 446.63L885.49 484.13L885.49 559.13L820.53 596.63L755.58 559.13L755.58 484.13zM885.49 559.13L950.44 596.63L950.44 671.63L885.49 709.13L820.53 671.63L820.53 596.63zM950.44 -3.37L1015.4 34.13L1015.4 109.13L950.44 146.63L885.49 109.13L885.49 34.13zM950.44 221.63L1015.4 259.13L1015.4 334.13L950.44 371.63L885.49 334.13L885.49 259.13zM1015.4 334.13L1080.35 371.63L1080.35 446.63L1015.4 484.13L950.44 446.63L950.44 371.63zM950.44 446.63L1015.4 484.13L1015.4 559.13L950.44 596.63L885.49 559.13L885.49 484.13zM1145.3 109.13L1210.26 146.63L1210.26 221.63L1145.3 259.13L1080.35 221.63L1080.35 146.63zM1080.35 221.63L1145.3 259.13L1145.3 334.13L1080.35 371.63L1015.4 334.13L1015.4 259.13zM1145.3 334.13L1210.26 371.63L1210.26 446.63L1145.3 484.13L1080.35 446.63L1080.35 371.63zM1145.3 559.13L1210.26 596.63L1210.26 671.63L1145.3 709.13L1080.35 671.63L1080.35 596.63zM1210.26 221.63L1275.21 259.13L1275.21 334.13L1210.26 371.63L1145.3 334.13L1145.3 259.13zM1275.21 334.13L1340.16 371.63L1340.16 446.63L1275.21 484.13L1210.26 446.63L1210.26 371.63zM1405.12 109.13L1470.07 146.63L1470.07 221.63L1405.12 259.13L1340.16 221.63L1340.16 146.63zM1340.16 221.63L1405.12 259.13L1405.12 334.13L1340.16 371.63L1275.21 334.13L1275.21 259.13zM1405.12 334.13L1470.07 371.63L1470.07 446.63L1405.12 484.13L1340.16 446.63L1340.16 371.63zM1535.03 109.13L1599.98 146.63L1599.98 221.63L1535.03 259.13L1470.07 221.63L1470.07 146.63z" stroke="rgba(228, 232, 237, 1)" stroke-width="2"></path><path d="M33.59 221.63 a7.5 7.5 0 1 0 15 0 a7.5 7.5 0 1 0 -15 0zM98.54 259.13 a7.5 7.5 0 1 0 15 0 a7.5 7.5 0 1 0 -15 0zM98.54 334.13 a7.5 7.5 0 1 0 15 0 a7.5 7.5 0 1 0 -15 0zM33.59 371.63 a7.5 7.5 0 1 0 15 0 a7.5 7.5 0 1 0 -15 0zM-31.36 334.13 a7.5 7.5 0 1 0 15 0 a7.5 7.5 0 1 0 -15 0zM-31.36 259.13 a7.5 7.5 0 1 0 15 0 a7.5 7.5 0 1 0 -15 0zM163.5 371.63 a7.5 7.5 0 1 0 15 0 a7.5 7.5 0 1 0 -15 0zM163.5 446.63 a7.5 7.5 0 1 0 15 0 a7.5 7.5 0 1 0 -15 0zM98.54 484.13 a7.5 7.5 0 1 0 15 0 a7.5 7.5 0 1 0 -15 0zM33.59 446.63 a7.5 7.5 0 1 0 15 0 a7.5 7.5 0 1 0 -15 0zM228.45 559.13 a7.5 7.5 0 1 0 15 0 a7.5 7.5 0 1 0 -15 0zM293.4 596.63 a7.5 7.5 0 1 0 15 0 a7.5 7.5 0 1 0 -15 0zM293.4 671.63 a7.5 7.5 0 1 0 15 0 a7.5 7.5 0 1 0 -15 0zM228.45 709.13 a7.5 7.5 0 1 0 15 0 a7.5 7.5 0 1 0 -15 0zM163.5 671.63 a7.5 7.5 0 1 0 15 0 a7.5 7.5 0 1 0 -15 0zM163.5 596.63 a7.5 7.5 0 1 0 15 0 a7.5 7.5 0 1 0 -15 0zM358.36 109.13 a7.5 7.5 0 1 0 15 0 a7.5 7.5 0 1 0 -15 0zM423.31 146.63 a7.5 7.5 0 1 0 15 0 a7.5 7.5 0 1 0 -15 0zM423.31 221.63 a7.5 7.5 0 1 0 15 0 a7.5 7.5 0 1 0 -15 0zM358.36 259.13 a7.5 7.5 0 1 0 15 0 a7.5 7.5 0 1 0 -15 0zM293.4 221.63 a7.5 7.5 0 1 0 15 0 a7.5 7.5 0 1 0 -15 0zM293.4 146.63 a7.5 7.5 0 1 0 15 0 a7.5 7.5 0 1 0 -15 0zM358.36 334.13 a7.5 7.5 0 1 0 15 0 a7.5 7.5 0 1 0 -15 0zM293.4 371.63 a7.5 7.5 0 1 0 15 0 a7.5 7.5 0 1 0 -15 0zM228.45 334.13 a7.5 7.5 0 1 0 15 0 a7.5 7.5 0 1 0 -15 0zM228.45 259.13 a7.5 7.5 0 1 0 15 0 a7.5 7.5 0 1 0 -15 0zM423.31 -3.37 a7.5 7.5 0 1 0 15 0 a7.5 7.5 0 1 0 -15 0zM488.27 34.13 a7.5 7.5 0 1 0 15 0 a7.5 7.5 0 1 0 -15 0zM488.27 109.13 a7.5 7.5 0 1 0 15 0 a7.5 7.5 0 1 0 -15 0zM358.36 34.13 a7.5 7.5 0 1 0 15 0 a7.5 7.5 0 1 0 -15 0zM553.22 -3.37 a7.5 7.5 0 1 0 15 0 a7.5 7.5 0 1 0 -15 0zM618.17 34.13 a7.5 7.5 0 1 0 15 0 a7.5 7.5 0 1 0 -15 0zM618.17 109.13 a7.5 7.5 0 1 0 15 0 a7.5 7.5 0 1 0 -15 0zM553.22 146.63 a7.5 7.5 0 1 0 15 0 a7.5 7.5 0 1 0 -15 0zM683.13 -3.37 a7.5 7.5 0 1 0 15 0 a7.5 7.5 0 1 0 -15 0zM748.08 34.13 a7.5 7.5 0 1 0 15 0 a7.5 7.5 0 1 0 -15 0zM748.08 109.13 a7.5 7.5 0 1 0 15 0 a7.5 7.5 0 1 0 -15 0zM683.13 146.63 a7.5 7.5 0 1 0 15 0 a7.5 7.5 0 1 0 -15 0zM683.13 446.63 a7.5 7.5 0 1 0 15 0 a7.5 7.5 0 1 0 -15 0zM748.08 484.13 a7.5 7.5 0 1 0 15 0 a7.5 7.5 0 1 0 -15 0zM748.08 559.13 a7.5 7.5 0 1 0 15 0 a7.5 7.5 0 1 0 -15 0zM683.13 596.63 a7.5 7.5 0 1 0 15 0 a7.5 7.5 0 1 0 -15 0zM618.17 559.13 a7.5 7.5 0 1 0 15 0 a7.5 7.5 0 1 0 -15 0zM618.17 484.13 a7.5 7.5 0 1 0 15 0 a7.5 7.5 0 1 0 -15 0zM813.04 596.63 a7.5 7.5 0 1 0 15 0 a7.5 7.5 0 1 0 -15 0zM813.04 671.63 a7.5 7.5 0 1 0 15 0 a7.5 7.5 0 1 0 -15 0zM748.08 709.13 a7.5 7.5 0 1 0 15 0 a7.5 7.5 0 1 0 -15 0zM683.13 671.63 a7.5 7.5 0 1 0 15 0 a7.5 7.5 0 1 0 -15 0zM813.03 221.63 a7.5 7.5 0 1 0 15 0 a7.5 7.5 0 1 0 -15 0zM877.99 259.13 a7.5 7.5 0 1 0 15 0 a7.5 7.5 0 1 0 -15 0zM877.99 334.13 a7.5 7.5 0 1 0 15 0 a7.5 7.5 0 1 0 -15 0zM813.03 371.63 a7.5 7.5 0 1 0 15 0 a7.5 7.5 0 1 0 -15 0zM748.08 334.13 a7.5 7.5 0 1 0 15 0 a7.5 7.5 0 1 0 -15 0zM748.08 259.13 a7.5 7.5 0 1 0 15 0 a7.5 7.5 0 1 0 -15 0zM813.03 446.63 a7.5 7.5 0 1 0 15 0 a7.5 7.5 0 1 0 -15 0zM877.99 484.13 a7.5 7.5 0 1 0 15 0 a7.5 7.5 0 1 0 -15 0zM877.99 559.13 a7.5 7.5 0 1 0 15 0 a7.5 7.5 0 1 0 -15 0zM813.03 596.63 a7.5 7.5 0 1 0 15 0 a7.5 7.5 0 1 0 -15 0zM942.94 596.63 a7.5 7.5 0 1 0 15 0 a7.5 7.5 0 1 0 -15 0zM942.94 671.63 a7.5 7.5 0 1 0 15 0 a7.5 7.5 0 1 0 -15 0zM877.99 709.13 a7.5 7.5 0 1 0 15 0 a7.5 7.5 0 1 0 -15 0zM813.03 671.63 a7.5 7.5 0 1 0 15 0 a7.5 7.5 0 1 0 -15 0zM942.94 -3.37 a7.5 7.5 0 1 0 15 0 a7.5 7.5 0 1 0 -15 0zM1007.9 34.13 a7.5 7.5 0 1 0 15 0 a7.5 7.5 0 1 0 -15 0zM1007.9 109.13 a7.5 7.5 0 1 0 15 0 a7.5 7.5 0 1 0 -15 0zM942.94 146.63 a7.5 7.5 0 1 0 15 0 a7.5 7.5 0 1 0 -15 0zM877.99 109.13 a7.5 7.5 0 1 0 15 0 a7.5 7.5 0 1 0 -15 0zM877.99 34.13 a7.5 7.5 0 1 0 15 0 a7.5 7.5 0 1 0 -15 0zM942.94 221.63 a7.5 7.5 0 1 0 15 0 a7.5 7.5 0 1 0 -15 0zM1007.9 259.13 a7.5 7.5 0 1 0 15 0 a7.5 7.5 0 1 0 -15 0zM1007.9 334.13 a7.5 7.5 0 1 0 15 0 a7.5 7.5 0 1 0 -15 0zM942.94 371.63 a7.5 7.5 0 1 0 15 0 a7.5 7.5 0 1 0 -15 0zM1072.85 371.63 a7.5 7.5 0 1 0 15 0 a7.5 7.5 0 1 0 -15 0zM1072.85 446.63 a7.5 7.5 0 1 0 15 0 a7.5 7.5 0 1 0 -15 0zM1007.9 484.13 a7.5 7.5 0 1 0 15 0 a7.5 7.5 0 1 0 -15 0zM942.94 446.63 a7.5 7.5 0 1 0 15 0 a7.5 7.5 0 1 0 -15 0zM1007.9 559.13 a7.5 7.5 0 1 0 15 0 a7.5 7.5 0 1 0 -15 0zM1137.8 109.13 a7.5 7.5 0 1 0 15 0 a7.5 7.5 0 1 0 -15 0zM1202.76 146.63 a7.5 7.5 0 1 0 15 0 a7.5 7.5 0 1 0 -15 0zM1202.76 221.63 a7.5 7.5 0 1 0 15 0 a7.5 7.5 0 1 0 -15 0zM1137.8 259.13 a7.5 7.5 0 1 0 15 0 a7.5 7.5 0 1 0 -15 0zM1072.85 221.63 a7.5 7.5 0 1 0 15 0 a7.5 7.5 0 1 0 -15 0zM1072.85 146.63 a7.5 7.5 0 1 0 15 0 a7.5 7.5 0 1 0 -15 0zM1137.8 334.13 a7.5 7.5 0 1 0 15 0 a7.5 7.5 0 1 0 -15 0zM1202.76 371.63 a7.5 7.5 0 1 0 15 0 a7.5 7.5 0 1 0 -15 0zM1202.76 446.63 a7.5 7.5 0 1 0 15 0 a7.5 7.5 0 1 0 -15 0zM1137.8 484.13 a7.5 7.5 0 1 0 15 0 a7.5 7.5 0 1 0 -15 0zM1137.8 559.13 a7.5 7.5 0 1 0 15 0 a7.5 7.5 0 1 0 -15 0zM1202.76 596.63 a7.5 7.5 0 1 0 15 0 a7.5 7.5 0 1 0 -15 0zM1202.76 671.63 a7.5 7.5 0 1 0 15 0 a7.5 7.5 0 1 0 -15 0zM1137.8 709.13 a7.5 7.5 0 1 0 15 0 a7.5 7.5 0 1 0 -15 0zM1072.85 671.63 a7.5 7.5 0 1 0 15 0 a7.5 7.5 0 1 0 -15 0zM1072.85 596.63 a7.5 7.5 0 1 0 15 0 a7.5 7.5 0 1 0 -15 0zM1267.71 259.13 a7.5 7.5 0 1 0 15 0 a7.5 7.5 0 1 0 -15 0zM1267.71 334.13 a7.5 7.5 0 1 0 15 0 a7.5 7.5 0 1 0 -15 0zM1332.66 371.63 a7.5 7.5 0 1 0 15 0 a7.5 7.5 0 1 0 -15 0zM1332.66 446.63 a7.5 7.5 0 1 0 15 0 a7.5 7.5 0 1 0 -15 0zM1267.71 484.13 a7.5 7.5 0 1 0 15 0 a7.5 7.5 0 1 0 -15 0zM1397.62 109.13 a7.5 7.5 0 1 0 15 0 a7.5 7.5 0 1 0 -15 0zM1462.57 146.63 a7.5 7.5 0 1 0 15 0 a7.5 7.5 0 1 0 -15 0zM1462.57 221.63 a7.5 7.5 0 1 0 15 0 a7.5 7.5 0 1 0 -15 0zM1397.62 259.13 a7.5 7.5 0 1 0 15 0 a7.5 7.5 0 1 0 -15 0zM1332.66 221.63 a7.5 7.5 0 1 0 15 0 a7.5 7.5 0 1 0 -15 0zM1332.66 146.63 a7.5 7.5 0 1 0 15 0 a7.5 7.5 0 1 0 -15 0zM1397.62 334.13 a7.5 7.5 0 1 0 15 0 a7.5 7.5 0 1 0 -15 0zM1462.57 371.63 a7.5 7.5 0 1 0 15 0 a7.5 7.5 0 1 0 -15 0zM1462.57 446.63 a7.5 7.5 0 1 0 15 0 a7.5 7.5 0 1 0 -15 0zM1397.62 484.13 a7.5 7.5 0 1 0 15 0 a7.5 7.5 0 1 0 -15 0zM1527.53 109.13 a7.5 7.5 0 1 0 15 0 a7.5 7.5 0 1 0 -15 0zM1592.48 146.63 a7.5 7.5 0 1 0 15 0 a7.5 7.5 0 1 0 -15 0zM1592.48 221.63 a7.5 7.5 0 1 0 15 0 a7.5 7.5 0 1 0 -15 0zM1527.53 259.13 a7.5 7.5 0 1 0 15 0 a7.5 7.5 0 1 0 -15 0z" fill="rgba(228, 232, 237, 1)"></path><path d="M21.26 138.85L62.83 162.85L62.83 210.85L21.26 234.85L-20.31 210.85L-20.31 162.85zM21.26 426.85L62.83 450.85L62.83 498.85L21.26 522.85L-20.31 498.85L-20.31 450.85zM62.83 498.85L104.4 522.85L104.4 570.85L62.83 594.85L21.26 570.85L21.26 522.85zM21.26 570.85L62.83 594.85L62.83 642.85L21.26 666.85L-20.31 642.85L-20.31 594.85zM145.97 66.85L187.54 90.85L187.54 138.85L145.97 162.85L104.4 138.85L104.4 90.85zM104.4 138.85L145.97 162.85L145.97 210.85L104.4 234.85L62.83 210.85L62.83 162.85zM145.97 210.85L187.54 234.85L187.54 282.85L145.97 306.85L104.4 282.85L104.4 234.85zM104.4 282.85L145.97 306.85L145.97 354.85L104.4 378.85L62.83 354.85L62.83 306.85zM145.97 354.85L187.54 378.85L187.54 426.85L145.97 450.85L104.4 426.85L104.4 378.85zM145.97 498.85L187.54 522.85L187.54 570.85L145.97 594.85L104.4 570.85L104.4 522.85zM104.4 570.85L145.97 594.85L145.97 642.85L104.4 666.85L62.83 642.85L62.83 594.85zM187.54 -5.15L229.11 18.85L229.11 66.85L187.54 90.85L145.97 66.85L145.97 18.85zM229.11 66.85L270.68 90.85L270.68 138.85L229.11 162.85L187.54 138.85L187.54 90.85zM229.11 354.85L270.68 378.85L270.68 426.85L229.11 450.85L187.54 426.85L187.54 378.85zM187.54 426.85L229.11 450.85L229.11 498.85L187.54 522.85L145.97 498.85L145.97 450.85zM187.54 570.85L229.11 594.85L229.11 642.85L187.54 666.85L145.97 642.85L145.97 594.85zM270.68 138.85L312.25 162.85L312.25 210.85L270.68 234.85L229.11 210.85L229.11 162.85zM270.68 282.85L312.25 306.85L312.25 354.85L270.68 378.85L229.11 354.85L229.11 306.85zM270.68 426.85L312.25 450.85L312.25 498.85L270.68 522.85L229.11 498.85L229.11 450.85zM312.25 498.85L353.82 522.85L353.82 570.85L312.25 594.85L270.68 570.85L270.68 522.85zM270.68 570.85L312.25 594.85L312.25 642.85L270.68 666.85L229.11 642.85L229.11 594.85zM395.39 354.85L436.96 378.85L436.96 426.85L395.39 450.85L353.82 426.85L353.82 378.85zM478.53 210.85L520.1 234.85L520.1 282.85L478.53 306.85L436.96 282.85L436.96 234.85zM436.96 570.85L478.53 594.85L478.53 642.85L436.96 666.85L395.39 642.85L395.39 594.85zM520.1 138.85L561.68 162.85L561.68 210.85L520.1 234.85L478.53 210.85L478.53 162.85zM561.68 210.85L603.25 234.85L603.25 282.85L561.68 306.85L520.1 282.85L520.1 234.85zM561.68 354.85L603.25 378.85L603.25 426.85L561.68 450.85L520.1 426.85L520.1 378.85zM561.68 498.85L603.25 522.85L603.25 570.85L561.68 594.85L520.1 570.85L520.1 522.85zM520.1 570.85L561.68 594.85L561.68 642.85L520.1 666.85L478.53 642.85L478.53 594.85zM644.82 210.85L686.39 234.85L686.39 282.85L644.82 306.85L603.25 282.85L603.25 234.85zM644.82 354.85L686.39 378.85L686.39 426.85L644.82 450.85L603.25 426.85L603.25 378.85zM644.82 498.85L686.39 522.85L686.39 570.85L644.82 594.85L603.25 570.85L603.25 522.85zM727.96 354.85L769.53 378.85L769.53 426.85L727.96 450.85L686.39 426.85L686.39 378.85zM686.39 426.85L727.96 450.85L727.96 498.85L686.39 522.85L644.82 498.85L644.82 450.85zM686.39 570.85L727.96 594.85L727.96 642.85L686.39 666.85L644.82 642.85L644.82 594.85zM769.53 -5.15L811.1 18.85L811.1 66.85L769.53 90.85L727.96 66.85L727.96 18.85zM769.53 138.85L811.1 162.85L811.1 210.85L769.53 234.85L727.96 210.85L727.96 162.85zM811.1 210.85L852.67 234.85L852.67 282.85L811.1 306.85L769.53 282.85L769.53 234.85zM769.53 282.85L811.1 306.85L811.1 354.85L769.53 378.85L727.96 354.85L727.96 306.85zM811.1 498.85L852.67 522.85L852.67 570.85L811.1 594.85L769.53 570.85L769.53 522.85zM852.67 138.85L894.24 162.85L894.24 210.85L852.67 234.85L811.1 210.85L811.1 162.85zM852.67 282.85L894.24 306.85L894.24 354.85L852.67 378.85L811.1 354.85L811.1 306.85zM852.67 426.85L894.24 450.85L894.24 498.85L852.67 522.85L811.1 498.85L811.1 450.85zM894.24 498.85L935.81 522.85L935.81 570.85L894.24 594.85L852.67 570.85L852.67 522.85zM852.67 570.85L894.24 594.85L894.24 642.85L852.67 666.85L811.1 642.85L811.1 594.85zM977.38 66.85L1018.95 90.85L1018.95 138.85L977.38 162.85L935.81 138.85L935.81 90.85zM935.81 138.85L977.38 162.85L977.38 210.85L935.81 234.85L894.24 210.85L894.24 162.85zM977.38 210.85L1018.95 234.85L1018.95 282.85L977.38 306.85L935.81 282.85L935.81 234.85zM935.81 426.85L977.38 450.85L977.38 498.85L935.81 522.85L894.24 498.85L894.24 450.85zM977.38 498.85L1018.95 522.85L1018.95 570.85L977.38 594.85L935.81 570.85L935.81 522.85zM935.81 570.85L977.38 594.85L977.38 642.85L935.81 666.85L894.24 642.85L894.24 594.85zM1018.95 282.85L1060.52 306.85L1060.52 354.85L1018.95 378.85L977.38 354.85L977.38 306.85zM1060.52 354.85L1102.09 378.85L1102.09 426.85L1060.52 450.85L1018.95 426.85L1018.95 378.85zM1018.95 426.85L1060.52 450.85L1060.52 498.85L1018.95 522.85L977.38 498.85L977.38 450.85zM1018.95 570.85L1060.52 594.85L1060.52 642.85L1018.95 666.85L977.38 642.85L977.38 594.85zM1102.09 -5.15L1143.66 18.85L1143.66 66.85L1102.09 90.85L1060.52 66.85L1060.52 18.85zM1102.09 426.85L1143.66 450.85L1143.66 498.85L1102.09 522.85L1060.52 498.85L1060.52 450.85zM1143.66 498.85L1185.23 522.85L1185.23 570.85L1143.66 594.85L1102.09 570.85L1102.09 522.85zM1226.8 66.85L1268.37 90.85L1268.37 138.85L1226.8 162.85L1185.23 138.85L1185.23 90.85zM1185.23 138.85L1226.8 162.85L1226.8 210.85L1185.23 234.85L1143.66 210.85L1143.66 162.85zM1226.8 354.85L1268.37 378.85L1268.37 426.85L1226.8 450.85L1185.23 426.85L1185.23 378.85zM1226.8 498.85L1268.37 522.85L1268.37 570.85L1226.8 594.85L1185.23 570.85L1185.23 522.85zM1185.23 570.85L1226.8 594.85L1226.8 642.85L1185.23 666.85L1143.66 642.85L1143.66 594.85zM1309.94 66.85L1351.51 90.85L1351.51 138.85L1309.94 162.85L1268.37 138.85L1268.37 90.85zM1309.94 354.85L1351.51 378.85L1351.51 426.85L1309.94 450.85L1268.37 426.85L1268.37 378.85zM1351.51 -5.15L1393.08 18.85L1393.08 66.85L1351.51 90.85L1309.94 66.85L1309.94 18.85zM1393.08 66.85L1434.65 90.85L1434.65 138.85L1393.08 162.85L1351.51 138.85L1351.51 90.85zM1393.08 498.85L1434.65 522.85L1434.65 570.85L1393.08 594.85L1351.51 570.85L1351.51 522.85zM1476.22 66.85L1517.79 90.85L1517.79 138.85L1476.22 162.85L1434.65 138.85L1434.65 90.85zM1476.22 210.85L1517.79 234.85L1517.79 282.85L1476.22 306.85L1434.65 282.85L1434.65 234.85zM1434.65 570.85L1476.22 594.85L1476.22 642.85L1434.65 666.85L1393.08 642.85L1393.08 594.85z" stroke="rgba(228, 232, 237, 0.93)" stroke-width="2"></path></g><defs><mask id="SvgjsMask1517"><rect width="1440" height="560" fill="#ffffff"></rect></mask></defs></svg>