<svg xmlns="http://www.w3.org/2000/svg" version="1.1" xmlns:xlink="http://www.w3.org/1999/xlink" xmlns:svgjs="http://svgjs.dev/svgjs" width="1440" height="560" preserveAspectRatio="none" viewBox="0 0 1440 560"><g mask="url(&quot;#SvgjsMask1015&quot;)" fill="none"><rect width="1440" height="560" x="0" y="0" fill="rgba(237, 242, 247, 1)"></rect><path d="M16.63 174.76L81.58 212.26L81.58 287.26L16.63 324.76L-48.32 287.26L-48.32 212.26zM211.49 62.26L276.44 99.76L276.44 174.76L211.49 212.26L146.54 174.76L146.54 99.76zM276.44 399.76L341.4 437.26L341.4 512.26L276.44 549.76L211.49 512.26L211.49 437.26zM341.4 512.26L406.35 549.76L406.35 624.76L341.4 662.26L276.44 624.76L276.44 549.76zM406.35 -50.24L471.31 -12.74L471.31 62.26L406.35 99.76L341.4 62.26L341.4 -12.74zM471.31 62.26L536.26 99.76L536.26 174.76L471.31 212.26L406.35 174.76L406.35 99.76zM406.35 174.76L471.31 212.26L471.31 287.26L406.35 324.76L341.4 287.26L341.4 212.26zM796.07 399.76L861.03 437.26L861.03 512.26L796.07 549.76L731.12 512.26L731.12 437.26zM1120.84 62.26L1185.8 99.76L1185.8 174.76L1120.84 212.26L1055.89 174.76L1055.89 99.76zM1055.89 399.76L1120.84 437.26L1120.84 512.26L1055.89 549.76L990.94 512.26L990.94 437.26zM1250.75 62.26L1315.7 99.76L1315.7 174.76L1250.75 212.26L1185.8 174.76L1185.8 99.76zM1250.75 512.26L1315.7 549.76L1315.7 624.76L1250.75 662.26L1185.8 624.76L1185.8 549.76zM1315.71 174.76L1380.66 212.26L1380.66 287.26L1315.71 324.76L1250.75 287.26L1250.75 212.26zM1380.66 287.26L1445.61 324.76L1445.61 399.76L1380.66 437.26L1315.71 399.76L1315.71 324.76zM1380.66 512.26L1445.61 549.76L1445.61 624.76L1380.66 662.26L1315.71 624.76L1315.71 549.76zM1445.61 -50.24L1510.57 -12.74L1510.57 62.26L1445.61 99.76L1380.66 62.26L1380.66 -12.74zM1510.57 287.26L1575.52 324.76L1575.52 399.76L1510.57 437.26L1445.61 399.76L1445.61 324.76zM1510.57 512.26L1575.52 549.76L1575.52 624.76L1510.57 662.26L1445.61 624.76L1445.61 549.76z" stroke="rgba(234, 238, 243, 1)" stroke-width="2"></path><path d="M9.13 174.76 a7.5 7.5 0 1 0 15 0 a7.5 7.5 0 1 0 -15 0zM74.08 212.26 a7.5 7.5 0 1 0 15 0 a7.5 7.5 0 1 0 -15 0zM74.08 287.26 a7.5 7.5 0 1 0 15 0 a7.5 7.5 0 1 0 -15 0zM9.13 324.76 a7.5 7.5 0 1 0 15 0 a7.5 7.5 0 1 0 -15 0zM-55.82 287.26 a7.5 7.5 0 1 0 15 0 a7.5 7.5 0 1 0 -15 0zM-55.82 212.26 a7.5 7.5 0 1 0 15 0 a7.5 7.5 0 1 0 -15 0zM203.99 62.26 a7.5 7.5 0 1 0 15 0 a7.5 7.5 0 1 0 -15 0zM268.94 99.76 a7.5 7.5 0 1 0 15 0 a7.5 7.5 0 1 0 -15 0zM268.94 174.76 a7.5 7.5 0 1 0 15 0 a7.5 7.5 0 1 0 -15 0zM203.99 212.26 a7.5 7.5 0 1 0 15 0 a7.5 7.5 0 1 0 -15 0zM139.04 174.76 a7.5 7.5 0 1 0 15 0 a7.5 7.5 0 1 0 -15 0zM139.04 99.76 a7.5 7.5 0 1 0 15 0 a7.5 7.5 0 1 0 -15 0zM268.94 399.76 a7.5 7.5 0 1 0 15 0 a7.5 7.5 0 1 0 -15 0zM333.9 437.26 a7.5 7.5 0 1 0 15 0 a7.5 7.5 0 1 0 -15 0zM333.9 512.26 a7.5 7.5 0 1 0 15 0 a7.5 7.5 0 1 0 -15 0zM268.94 549.76 a7.5 7.5 0 1 0 15 0 a7.5 7.5 0 1 0 -15 0zM203.99 512.26 a7.5 7.5 0 1 0 15 0 a7.5 7.5 0 1 0 -15 0zM203.99 437.26 a7.5 7.5 0 1 0 15 0 a7.5 7.5 0 1 0 -15 0zM398.85 549.76 a7.5 7.5 0 1 0 15 0 a7.5 7.5 0 1 0 -15 0zM398.85 624.76 a7.5 7.5 0 1 0 15 0 a7.5 7.5 0 1 0 -15 0zM333.9 662.26 a7.5 7.5 0 1 0 15 0 a7.5 7.5 0 1 0 -15 0zM268.94 624.76 a7.5 7.5 0 1 0 15 0 a7.5 7.5 0 1 0 -15 0zM398.85 -50.24 a7.5 7.5 0 1 0 15 0 a7.5 7.5 0 1 0 -15 0zM463.81 -12.74 a7.5 7.5 0 1 0 15 0 a7.5 7.5 0 1 0 -15 0zM463.81 62.26 a7.5 7.5 0 1 0 15 0 a7.5 7.5 0 1 0 -15 0zM398.85 99.76 a7.5 7.5 0 1 0 15 0 a7.5 7.5 0 1 0 -15 0zM333.9 62.26 a7.5 7.5 0 1 0 15 0 a7.5 7.5 0 1 0 -15 0zM333.9 -12.74 a7.5 7.5 0 1 0 15 0 a7.5 7.5 0 1 0 -15 0zM528.76 99.76 a7.5 7.5 0 1 0 15 0 a7.5 7.5 0 1 0 -15 0zM528.76 174.76 a7.5 7.5 0 1 0 15 0 a7.5 7.5 0 1 0 -15 0zM463.81 212.26 a7.5 7.5 0 1 0 15 0 a7.5 7.5 0 1 0 -15 0zM398.85 174.76 a7.5 7.5 0 1 0 15 0 a7.5 7.5 0 1 0 -15 0zM463.81 287.26 a7.5 7.5 0 1 0 15 0 a7.5 7.5 0 1 0 -15 0zM398.85 324.76 a7.5 7.5 0 1 0 15 0 a7.5 7.5 0 1 0 -15 0zM333.9 287.26 a7.5 7.5 0 1 0 15 0 a7.5 7.5 0 1 0 -15 0zM333.9 212.26 a7.5 7.5 0 1 0 15 0 a7.5 7.5 0 1 0 -15 0zM788.57 399.76 a7.5 7.5 0 1 0 15 0 a7.5 7.5 0 1 0 -15 0zM853.53 437.26 a7.5 7.5 0 1 0 15 0 a7.5 7.5 0 1 0 -15 0zM853.53 512.26 a7.5 7.5 0 1 0 15 0 a7.5 7.5 0 1 0 -15 0zM788.57 549.76 a7.5 7.5 0 1 0 15 0 a7.5 7.5 0 1 0 -15 0zM723.62 512.26 a7.5 7.5 0 1 0 15 0 a7.5 7.5 0 1 0 -15 0zM723.62 437.26 a7.5 7.5 0 1 0 15 0 a7.5 7.5 0 1 0 -15 0zM1113.34 62.26 a7.5 7.5 0 1 0 15 0 a7.5 7.5 0 1 0 -15 0zM1178.3 99.76 a7.5 7.5 0 1 0 15 0 a7.5 7.5 0 1 0 -15 0zM1178.3 174.76 a7.5 7.5 0 1 0 15 0 a7.5 7.5 0 1 0 -15 0zM1113.34 212.26 a7.5 7.5 0 1 0 15 0 a7.5 7.5 0 1 0 -15 0zM1048.39 174.76 a7.5 7.5 0 1 0 15 0 a7.5 7.5 0 1 0 -15 0zM1048.39 99.76 a7.5 7.5 0 1 0 15 0 a7.5 7.5 0 1 0 -15 0zM1048.39 399.76 a7.5 7.5 0 1 0 15 0 a7.5 7.5 0 1 0 -15 0zM1113.34 437.26 a7.5 7.5 0 1 0 15 0 a7.5 7.5 0 1 0 -15 0zM1113.34 512.26 a7.5 7.5 0 1 0 15 0 a7.5 7.5 0 1 0 -15 0zM1048.39 549.76 a7.5 7.5 0 1 0 15 0 a7.5 7.5 0 1 0 -15 0zM983.44 512.26 a7.5 7.5 0 1 0 15 0 a7.5 7.5 0 1 0 -15 0zM983.44 437.26 a7.5 7.5 0 1 0 15 0 a7.5 7.5 0 1 0 -15 0zM1243.25 62.26 a7.5 7.5 0 1 0 15 0 a7.5 7.5 0 1 0 -15 0zM1308.2 99.76 a7.5 7.5 0 1 0 15 0 a7.5 7.5 0 1 0 -15 0zM1308.2 174.76 a7.5 7.5 0 1 0 15 0 a7.5 7.5 0 1 0 -15 0zM1243.25 212.26 a7.5 7.5 0 1 0 15 0 a7.5 7.5 0 1 0 -15 0zM1243.25 512.26 a7.5 7.5 0 1 0 15 0 a7.5 7.5 0 1 0 -15 0zM1308.2 549.76 a7.5 7.5 0 1 0 15 0 a7.5 7.5 0 1 0 -15 0zM1308.2 624.76 a7.5 7.5 0 1 0 15 0 a7.5 7.5 0 1 0 -15 0zM1243.25 662.26 a7.5 7.5 0 1 0 15 0 a7.5 7.5 0 1 0 -15 0zM1178.3 624.76 a7.5 7.5 0 1 0 15 0 a7.5 7.5 0 1 0 -15 0zM1178.3 549.76 a7.5 7.5 0 1 0 15 0 a7.5 7.5 0 1 0 -15 0zM1308.21 174.76 a7.5 7.5 0 1 0 15 0 a7.5 7.5 0 1 0 -15 0zM1373.16 212.26 a7.5 7.5 0 1 0 15 0 a7.5 7.5 0 1 0 -15 0zM1373.16 287.26 a7.5 7.5 0 1 0 15 0 a7.5 7.5 0 1 0 -15 0zM1308.21 324.76 a7.5 7.5 0 1 0 15 0 a7.5 7.5 0 1 0 -15 0zM1243.25 287.26 a7.5 7.5 0 1 0 15 0 a7.5 7.5 0 1 0 -15 0zM1438.11 324.76 a7.5 7.5 0 1 0 15 0 a7.5 7.5 0 1 0 -15 0zM1438.11 399.76 a7.5 7.5 0 1 0 15 0 a7.5 7.5 0 1 0 -15 0zM1373.16 437.26 a7.5 7.5 0 1 0 15 0 a7.5 7.5 0 1 0 -15 0zM1308.21 399.76 a7.5 7.5 0 1 0 15 0 a7.5 7.5 0 1 0 -15 0zM1373.16 512.26 a7.5 7.5 0 1 0 15 0 a7.5 7.5 0 1 0 -15 0zM1438.11 549.76 a7.5 7.5 0 1 0 15 0 a7.5 7.5 0 1 0 -15 0zM1438.11 624.76 a7.5 7.5 0 1 0 15 0 a7.5 7.5 0 1 0 -15 0zM1373.16 662.26 a7.5 7.5 0 1 0 15 0 a7.5 7.5 0 1 0 -15 0zM1308.21 624.76 a7.5 7.5 0 1 0 15 0 a7.5 7.5 0 1 0 -15 0zM1308.21 549.76 a7.5 7.5 0 1 0 15 0 a7.5 7.5 0 1 0 -15 0zM1438.11 -50.24 a7.5 7.5 0 1 0 15 0 a7.5 7.5 0 1 0 -15 0zM1503.07 -12.74 a7.5 7.5 0 1 0 15 0 a7.5 7.5 0 1 0 -15 0zM1503.07 62.26 a7.5 7.5 0 1 0 15 0 a7.5 7.5 0 1 0 -15 0zM1438.11 99.76 a7.5 7.5 0 1 0 15 0 a7.5 7.5 0 1 0 -15 0zM1373.16 62.26 a7.5 7.5 0 1 0 15 0 a7.5 7.5 0 1 0 -15 0zM1373.16 -12.74 a7.5 7.5 0 1 0 15 0 a7.5 7.5 0 1 0 -15 0zM1503.07 287.26 a7.5 7.5 0 1 0 15 0 a7.5 7.5 0 1 0 -15 0zM1568.02 324.76 a7.5 7.5 0 1 0 15 0 a7.5 7.5 0 1 0 -15 0zM1568.02 399.76 a7.5 7.5 0 1 0 15 0 a7.5 7.5 0 1 0 -15 0zM1503.07 437.26 a7.5 7.5 0 1 0 15 0 a7.5 7.5 0 1 0 -15 0zM1503.07 512.26 a7.5 7.5 0 1 0 15 0 a7.5 7.5 0 1 0 -15 0zM1568.02 549.76 a7.5 7.5 0 1 0 15 0 a7.5 7.5 0 1 0 -15 0zM1568.02 624.76 a7.5 7.5 0 1 0 15 0 a7.5 7.5 0 1 0 -15 0zM1503.07 662.26 a7.5 7.5 0 1 0 15 0 a7.5 7.5 0 1 0 -15 0z" fill="rgba(234, 238, 243, 1)"></path><path d="M69.35 345.79L112.66 370.79L112.66 420.79L69.35 445.79L26.05 420.79L26.05 370.79zM26.05 420.79L69.35 445.79L69.35 495.79L26.05 520.79L-17.25 495.79L-17.25 445.79zM112.66 270.79L155.96 295.79L155.96 345.79L112.66 370.79L69.35 345.79L69.35 295.79zM242.56 45.79L285.87 70.79L285.87 120.79L242.56 145.79L199.26 120.79L199.26 70.79zM242.56 345.79L285.87 370.79L285.87 420.79L242.56 445.79L199.26 420.79L199.26 370.79zM199.26 420.79L242.56 445.79L242.56 495.79L199.26 520.79L155.96 495.79L155.96 445.79zM242.56 495.79L285.87 520.79L285.87 570.79L242.56 595.79L199.26 570.79L199.26 520.79zM329.17 45.79L372.47 70.79L372.47 120.79L329.17 145.79L285.87 120.79L285.87 70.79zM285.87 270.79L329.17 295.79L329.17 345.79L285.87 370.79L242.56 345.79L242.56 295.79zM415.77 45.79L459.08 70.79L459.08 120.79L415.77 145.79L372.47 120.79L372.47 70.79zM372.47 270.79L415.77 295.79L415.77 345.79L372.47 370.79L329.17 345.79L329.17 295.79zM459.08 120.79L502.38 145.79L502.38 195.79L459.08 220.79L415.77 195.79L415.77 145.79zM588.98 45.79L632.28 70.79L632.28 120.79L588.98 145.79L545.68 120.79L545.68 70.79zM588.98 195.79L632.28 220.79L632.28 270.79L588.98 295.79L545.68 270.79L545.68 220.79zM545.68 270.79L588.98 295.79L588.98 345.79L545.68 370.79L502.38 345.79L502.38 295.79zM545.68 420.79L588.98 445.79L588.98 495.79L545.68 520.79L502.38 495.79L502.38 445.79zM675.59 45.79L718.89 70.79L718.89 120.79L675.59 145.79L632.28 120.79L632.28 70.79zM632.28 420.79L675.59 445.79L675.59 495.79L632.28 520.79L588.98 495.79L588.98 445.79zM805.5 270.79L848.8 295.79L848.8 345.79L805.5 370.79L762.19 345.79L762.19 295.79zM892.1 -29.21L935.4 -4.21L935.4 45.79L892.1 70.79L848.8 45.79L848.8 -4.21zM892.1 120.79L935.4 145.79L935.4 195.79L892.1 220.79L848.8 195.79L848.8 145.79zM935.4 345.79L978.71 370.79L978.71 420.79L935.4 445.79L892.1 420.79L892.1 370.79zM1022.01 195.79L1065.31 220.79L1065.31 270.79L1022.01 295.79L978.71 270.79L978.71 220.79zM978.71 270.79L1022.01 295.79L1022.01 345.79L978.71 370.79L935.4 345.79L935.4 295.79zM1022.01 345.79L1065.31 370.79L1065.31 420.79L1022.01 445.79L978.71 420.79L978.71 370.79zM1022.01 495.79L1065.31 520.79L1065.31 570.79L1022.01 595.79L978.71 570.79L978.71 520.79zM1108.61 195.79L1151.91 220.79L1151.91 270.79L1108.61 295.79L1065.31 270.79L1065.31 220.79zM1195.22 45.79L1238.52 70.79L1238.52 120.79L1195.22 145.79L1151.91 120.79L1151.91 70.79zM1151.91 120.79L1195.22 145.79L1195.22 195.79L1151.91 220.79L1108.61 195.79L1108.61 145.79zM1195.22 345.79L1238.52 370.79L1238.52 420.79L1195.22 445.79L1151.91 420.79L1151.91 370.79zM1238.52 -29.21L1281.82 -4.21L1281.82 45.79L1238.52 70.79L1195.22 45.79L1195.22 -4.21zM1281.82 45.79L1325.13 70.79L1325.13 120.79L1281.82 145.79L1238.52 120.79L1238.52 70.79zM1238.52 420.79L1281.82 445.79L1281.82 495.79L1238.52 520.79L1195.22 495.79L1195.22 445.79zM1281.82 495.79L1325.13 520.79L1325.13 570.79L1281.82 595.79L1238.52 570.79L1238.52 520.79zM1325.13 120.79L1368.43 145.79L1368.43 195.79L1325.13 220.79L1281.82 195.79L1281.82 145.79zM1368.43 345.79L1411.73 370.79L1411.73 420.79L1368.43 445.79L1325.13 420.79L1325.13 370.79zM1325.13 420.79L1368.43 445.79L1368.43 495.79L1325.13 520.79L1281.82 495.79L1281.82 445.79z" stroke="rgba(233, 239, 245, 0.93)" stroke-width="2"></path></g><defs><mask id="SvgjsMask1015"><rect width="1440" height="560" fill="#ffffff"></rect></mask></defs></svg>