<svg xmlns="http://www.w3.org/2000/svg" version="1.1" xmlns:xlink="http://www.w3.org/1999/xlink" xmlns:svgjs="http://svgjs.dev/svgjs" width="1440" height="560" preserveAspectRatio="none" viewBox="0 0 1440 560"><g mask="url(&quot;#SvgjsMask1489&quot;)" fill="none"><rect width="1440" height="560" x="0" y="0" fill="rgba(237, 242, 247, 0.9098039215686274)"></rect><path d="M4.5 -45.54L98.9 8.96L98.9 117.96L4.5 172.46L-89.9 117.96L-89.9 8.96zM4.5 281.46L98.9 335.96L98.9 444.96L4.5 499.46L-89.9 444.96L-89.9 335.96zM193.3 -45.54L287.7 8.96L287.7 117.96L193.3 172.46L98.9 117.96L98.9 8.96zM287.7 444.96L382.1 499.46L382.1 608.46L287.7 662.96L193.3 608.46L193.3 499.46zM665.3 444.96L759.7 499.46L759.7 608.46L665.3 662.96L570.9 608.46L570.9 499.46zM759.7 -45.54L854.1 8.96L854.1 117.96L759.7 172.46L665.3 117.96L665.3 8.96zM759.7 281.46L854.1 335.96L854.1 444.96L759.7 499.46L665.3 444.96L665.3 335.96zM1137.29 -45.54L1231.69 8.96L1231.69 117.96L1137.29 172.46L1042.89 117.96L1042.89 8.96z" stroke="rgba(243, 244, 245, 1)" stroke-width="2"></path><path d="M-6.4 -45.54 a10.9 10.9 0 1 0 21.8 0 a10.9 10.9 0 1 0 -21.8 0zM88 8.96 a10.9 10.9 0 1 0 21.8 0 a10.9 10.9 0 1 0 -21.8 0zM88 117.96 a10.9 10.9 0 1 0 21.8 0 a10.9 10.9 0 1 0 -21.8 0zM-6.4 172.46 a10.9 10.9 0 1 0 21.8 0 a10.9 10.9 0 1 0 -21.8 0zM-100.8 117.96 a10.9 10.9 0 1 0 21.8 0 a10.9 10.9 0 1 0 -21.8 0zM-100.8 8.96 a10.9 10.9 0 1 0 21.8 0 a10.9 10.9 0 1 0 -21.8 0zM-6.4 281.46 a10.9 10.9 0 1 0 21.8 0 a10.9 10.9 0 1 0 -21.8 0zM88 335.96 a10.9 10.9 0 1 0 21.8 0 a10.9 10.9 0 1 0 -21.8 0zM88 444.96 a10.9 10.9 0 1 0 21.8 0 a10.9 10.9 0 1 0 -21.8 0zM-6.4 499.46 a10.9 10.9 0 1 0 21.8 0 a10.9 10.9 0 1 0 -21.8 0zM-100.8 444.96 a10.9 10.9 0 1 0 21.8 0 a10.9 10.9 0 1 0 -21.8 0zM-100.8 335.96 a10.9 10.9 0 1 0 21.8 0 a10.9 10.9 0 1 0 -21.8 0zM182.4 -45.54 a10.9 10.9 0 1 0 21.8 0 a10.9 10.9 0 1 0 -21.8 0zM276.8 8.96 a10.9 10.9 0 1 0 21.8 0 a10.9 10.9 0 1 0 -21.8 0zM276.8 117.96 a10.9 10.9 0 1 0 21.8 0 a10.9 10.9 0 1 0 -21.8 0zM182.4 172.46 a10.9 10.9 0 1 0 21.8 0 a10.9 10.9 0 1 0 -21.8 0zM276.8 444.96 a10.9 10.9 0 1 0 21.8 0 a10.9 10.9 0 1 0 -21.8 0zM371.2 499.46 a10.9 10.9 0 1 0 21.8 0 a10.9 10.9 0 1 0 -21.8 0zM371.2 608.46 a10.9 10.9 0 1 0 21.8 0 a10.9 10.9 0 1 0 -21.8 0zM276.8 662.96 a10.9 10.9 0 1 0 21.8 0 a10.9 10.9 0 1 0 -21.8 0zM182.4 608.46 a10.9 10.9 0 1 0 21.8 0 a10.9 10.9 0 1 0 -21.8 0zM182.4 499.46 a10.9 10.9 0 1 0 21.8 0 a10.9 10.9 0 1 0 -21.8 0zM654.4 444.96 a10.9 10.9 0 1 0 21.8 0 a10.9 10.9 0 1 0 -21.8 0zM748.8 499.46 a10.9 10.9 0 1 0 21.8 0 a10.9 10.9 0 1 0 -21.8 0zM748.8 608.46 a10.9 10.9 0 1 0 21.8 0 a10.9 10.9 0 1 0 -21.8 0zM654.4 662.96 a10.9 10.9 0 1 0 21.8 0 a10.9 10.9 0 1 0 -21.8 0zM560 608.46 a10.9 10.9 0 1 0 21.8 0 a10.9 10.9 0 1 0 -21.8 0zM560 499.46 a10.9 10.9 0 1 0 21.8 0 a10.9 10.9 0 1 0 -21.8 0zM748.8 -45.54 a10.9 10.9 0 1 0 21.8 0 a10.9 10.9 0 1 0 -21.8 0zM843.2 8.96 a10.9 10.9 0 1 0 21.8 0 a10.9 10.9 0 1 0 -21.8 0zM843.2 117.96 a10.9 10.9 0 1 0 21.8 0 a10.9 10.9 0 1 0 -21.8 0zM748.8 172.46 a10.9 10.9 0 1 0 21.8 0 a10.9 10.9 0 1 0 -21.8 0zM654.4 117.96 a10.9 10.9 0 1 0 21.8 0 a10.9 10.9 0 1 0 -21.8 0zM654.4 8.96 a10.9 10.9 0 1 0 21.8 0 a10.9 10.9 0 1 0 -21.8 0zM748.8 281.46 a10.9 10.9 0 1 0 21.8 0 a10.9 10.9 0 1 0 -21.8 0zM843.2 335.96 a10.9 10.9 0 1 0 21.8 0 a10.9 10.9 0 1 0 -21.8 0zM843.2 444.96 a10.9 10.9 0 1 0 21.8 0 a10.9 10.9 0 1 0 -21.8 0zM654.4 335.96 a10.9 10.9 0 1 0 21.8 0 a10.9 10.9 0 1 0 -21.8 0zM1126.39 -45.54 a10.9 10.9 0 1 0 21.8 0 a10.9 10.9 0 1 0 -21.8 0zM1220.79 8.96 a10.9 10.9 0 1 0 21.8 0 a10.9 10.9 0 1 0 -21.8 0zM1220.79 117.96 a10.9 10.9 0 1 0 21.8 0 a10.9 10.9 0 1 0 -21.8 0zM1126.39 172.46 a10.9 10.9 0 1 0 21.8 0 a10.9 10.9 0 1 0 -21.8 0zM1031.99 117.96 a10.9 10.9 0 1 0 21.8 0 a10.9 10.9 0 1 0 -21.8 0zM1031.99 8.96 a10.9 10.9 0 1 0 21.8 0 a10.9 10.9 0 1 0 -21.8 0z" fill="rgba(243, 244, 245, 1)"></path><path d="M43.81 -83.01L165.06 -13.01L165.06 126.99L43.81 196.99L-77.44 126.99L-77.44 -13.01zM43.81 336.99L165.06 406.99L165.06 546.99L43.81 616.99L-77.44 546.99L-77.44 406.99zM286.3 -83.01L407.55 -13.01L407.55 126.99L286.3 196.99L165.06 126.99L165.06 -13.01zM407.55 126.99L528.8 196.99L528.8 336.99L407.55 406.99L286.3 336.99L286.3 196.99zM407.55 546.99L528.8 616.99L528.8 756.99L407.55 826.99L286.3 756.99L286.3 616.99zM528.8 -83.01L650.05 -13.01L650.05 126.99L528.8 196.99L407.55 126.99L407.55 -13.01zM650.05 126.99L771.29 196.99L771.29 336.99L650.05 406.99L528.8 336.99L528.8 196.99zM528.8 336.99L650.05 406.99L650.05 546.99L528.8 616.99L407.55 546.99L407.55 406.99zM771.29 -83.01L892.54 -13.01L892.54 126.99L771.29 196.99L650.05 126.99L650.05 -13.01zM892.54 126.99L1013.79 196.99L1013.79 336.99L892.54 406.99L771.29 336.99L771.29 196.99zM771.29 336.99L892.54 406.99L892.54 546.99L771.29 616.99L650.05 546.99L650.05 406.99zM892.54 546.99L1013.79 616.99L1013.79 756.99L892.54 826.99L771.29 756.99L771.29 616.99zM1135.03 546.99L1256.28 616.99L1256.28 756.99L1135.03 826.99L1013.79 756.99L1013.79 616.99zM1377.53 126.99L1498.77 196.99L1498.77 336.99L1377.53 406.99L1256.28 336.99L1256.28 196.99z" stroke="rgba(237, 239, 240, 1)" stroke-width="2"></path></g><defs><mask id="SvgjsMask1489"><rect width="1440" height="560" fill="#ffffff"></rect></mask></defs></svg>