<?xml version="1.0" encoding="UTF-8" standalone="no" ?>
<!DOCTYPE svg PUBLIC "-//W3C//DTD SVG 1.1//EN" "http://www.w3.org/Graphics/SVG/1.1/DTD/svg11.dtd">
<svg xmlns="http://www.w3.org/2000/svg" xmlns:xlink="http://www.w3.org/1999/xlink" version="1.1" width="1080" height="1080" viewBox="0 0 1080 1080" xml:space="preserve">
<desc>Created with Fabric.js 5.2.4</desc>
<defs>
</defs>
<g transform="matrix(1 0 0 1 540 540)" id="a347f395-1e7f-4359-8422-47826ba569a0"  >
<rect style="stroke: none; stroke-width: 1; stroke-dasharray: none; stroke-linecap: butt; stroke-dashoffset: 0; stroke-linejoin: miter; stroke-miterlimit: 4; fill: rgb(255,255,255); fill-rule: nonzero; opacity: 1; visibility: hidden;" vector-effect="non-scaling-stroke"  x="-540" y="-540" rx="0" ry="0" width="1080" height="1080" />
</g>
<g transform="matrix(1 0 0 1 540 540)" id="db9c6f3f-b709-4ab5-b335-7fd8e98a64a8"  >
</g>
<g transform="matrix(1 0 0 1 540 540)"  >
<g style="" vector-effect="non-scaling-stroke"   >
		<g transform="matrix(1 0 0 1 -90.2 -16.92)"  >
<rect style="stroke: none; stroke-width: 1; stroke-dasharray: none; stroke-linecap: butt; stroke-dashoffset: 0; stroke-linejoin: miter; stroke-miterlimit: 4; fill: rgb(237,242,247); fill-opacity: 0.93; fill-rule: nonzero; opacity: 1;" vector-effect="non-scaling-stroke"  x="-720" y="-280" rx="0" ry="0" width="1440" height="560" />
</g>
		<g transform="matrix(1 0 0 1 0 0)"  >
<path style="stroke: rgb(228,232,237); stroke-width: 2; stroke-dasharray: none; stroke-linecap: butt; stroke-dashoffset: 0; stroke-linejoin: miter; stroke-miterlimit: 4; fill: rgb(237,242,247); fill-opacity: 0.93; fill-rule: nonzero; opacity: 1;" vector-effect="non-scaling-stroke"  transform=" translate(-810.2, -296.92)" d="M 63.23 -59.33 L 128.18 -21.83 L 128.18 53.17 L 63.23 90.67 L -1.72 53.17 L -1.72 -21.83 z M 128.18 53.17 L 193.14 90.67 L 193.14 165.67 L 128.18 203.17 L 63.23 165.67 L 63.23 90.67 z M 63.23 165.67 L 128.18 203.17 L 128.18 278.17 L 63.23 315.67 L -1.72 278.17 L -1.72 203.17 z M 63.23 390.67 L 128.18 428.17 L 128.18 503.17 L 63.23 540.67 L -1.72 503.17 L -1.72 428.17 z M 258.09 53.17 L 323.05 90.67 L 323.05 165.67 L 258.09 203.17 L 193.14 165.67 L 193.14 90.67 z M 452.95 165.67 L 517.91 203.17 L 517.91 278.17 L 452.95 315.67 L 388 278.17 L 388 203.17 z M 452.95 390.67 L 517.91 428.17 L 517.91 503.17 L 452.95 540.67 L 388 503.17 L 388 428.17 z M 712.77 -59.33 L 777.72 -21.83 L 777.72 53.17 L 712.77 90.67 L 647.81 53.17 L 647.81 -21.83 z M 712.77 165.67 L 777.72 203.17 L 777.72 278.17 L 712.77 315.67 L 647.81 278.17 L 647.81 203.17 z M 777.72 503.17 L 842.68 540.67 L 842.68 615.67 L 777.72 653.17 L 712.77 615.67 L 712.77 540.67 z M 842.67 165.67 L 907.63 203.17 L 907.63 278.17 L 842.67 315.67 L 777.72 278.17 L 777.72 203.17 z M 907.63 278.17 L 972.58 315.67 L 972.58 390.67 L 907.63 428.17 L 842.67 390.67 L 842.67 315.67 z M 1037.54 53.17 L 1102.49 90.67 L 1102.49 165.67 L 1037.54 203.17 L 972.58 165.67 L 972.58 90.67 z M 1037.54 278.17 L 1102.49 315.67 L 1102.49 390.67 L 1037.54 428.17 L 972.58 390.67 L 972.58 315.67 z M 1167.44 53.17 L 1232.4 90.67 L 1232.4 165.67 L 1167.44 203.17 L 1102.49 165.67 L 1102.49 90.67 z M 1427.26 53.17 L 1492.21 90.67 L 1492.21 165.67 L 1427.26 203.17 L 1362.31 165.67 L 1362.31 90.67 z M 1362.31 390.67 L 1427.26 428.17 L 1427.26 503.17 L 1362.31 540.67 L 1297.35 503.17 L 1297.35 428.17 z M 1557.17 53.17 L 1622.12 90.67 L 1622.12 165.67 L 1557.17 203.17 L 1492.21 165.67 L 1492.21 90.67 z M 1492.21 390.67 L 1557.17 428.17 L 1557.17 503.17 L 1492.21 540.67 L 1427.26 503.17 L 1427.26 428.17 z" stroke-linecap="round" />
</g>
		<g transform="matrix(1 0 0 1 0 0)"  >
<path style="stroke: none; stroke-width: 1; stroke-dasharray: none; stroke-linecap: butt; stroke-dashoffset: 0; stroke-linejoin: miter; stroke-miterlimit: 4; fill: rgb(237,242,247); fill-opacity: 0.93; fill-rule: nonzero; opacity: 1;" vector-effect="non-scaling-stroke"  transform=" translate(-810.2, -296.92)" d="M 55.73 -59.33 C 55.72999992131523 -56.65050802323226 57.15949182841839 -54.174555299180206 59.479999936421706 -52.834809288082 C 61.80050804442502 -51.4950632769838 64.65949195557496 -51.4950632769838 66.98000006357827 -52.834809288082 C 69.3005081715816 -54.174555299180206 70.73000007868475 -56.65050802323226 70.72999999999999 -59.33 C 70.72999999999999 -63.47213562373095 67.37213562373094 -66.83 63.22999999999999 -66.83 C 59.08786437626904 -66.83 55.72999999999999 -63.47213562373095 55.72999999999999 -59.33 z M 120.68 -21.83 C 120.68 -17.687864376269047 124.03786437626906 -14.329999999999998 128.18 -14.329999999999998 C 132.32213562373096 -14.329999999999998 135.68 -17.687864376269047 135.68 -21.83 C 135.68 -25.97213562373095 132.32213562373096 -29.33 128.18 -29.33 C 124.03786437626906 -29.33 120.68 -25.97213562373095 120.68 -21.83 z M 120.68 53.17 C 120.68 57.31213562373095 124.03786437626906 60.67 128.18 60.67 C 132.32213562373096 60.67 135.68 57.31213562373095 135.68 53.17 C 135.68 49.02786437626905 132.32213562373096 45.67 128.18 45.67 C 124.03786437626906 45.67 120.68 49.02786437626905 120.68 53.17 z M 55.73 90.67 C 55.72999992131523 93.34949197676774 57.15949182841839 95.8254447008198 59.479999936421706 97.165190711918 C 61.80050804442502 98.5049367230162 64.65949195557496 98.5049367230162 66.98000006357827 97.165190711918 C 69.3005081715816 95.8254447008198 70.73000007868475 93.34949197676774 70.72999999999999 90.67 C 70.72999999999999 86.52786437626905 67.37213562373094 83.17 63.22999999999999 83.17 C 59.08786437626904 83.17 55.72999999999999 86.52786437626905 55.72999999999999 90.67 z M -9.22 53.17 C -9.22 57.31213562373095 -5.862135623730952 60.67 -1.7200000000000006 60.67 C 2.4221356237309504 60.67 5.779999999999999 57.31213562373095 5.779999999999999 53.17 C 5.779999999999999 49.02786437626905 2.4221356237309504 45.67 -1.7200000000000006 45.67 C -5.862135623730952 45.67 -9.22 49.02786437626905 -9.22 53.17 z M -9.22 -21.83 C -9.22 -17.687864376269047 -5.862135623730952 -14.329999999999998 -1.7200000000000006 -14.329999999999998 C 2.4221356237309504 -14.329999999999998 5.779999999999999 -17.687864376269047 5.779999999999999 -21.83 C 5.779999999999999 -25.97213562373095 2.4221356237309504 -29.33 -1.7200000000000006 -29.33 C -5.862135623730952 -29.33 -9.22 -25.97213562373095 -9.22 -21.83 z M 185.64 90.67 C 185.64 94.81213562373095 188.99786437626904 98.17 193.14 98.17 C 197.28213562373094 98.17 200.64 94.81213562373095 200.64 90.67 C 200.64 86.52786437626905 197.28213562373094 83.17 193.14 83.17 C 188.99786437626904 83.17 185.64 86.52786437626905 185.64 90.67 z M 185.64 165.67 C 185.64 169.81213562373094 188.99786437626904 173.17 193.14 173.17 C 197.28213562373094 173.17 200.64 169.81213562373094 200.64 165.67 C 200.64 161.52786437626904 197.28213562373094 158.17 193.14 158.17 C 188.99786437626904 158.17 185.64 161.52786437626904 185.64 165.67 z M 120.68 203.17 C 120.68 207.31213562373094 124.03786437626906 210.67 128.18 210.67 C 132.32213562373096 210.67 135.68 207.31213562373094 135.68 203.17 C 135.68 199.02786437626904 132.32213562373096 195.67 128.18 195.67 C 124.03786437626906 195.67 120.68 199.02786437626904 120.68 203.17 z M 55.73 165.67 C 55.72999992131523 168.34949197676772 57.15949182841839 170.8254447008198 59.479999936421706 172.16519071191797 C 61.80050804442502 173.5049367230162 64.65949195557496 173.5049367230162 66.98000006357827 172.16519071191797 C 69.3005081715816 170.8254447008198 70.73000007868475 168.34949197676772 70.72999999999999 165.67 C 70.72999999999999 161.52786437626904 67.37213562373094 158.17 63.22999999999999 158.17 C 59.08786437626904 158.17 55.72999999999999 161.52786437626904 55.72999999999999 165.67 z M 120.68 278.17 C 120.68 282.31213562373097 124.03786437626906 285.67 128.18 285.67 C 132.32213562373096 285.67 135.68 282.31213562373097 135.68 278.17 C 135.68 274.02786437626906 132.32213562373096 270.67 128.18 270.67 C 124.03786437626906 270.67 120.68 274.02786437626906 120.68 278.17 z M 55.73 315.67 C 55.72999992131523 318.34949197676775 57.15949182841839 320.8254447008198 59.479999936421706 322.165190711918 C 61.80050804442502 323.5049367230162 64.65949195557496 323.5049367230162 66.98000006357827 322.165190711918 C 69.3005081715816 320.8254447008198 70.73000007868475 318.34949197676775 70.72999999999999 315.67 C 70.72999999999999 311.52786437626906 67.37213562373094 308.17 63.22999999999999 308.17 C 59.08786437626904 308.17 55.72999999999999 311.52786437626906 55.72999999999999 315.67 z M -9.22 278.17 C -9.22 282.31213562373097 -5.862135623730952 285.67 -1.7200000000000006 285.67 C 2.4221356237309504 285.67 5.779999999999999 282.31213562373097 5.779999999999999 278.17 C 5.779999999999999 274.02786437626906 2.4221356237309504 270.67 -1.7200000000000006 270.67 C -5.862135623730952 270.67 -9.22 274.02786437626906 -9.22 278.17 z M -9.22 203.17 C -9.22 207.31213562373094 -5.862135623730952 210.67 -1.7200000000000006 210.67 C 2.4221356237309504 210.67 5.779999999999999 207.31213562373094 5.779999999999999 203.17 C 5.779999999999999 199.02786437626904 2.4221356237309504 195.67 -1.7200000000000006 195.67 C -5.862135623730952 195.67 -9.22 199.02786437626904 -9.22 203.17 z M 55.73 390.67 C 55.72999992131523 393.34949197676775 57.15949182841839 395.8254447008198 59.479999936421706 397.165190711918 C 61.80050804442502 398.5049367230162 64.65949195557496 398.5049367230162 66.98000006357827 397.165190711918 C 69.3005081715816 395.8254447008198 70.73000007868475 393.34949197676775 70.72999999999999 390.67 C 70.72999999999999 386.52786437626906 67.37213562373094 383.17 63.22999999999999 383.17 C 59.08786437626904 383.17 55.72999999999999 386.52786437626906 55.72999999999999 390.67 z M 120.68 428.17 C 120.68 432.31213562373097 124.03786437626906 435.67 128.18 435.67 C 132.32213562373096 435.67 135.68 432.31213562373097 135.68 428.17 C 135.68 424.02786437626906 132.32213562373096 420.67 128.18 420.67 C 124.03786437626906 420.67 120.68 424.02786437626906 120.68 428.17 z M 120.68 503.17 C 120.68 507.31213562373097 124.03786437626906 510.67 128.18 510.67 C 132.32213562373096 510.67 135.68 507.31213562373097 135.68 503.17 C 135.68 499.02786437626906 132.32213562373096 495.67 128.18 495.67 C 124.03786437626906 495.67 120.68 499.02786437626906 120.68 503.17 z M 55.73 540.67 C 55.72999992131523 543.3494919767677 57.15949182841839 545.8254447008197 59.479999936421706 547.165190711918 C 61.80050804442502 548.5049367230162 64.65949195557496 548.5049367230162 66.98000006357827 547.165190711918 C 69.3005081715816 545.8254447008197 70.73000007868475 543.3494919767677 70.72999999999999 540.67 C 70.72999999999999 536.527864376269 67.37213562373094 533.17 63.22999999999999 533.17 C 59.08786437626904 533.17 55.72999999999999 536.527864376269 55.72999999999999 540.67 z M -9.22 503.17 C -9.22 507.31213562373097 -5.862135623730952 510.67 -1.7200000000000006 510.67 C 2.4221356237309504 510.67 5.779999999999999 507.31213562373097 5.779999999999999 503.17 C 5.779999999999999 499.02786437626906 2.4221356237309504 495.67 -1.7200000000000006 495.67 C -5.862135623730952 495.67 -9.22 499.02786437626906 -9.22 503.17 z M -9.22 428.17 C -9.22 432.31213562373097 -5.862135623730952 435.67 -1.7200000000000006 435.67 C 2.4221356237309504 435.67 5.779999999999999 432.31213562373097 5.779999999999999 428.17 C 5.779999999999999 424.02786437626906 2.4221356237309504 420.67 -1.7200000000000006 420.67 C -5.862135623730952 420.67 -9.22 424.02786437626906 -9.22 428.17 z M 250.59 53.17 C 250.59 57.31213562373096 253.94786437626905 60.670000000000016 258.09000000000003 60.670000000000016 C 262.232135623731 60.670000000000016 265.59000000000003 57.31213562373096 265.59000000000003 53.17 C 265.59000000000003 49.02786437626905 262.232135623731 45.67 258.09000000000003 45.67 C 253.94786437626908 45.67 250.59000000000003 49.02786437626905 250.59000000000003 53.17 z M 315.55 90.67 C 315.55 94.81213562373095 318.90786437626906 98.17 323.05 98.17 C 327.19213562373096 98.17 330.55 94.81213562373095 330.55 90.67 C 330.55 86.52786437626905 327.19213562373096 83.17 323.05 83.17 C 318.90786437626906 83.17 315.55 86.52786437626905 315.55 90.67 z M 315.55 165.67 C 315.55 169.81213562373094 318.90786437626906 173.17 323.05 173.17 C 327.19213562373096 173.17 330.55 169.81213562373094 330.55 165.67 C 330.55 161.52786437626904 327.19213562373096 158.17 323.05 158.17 C 318.90786437626906 158.17 315.55 161.52786437626904 315.55 165.67 z M 250.59 203.17 C 250.59 207.31213562373094 253.94786437626905 210.67 258.09000000000003 210.67 C 262.232135623731 210.67 265.59000000000003 207.31213562373094 265.59000000000003 203.17 C 265.59000000000003 199.02786437626904 262.232135623731 195.67 258.09000000000003 195.67 C 253.94786437626908 195.67 250.59000000000003 199.02786437626904 250.59000000000003 203.17 z M 445.45 165.67 C 445.45 169.81213562373094 448.80786437626904 173.17 452.95 173.17 C 457.09213562373094 173.17 460.45 169.81213562373094 460.45 165.67 C 460.45 161.52786437626904 457.09213562373094 158.17 452.95 158.17 C 448.80786437626904 158.17 445.45 161.52786437626904 445.45 165.67 z M 510.41 203.17 C 510.41 207.31213562373097 513.7678643762691 210.67000000000002 517.9100000000001 210.67000000000002 C 522.052135623731 210.67000000000002 525.4100000000001 207.31213562373097 525.4100000000001 203.17 C 525.4100000000001 199.02786437626904 522.052135623731 195.67 517.9100000000001 195.67 C 513.7678643762691 195.67 510.4100000000001 199.02786437626904 510.4100000000001 203.17 z M 510.41 278.17 C 510.41 282.31213562373097 513.7678643762691 285.6700000000001 517.9100000000001 285.6700000000001 C 522.052135623731 285.6700000000001 525.4100000000001 282.31213562373097 525.4100000000001 278.17 C 525.4100000000001 274.02786437626906 522.052135623731 270.67 517.9100000000001 270.67 C 513.7678643762691 270.67 510.4100000000001 274.02786437626906 510.4100000000001 278.17 z M 445.45 315.67 C 445.45 319.81213562373097 448.80786437626904 323.17 452.95 323.17 C 457.09213562373094 323.17 460.45 319.81213562373097 460.45 315.67 C 460.45 311.52786437626906 457.09213562373094 308.17 452.95 308.17 C 448.80786437626904 308.17 445.45 311.52786437626906 445.45 315.67 z M 380.5 278.17 C 380.5 282.31213562373097 383.85786437626905 285.67 388 285.67 C 392.14213562373095 285.67 395.5 282.31213562373097 395.5 278.17 C 395.5 274.02786437626906 392.14213562373095 270.67 388 270.67 C 383.85786437626905 270.67 380.5 274.02786437626906 380.5 278.17 z M 380.5 203.17 C 380.5 207.31213562373094 383.85786437626905 210.67 388 210.67 C 392.14213562373095 210.67 395.5 207.31213562373094 395.5 203.17 C 395.5 199.02786437626904 392.14213562373095 195.67 388 195.67 C 383.85786437626905 195.67 380.5 199.02786437626904 380.5 203.17 z M 445.45 390.67 C 445.45 394.81213562373097 448.80786437626904 398.17 452.95 398.17 C 457.09213562373094 398.17 460.45 394.81213562373097 460.45 390.67 C 460.45 386.52786437626906 457.09213562373094 383.17 452.95 383.17 C 448.80786437626904 383.17 445.45 386.52786437626906 445.45 390.67 z M 510.41 428.17 C 510.41 432.31213562373097 513.7678643762691 435.6700000000001 517.9100000000001 435.6700000000001 C 522.052135623731 435.6700000000001 525.4100000000001 432.31213562373097 525.4100000000001 428.17 C 525.4100000000001 424.02786437626906 522.052135623731 420.67 517.9100000000001 420.67 C 513.7678643762691 420.67 510.4100000000001 424.02786437626906 510.4100000000001 428.17 z M 510.41 503.17 C 510.41 507.31213562373097 513.7678643762691 510.6700000000001 517.9100000000001 510.6700000000001 C 522.052135623731 510.6700000000001 525.4100000000001 507.31213562373097 525.4100000000001 503.17 C 525.4100000000001 499.02786437626906 522.052135623731 495.67 517.9100000000001 495.67 C 513.7678643762691 495.67 510.4100000000001 499.02786437626906 510.4100000000001 503.17 z M 445.45 540.67 C 445.45 544.8121356237309 448.80786437626904 548.17 452.95 548.17 C 457.09213562373094 548.17 460.45 544.8121356237309 460.45 540.67 C 460.45 536.527864376269 457.09213562373094 533.17 452.95 533.17 C 448.80786437626904 533.17 445.45 536.527864376269 445.45 540.67 z M 380.5 503.17 C 380.5 507.31213562373097 383.85786437626905 510.67 388 510.67 C 392.14213562373095 510.67 395.5 507.31213562373097 395.5 503.17 C 395.5 499.02786437626906 392.14213562373095 495.67 388 495.67 C 383.85786437626905 495.67 380.5 499.02786437626906 380.5 503.17 z M 380.5 428.17 C 380.5 432.31213562373097 383.85786437626905 435.67 388 435.67 C 392.14213562373095 435.67 395.5 432.31213562373097 395.5 428.17 C 395.5 424.02786437626906 392.14213562373095 420.67 388 420.67 C 383.85786437626905 420.67 380.5 424.02786437626906 380.5 428.17 z M 705.27 -59.33 C 705.27 -55.18786437626905 708.627864376269 -51.83 712.77 -51.83 C 716.9121356237309 -51.83 720.27 -55.18786437626905 720.27 -59.33 C 720.27 -63.47213562373095 716.9121356237309 -66.83 712.77 -66.83 C 708.627864376269 -66.83 705.27 -63.47213562373095 705.27 -59.33 z M 770.22 -21.83 C 770.22 -17.687864376269047 773.5778643762691 -14.329999999999998 777.72 -14.329999999999998 C 781.862135623731 -14.329999999999998 785.22 -17.687864376269047 785.22 -21.83 C 785.22 -25.97213562373095 781.862135623731 -29.33 777.72 -29.33 C 773.5778643762691 -29.33 770.22 -25.97213562373095 770.22 -21.83 z M 770.22 53.17 C 770.22 57.31213562373095 773.5778643762691 60.67 777.72 60.67 C 781.862135623731 60.67 785.22 57.31213562373095 785.22 53.17 C 785.22 49.02786437626905 781.862135623731 45.67 777.72 45.67 C 773.5778643762691 45.67 770.22 49.02786437626905 770.22 53.17 z M 705.27 90.67 C 705.27 94.81213562373095 708.627864376269 98.17 712.77 98.17 C 716.9121356237309 98.17 720.27 94.81213562373095 720.27 90.67 C 720.27 86.52786437626905 716.9121356237309 83.17 712.77 83.17 C 708.627864376269 83.17 705.27 86.52786437626905 705.27 90.67 z M 640.31 53.17 C 640.31 57.31213562373095 643.667864376269 60.67 647.81 60.67 C 651.9521356237309 60.67 655.31 57.31213562373095 655.31 53.17 C 655.31 49.02786437626905 651.9521356237309 45.67 647.81 45.67 C 643.667864376269 45.67 640.31 49.02786437626905 640.31 53.17 z M 640.31 -21.83 C 640.31 -17.687864376269047 643.667864376269 -14.329999999999998 647.81 -14.329999999999998 C 651.9521356237309 -14.329999999999998 655.31 -17.687864376269047 655.31 -21.83 C 655.31 -25.97213562373095 651.9521356237309 -29.33 647.81 -29.33 C 643.667864376269 -29.33 640.31 -25.97213562373095 640.31 -21.83 z M 705.27 165.67 C 705.27 169.81213562373094 708.627864376269 173.17 712.77 173.17 C 716.9121356237309 173.17 720.27 169.81213562373094 720.27 165.67 C 720.27 161.52786437626904 716.9121356237309 158.17 712.77 158.17 C 708.627864376269 158.17 705.27 161.52786437626904 705.27 165.67 z M 770.22 203.17 C 770.22 207.31213562373094 773.5778643762691 210.67 777.72 210.67 C 781.862135623731 210.67 785.22 207.31213562373094 785.22 203.17 C 785.22 199.02786437626904 781.862135623731 195.67 777.72 195.67 C 773.5778643762691 195.67 770.22 199.02786437626904 770.22 203.17 z M 770.22 278.17 C 770.22 282.31213562373097 773.5778643762691 285.67 777.72 285.67 C 781.862135623731 285.67 785.22 282.31213562373097 785.22 278.17 C 785.22 274.02786437626906 781.862135623731 270.67 777.72 270.67 C 773.5778643762691 270.67 770.22 274.02786437626906 770.22 278.17 z M 705.27 315.67 C 705.27 319.81213562373097 708.627864376269 323.17 712.77 323.17 C 716.9121356237309 323.17 720.27 319.81213562373097 720.27 315.67 C 720.27 311.52786437626906 716.9121356237309 308.17 712.77 308.17 C 708.627864376269 308.17 705.27 311.52786437626906 705.27 315.67 z M 640.31 278.17 C 640.31 282.31213562373097 643.667864376269 285.67 647.81 285.67 C 651.9521356237309 285.67 655.31 282.31213562373097 655.31 278.17 C 655.31 274.02786437626906 651.9521356237309 270.67 647.81 270.67 C 643.667864376269 270.67 640.31 274.02786437626906 640.31 278.17 z M 640.31 203.17 C 640.31 207.31213562373094 643.667864376269 210.67 647.81 210.67 C 651.9521356237309 210.67 655.31 207.31213562373094 655.31 203.17 C 655.31 199.02786437626904 651.9521356237309 195.67 647.81 195.67 C 643.667864376269 195.67 640.31 199.02786437626904 640.31 203.17 z M 770.22 503.17 C 770.22 507.31213562373097 773.5778643762691 510.67 777.72 510.67 C 781.862135623731 510.67 785.22 507.31213562373097 785.22 503.17 C 785.22 499.02786437626906 781.862135623731 495.67 777.72 495.67 C 773.5778643762691 495.67 770.22 499.02786437626906 770.22 503.17 z M 835.18 540.67 C 835.18 544.8121356237309 838.537864376269 548.17 842.68 548.17 C 846.8221356237309 548.17 850.18 544.8121356237309 850.18 540.67 C 850.18 536.527864376269 846.8221356237309 533.17 842.68 533.17 C 838.537864376269 533.17 835.18 536.527864376269 835.18 540.67 z M 835.18 615.67 C 835.18 619.8121356237309 838.537864376269 623.17 842.68 623.17 C 846.8221356237309 623.17 850.18 619.8121356237309 850.18 615.67 C 850.18 611.527864376269 846.8221356237309 608.17 842.68 608.17 C 838.537864376269 608.17 835.18 611.527864376269 835.18 615.67 z M 770.22 653.17 C 770.22 657.3121356237309 773.5778643762691 660.67 777.72 660.67 C 781.862135623731 660.67 785.22 657.3121356237309 785.22 653.17 C 785.22 649.027864376269 781.862135623731 645.67 777.72 645.67 C 773.5778643762691 645.67 770.22 649.027864376269 770.22 653.17 z M 705.27 615.67 C 705.27 619.8121356237309 708.627864376269 623.17 712.77 623.17 C 716.9121356237309 623.17 720.27 619.8121356237309 720.27 615.67 C 720.27 611.527864376269 716.9121356237309 608.17 712.77 608.17 C 708.627864376269 608.17 705.27 611.527864376269 705.27 615.67 z M 705.27 540.67 C 705.27 544.8121356237309 708.627864376269 548.17 712.77 548.17 C 716.9121356237309 548.17 720.27 544.8121356237309 720.27 540.67 C 720.27 536.527864376269 716.9121356237309 533.17 712.77 533.17 C 708.627864376269 533.17 705.27 536.527864376269 705.27 540.67 z M 835.17 165.67 C 835.17 169.81213562373094 838.527864376269 173.17 842.67 173.17 C 846.8121356237309 173.17 850.17 169.81213562373094 850.17 165.67 C 850.17 161.52786437626904 846.8121356237309 158.17 842.67 158.17 C 838.527864376269 158.17 835.17 161.52786437626904 835.17 165.67 z M 900.13 203.17 C 900.13 207.31213562373094 903.487864376269 210.67 907.63 210.67 C 911.772135623731 210.67 915.13 207.31213562373094 915.13 203.17 C 915.13 199.02786437626904 911.772135623731 195.67 907.63 195.67 C 903.487864376269 195.67 900.13 199.02786437626904 900.13 203.17 z M 900.13 278.17 C 900.13 282.31213562373097 903.487864376269 285.67 907.63 285.67 C 911.772135623731 285.67 915.13 282.31213562373097 915.13 278.17 C 915.13 274.02786437626906 911.772135623731 270.67 907.63 270.67 C 903.487864376269 270.67 900.13 274.02786437626906 900.13 278.17 z M 835.17 315.67 C 835.17 319.81213562373097 838.527864376269 323.17 842.67 323.17 C 846.8121356237309 323.17 850.17 319.81213562373097 850.17 315.67 C 850.17 311.52786437626906 846.8121356237309 308.17 842.67 308.17 C 838.527864376269 308.17 835.17 311.52786437626906 835.17 315.67 z M 965.08 315.67 C 965.08 319.81213562373097 968.4378643762691 323.17 972.58 323.17 C 976.722135623731 323.17 980.08 319.81213562373097 980.08 315.67 C 980.08 311.52786437626906 976.722135623731 308.17 972.58 308.17 C 968.4378643762691 308.17 965.08 311.52786437626906 965.08 315.67 z M 965.08 390.67 C 965.08 394.81213562373097 968.4378643762691 398.17 972.58 398.17 C 976.722135623731 398.17 980.08 394.81213562373097 980.08 390.67 C 980.08 386.52786437626906 976.722135623731 383.17 972.58 383.17 C 968.4378643762691 383.17 965.08 386.52786437626906 965.08 390.67 z M 900.13 428.17 C 900.13 432.31213562373097 903.487864376269 435.67 907.63 435.67 C 911.772135623731 435.67 915.13 432.31213562373097 915.13 428.17 C 915.13 424.02786437626906 911.772135623731 420.67 907.63 420.67 C 903.487864376269 420.67 900.13 424.02786437626906 900.13 428.17 z M 835.17 390.67 C 835.17 394.81213562373097 838.527864376269 398.17 842.67 398.17 C 846.8121356237309 398.17 850.17 394.81213562373097 850.17 390.67 C 850.17 386.52786437626906 846.8121356237309 383.17 842.67 383.17 C 838.527864376269 383.17 835.17 386.52786437626906 835.17 390.67 z M 1030.04 53.17 C 1030.04 57.31213562373095 1033.397864376269 60.67 1037.54 60.67 C 1041.682135623731 60.67 1045.04 57.31213562373095 1045.04 53.17 C 1045.04 49.02786437626905 1041.682135623731 45.67 1037.54 45.67 C 1033.397864376269 45.67 1030.04 49.02786437626905 1030.04 53.17 z M 1094.99 90.67 C 1094.99 94.81213562373095 1098.3478643762692 98.17 1102.49 98.17 C 1106.6321356237308 98.17 1109.99 94.81213562373095 1109.99 90.67 C 1109.99 86.52786437626905 1106.6321356237308 83.17 1102.49 83.17 C 1098.3478643762692 83.17 1094.99 86.52786437626905 1094.99 90.67 z M 1094.99 165.67 C 1094.99 169.81213562373094 1098.3478643762692 173.17 1102.49 173.17 C 1106.6321356237308 173.17 1109.99 169.81213562373094 1109.99 165.67 C 1109.99 161.52786437626904 1106.6321356237308 158.17 1102.49 158.17 C 1098.3478643762692 158.17 1094.99 161.52786437626904 1094.99 165.67 z M 1030.04 203.17 C 1030.04 207.31213562373094 1033.397864376269 210.67 1037.54 210.67 C 1041.682135623731 210.67 1045.04 207.31213562373094 1045.04 203.17 C 1045.04 199.02786437626904 1041.682135623731 195.67 1037.54 195.67 C 1033.397864376269 195.67 1030.04 199.02786437626904 1030.04 203.17 z M 965.08 165.67 C 965.08 169.81213562373094 968.4378643762691 173.17 972.58 173.17 C 976.722135623731 173.17 980.08 169.81213562373094 980.08 165.67 C 980.08 161.52786437626904 976.722135623731 158.17 972.58 158.17 C 968.4378643762691 158.17 965.08 161.52786437626904 965.08 165.67 z M 965.08 90.67 C 965.08 94.81213562373095 968.4378643762691 98.17 972.58 98.17 C 976.722135623731 98.17 980.08 94.81213562373095 980.08 90.67 C 980.08 86.52786437626905 976.722135623731 83.17 972.58 83.17 C 968.4378643762691 83.17 965.08 86.52786437626905 965.08 90.67 z M 1030.04 278.17 C 1030.04 282.31213562373097 1033.397864376269 285.67 1037.54 285.67 C 1041.682135623731 285.67 1045.04 282.31213562373097 1045.04 278.17 C 1045.04 274.02786437626906 1041.682135623731 270.67 1037.54 270.67 C 1033.397864376269 270.67 1030.04 274.02786437626906 1030.04 278.17 z M 1094.99 315.67 C 1094.99 319.81213562373097 1098.3478643762692 323.17 1102.49 323.17 C 1106.6321356237308 323.17 1109.99 319.81213562373097 1109.99 315.67 C 1109.99 311.52786437626906 1106.6321356237308 308.17 1102.49 308.17 C 1098.3478643762692 308.17 1094.99 311.52786437626906 1094.99 315.67 z M 1094.99 390.67 C 1094.99 394.81213562373097 1098.3478643762692 398.17 1102.49 398.17 C 1106.6321356237308 398.17 1109.99 394.81213562373097 1109.99 390.67 C 1109.99 386.52786437626906 1106.6321356237308 383.17 1102.49 383.17 C 1098.3478643762692 383.17 1094.99 386.52786437626906 1094.99 390.67 z M 1030.04 428.17 C 1030.04 432.31213562373097 1033.397864376269 435.67 1037.54 435.67 C 1041.682135623731 435.67 1045.04 432.31213562373097 1045.04 428.17 C 1045.04 424.02786437626906 1041.682135623731 420.67 1037.54 420.67 C 1033.397864376269 420.67 1030.04 424.02786437626906 1030.04 428.17 z M 1159.94 53.17 C 1159.94 57.31213562373095 1163.297864376269 60.67 1167.44 60.67 C 1171.5821356237311 60.67 1174.94 57.31213562373095 1174.94 53.17 C 1174.94 49.02786437626905 1171.5821356237311 45.67 1167.44 45.67 C 1163.297864376269 45.67 1159.94 49.02786437626905 1159.94 53.17 z M 1224.9 90.67 C 1224.9 94.81213562373095 1228.257864376269 98.17 1232.4 98.17 C 1236.5421356237312 98.17 1239.9 94.81213562373095 1239.9 90.67 C 1239.9 86.52786437626905 1236.5421356237312 83.17 1232.4 83.17 C 1228.257864376269 83.17 1224.9 86.52786437626905 1224.9 90.67 z M 1224.9 165.67 C 1224.9 169.81213562373094 1228.257864376269 173.17 1232.4 173.17 C 1236.5421356237312 173.17 1239.9 169.81213562373094 1239.9 165.67 C 1239.9 161.52786437626904 1236.5421356237312 158.17 1232.4 158.17 C 1228.257864376269 158.17 1224.9 161.52786437626904 1224.9 165.67 z M 1159.94 203.17 C 1159.94 207.31213562373094 1163.297864376269 210.67 1167.44 210.67 C 1171.5821356237311 210.67 1174.94 207.31213562373094 1174.94 203.17 C 1174.94 199.02786437626904 1171.5821356237311 195.67 1167.44 195.67 C 1163.297864376269 195.67 1159.94 199.02786437626904 1159.94 203.17 z M 1419.76 53.17 C 1419.76 57.31213562373095 1423.1178643762692 60.67 1427.26 60.67 C 1431.4021356237308 60.67 1434.76 57.31213562373095 1434.76 53.17 C 1434.76 49.02786437626905 1431.4021356237308 45.67 1427.26 45.67 C 1423.1178643762692 45.67 1419.76 49.02786437626905 1419.76 53.17 z M 1484.71 90.67 C 1484.71 94.81213562373095 1488.067864376269 98.17 1492.21 98.17 C 1496.352135623731 98.17 1499.71 94.81213562373095 1499.71 90.67 C 1499.71 86.52786437626905 1496.352135623731 83.17 1492.21 83.17 C 1488.067864376269 83.17 1484.71 86.52786437626905 1484.71 90.67 z M 1484.71 165.67 C 1484.71 169.81213562373094 1488.067864376269 173.17 1492.21 173.17 C 1496.352135623731 173.17 1499.71 169.81213562373094 1499.71 165.67 C 1499.71 161.52786437626904 1496.352135623731 158.17 1492.21 158.17 C 1488.067864376269 158.17 1484.71 161.52786437626904 1484.71 165.67 z M 1419.76 203.17 C 1419.76 207.31213562373094 1423.1178643762692 210.67 1427.26 210.67 C 1431.4021356237308 210.67 1434.76 207.31213562373094 1434.76 203.17 C 1434.76 199.02786437626904 1431.4021356237308 195.67 1427.26 195.67 C 1423.1178643762692 195.67 1419.76 199.02786437626904 1419.76 203.17 z M 1354.81 165.67 C 1354.81 169.81213562373094 1358.1678643762689 173.17 1362.31 173.17 C 1366.452135623731 173.17 1369.81 169.81213562373094 1369.81 165.67 C 1369.81 161.52786437626904 1366.452135623731 158.17 1362.31 158.17 C 1358.1678643762689 158.17 1354.81 161.52786437626904 1354.81 165.67 z M 1354.81 90.67 C 1354.81 94.81213562373095 1358.1678643762689 98.17 1362.31 98.17 C 1366.452135623731 98.17 1369.81 94.81213562373095 1369.81 90.67 C 1369.81 86.52786437626905 1366.452135623731 83.17 1362.31 83.17 C 1358.1678643762689 83.17 1354.81 86.52786437626905 1354.81 90.67 z M 1354.81 390.67 C 1354.81 394.81213562373097 1358.1678643762689 398.17 1362.31 398.17 C 1366.452135623731 398.17 1369.81 394.81213562373097 1369.81 390.67 C 1369.81 386.52786437626906 1366.452135623731 383.17 1362.31 383.17 C 1358.1678643762689 383.17 1354.81 386.52786437626906 1354.81 390.67 z M 1419.76 428.17 C 1419.76 432.31213562373097 1423.1178643762692 435.67 1427.26 435.67 C 1431.4021356237308 435.67 1434.76 432.31213562373097 1434.76 428.17 C 1434.76 424.02786437626906 1431.4021356237308 420.67 1427.26 420.67 C 1423.1178643762692 420.67 1419.76 424.02786437626906 1419.76 428.17 z M 1419.76 503.17 C 1419.76 507.31213562373097 1423.1178643762692 510.67 1427.26 510.67 C 1431.4021356237308 510.67 1434.76 507.31213562373097 1434.76 503.17 C 1434.76 499.02786437626906 1431.4021356237308 495.67 1427.26 495.67 C 1423.1178643762692 495.67 1419.76 499.02786437626906 1419.76 503.17 z M 1354.81 540.67 C 1354.81 544.8121356237309 1358.1678643762689 548.17 1362.31 548.17 C 1366.452135623731 548.17 1369.81 544.8121356237309 1369.81 540.67 C 1369.81 536.527864376269 1366.452135623731 533.17 1362.31 533.17 C 1358.1678643762689 533.17 1354.81 536.527864376269 1354.81 540.67 z M 1289.85 503.17 C 1289.85 507.31213562373097 1293.2078643762688 510.67 1297.35 510.67 C 1301.492135623731 510.67 1304.85 507.31213562373097 1304.85 503.17 C 1304.85 499.02786437626906 1301.492135623731 495.67 1297.35 495.67 C 1293.2078643762688 495.67 1289.85 499.02786437626906 1289.85 503.17 z M 1289.85 428.17 C 1289.85 432.31213562373097 1293.2078643762688 435.67 1297.35 435.67 C 1301.492135623731 435.67 1304.85 432.31213562373097 1304.85 428.17 C 1304.85 424.02786437626906 1301.492135623731 420.67 1297.35 420.67 C 1293.2078643762688 420.67 1289.85 424.02786437626906 1289.85 428.17 z M 1549.67 53.17 C 1549.67 57.31213562373095 1553.027864376269 60.67 1557.17 60.67 C 1561.3121356237311 60.67 1564.67 57.31213562373095 1564.67 53.17 C 1564.67 49.02786437626905 1561.3121356237311 45.67 1557.17 45.67 C 1553.027864376269 45.67 1549.67 49.02786437626905 1549.67 53.17 z M 1614.62 90.67 C 1614.62 94.81213562373095 1617.9778643762688 98.17 1622.12 98.17 C 1626.262135623731 98.17 1629.62 94.81213562373095 1629.62 90.67 C 1629.62 86.52786437626905 1626.262135623731 83.17 1622.12 83.17 C 1617.9778643762688 83.17 1614.62 86.52786437626905 1614.62 90.67 z M 1614.62 165.67 C 1614.62 169.81213562373094 1617.9778643762688 173.17 1622.12 173.17 C 1626.262135623731 173.17 1629.62 169.81213562373094 1629.62 165.67 C 1629.62 161.52786437626904 1626.262135623731 158.17 1622.12 158.17 C 1617.9778643762688 158.17 1614.62 161.52786437626904 1614.62 165.67 z M 1549.67 203.17 C 1549.67 207.31213562373094 1553.027864376269 210.67 1557.17 210.67 C 1561.3121356237311 210.67 1564.67 207.31213562373094 1564.67 203.17 C 1564.67 199.02786437626904 1561.3121356237311 195.67 1557.17 195.67 C 1553.027864376269 195.67 1549.67 199.02786437626904 1549.67 203.17 z M 1484.71 390.67 C 1484.71 394.81213562373097 1488.067864376269 398.17 1492.21 398.17 C 1496.352135623731 398.17 1499.71 394.81213562373097 1499.71 390.67 C 1499.71 386.52786437626906 1496.352135623731 383.17 1492.21 383.17 C 1488.067864376269 383.17 1484.71 386.52786437626906 1484.71 390.67 z M 1549.67 428.17 C 1549.67 432.31213562373097 1553.027864376269 435.67 1557.17 435.67 C 1561.3121356237311 435.67 1564.67 432.31213562373097 1564.67 428.17 C 1564.67 424.02786437626906 1561.3121356237311 420.67 1557.17 420.67 C 1553.027864376269 420.67 1549.67 424.02786437626906 1549.67 428.17 z M 1549.67 503.17 C 1549.67 507.31213562373097 1553.027864376269 510.67 1557.17 510.67 C 1561.3121356237311 510.67 1564.67 507.31213562373097 1564.67 503.17 C 1564.67 499.02786437626906 1561.3121356237311 495.67 1557.17 495.67 C 1553.027864376269 495.67 1549.67 499.02786437626906 1549.67 503.17 z M 1484.71 540.67 C 1484.71 544.8121356237309 1488.067864376269 548.17 1492.21 548.17 C 1496.352135623731 548.17 1499.71 544.8121356237309 1499.71 540.67 C 1499.71 536.527864376269 1496.352135623731 533.17 1492.21 533.17 C 1488.067864376269 533.17 1484.71 536.527864376269 1484.71 540.67 z" stroke-linecap="round" />
</g>
		<g transform="matrix(1 0 0 1 -67.29 13.59)"  >
<path style="stroke: rgb(228,232,237); stroke-opacity: 0.93; stroke-width: 2; stroke-dasharray: none; stroke-linecap: butt; stroke-dashoffset: 0; stroke-linejoin: miter; stroke-miterlimit: 4; fill: rgb(237,242,247); fill-opacity: 0.93; fill-rule: nonzero; opacity: 1;" vector-effect="non-scaling-stroke"  transform=" translate(-742.91, -310.51)" d="M 93.38 -1.99 L 136.68 23.01 L 136.68 73.01 L 93.38 98.01 L 50.07 73.01 L 50.07 23.01 z M 179.98 448.01 L 223.28 473.01 L 223.28 523.01 L 179.98 548.01 L 136.68 523.01 L 136.68 473.01 z M 266.58 298.01 L 309.89 323.01 L 309.89 373.01 L 266.58 398.01 L 223.28 373.01 L 223.28 323.01 z M 396.49 73.01 L 439.8 98.01 L 439.8 148.01 L 396.49 173.01 L 353.19 148.01 L 353.19 98.01 z M 483.1 73.01 L 526.4 98.01 L 526.4 148.01 L 483.1 173.01 L 439.8 148.01 L 439.8 98.01 z M 483.1 373.01 L 526.4 398.01 L 526.4 448.01 L 483.1 473.01 L 439.8 448.01 L 439.8 398.01 z M 526.4 448.01 L 569.7 473.01 L 569.7 523.01 L 526.4 548.01 L 483.1 523.01 L 483.1 473.01 z M 656.31 523.01 L 699.61 548.01 L 699.61 598.01 L 656.31 623.01 L 613 598.01 L 613 548.01 z M 742.91 373.01 L 786.22 398.01 L 786.22 448.01 L 742.91 473.01 L 699.61 448.01 L 699.61 398.01 z M 699.61 448.01 L 742.91 473.01 L 742.91 523.01 L 699.61 548.01 L 656.31 523.01 L 656.31 473.01 z M 786.22 448.01 L 829.52 473.01 L 829.52 523.01 L 786.22 548.01 L 742.91 523.01 L 742.91 473.01 z M 1002.73 523.01 L 1046.03 548.01 L 1046.03 598.01 L 1002.73 623.01 L 959.43 598.01 L 959.43 548.01 z M 1175.94 523.01 L 1219.24 548.01 L 1219.24 598.01 L 1175.94 623.01 L 1132.63 598.01 L 1132.63 548.01 z M 1262.54 223.01 L 1305.85 248.01 L 1305.85 298.01 L 1262.54 323.01 L 1219.24 298.01 L 1219.24 248.01 z M 1219.24 298.01 L 1262.54 323.01 L 1262.54 373.01 L 1219.24 398.01 L 1175.94 373.01 L 1175.94 323.01 z M 1392.45 448.01 L 1435.75 473.01 L 1435.75 523.01 L 1392.45 548.01 L 1349.15 523.01 L 1349.15 473.01 z" stroke-linecap="round" />
</g>
</g>
</g>
</svg>