<svg xmlns="http://www.w3.org/2000/svg" width="100" height="100" viewBox="0 0 100 100">
  <g id="Group_22471" data-name="Group 22471" transform="translate(-41 -199)">
    <g id="Rectangle_7113" data-name="Rectangle 7113" transform="translate(41 199)" fill="#fff" stroke="#707070" stroke-width="1" opacity="0">
      <rect width="100" height="100" stroke="none"/>
      <rect x="0.5" y="0.5" width="99" height="99" fill="none"/>
    </g>
    <g id="Group_22470" data-name="Group 22470" transform="translate(12076.007 17422.061)">
      <path id="Path_34307" data-name="Path 34307" d="M88.246,105.659V89h3.031v1q0,11.436,0,22.872c0,4.887-3.229,8.1-8.125,8.106q-9,.005-18.007,0H64.038l1.144,9.151c1.027,0,2.036-.009,3.044,0a3.064,3.064,0,0,1,3.228,3.228c.011.921.015,1.843,0,2.763a3.018,3.018,0,0,1-3.111,3.149q-16.721.02-33.442,0a3.016,3.016,0,0,1-3.079-3.083q-.032-1.476,0-2.954a3.03,3.03,0,0,1,3.156-3.1c1.011-.015,2.023,0,3.109,0l1.154-9.151H38.2q-9.051,0-18.1,0c-4.883,0-8.1-3.231-8.1-8.13q0-22.4,0-44.791a7.636,7.636,0,0,1,8.055-8.077q20.627-.006,41.255,0h.928v3.05H20.177c-3.307,0-5.132,1.82-5.132,5.12q0,18.25,0,36.5v1.012Zm-73.2,3.166c0,1.307,0,2.568,0,3.83,0,3.5,1.767,5.273,5.263,5.273H82.974c.254,0,.508,0,.762,0a4.473,4.473,0,0,0,4.424-3.95c.155-1.69.031-3.406.031-5.149Zm26.127,21.243H62.1l-1.137-9.046H42.31c-.379,3.006-.754,5.986-1.139,9.046m27.193,3.178H34.943v2.933H68.364Z" transform="translate(-12043 -17266.832)" fill="#0d4d75" stroke="#fff" stroke-width="1.7"/>
      <path id="Path_34308" data-name="Path 34308" d="M225.4,54.643c-.921,0-1.842.008-2.763,0-1.183-.013-1.68-.439-1.854-1.587-.157-1.035-.252-2.084-.479-3.1a1.832,1.832,0,0,0-.726-.934c-1.316-.953-2.477-.639-3.569.465a11.054,11.054,0,0,1-1.6,1.2,1.443,1.443,0,0,1-1.992-.164q-2.148-2.1-4.246-4.244a1.5,1.5,0,0,1-.1-2.151c.646-.866,1.268-1.75,1.952-2.584.357-.436.264-.782.146-1.287a2.518,2.518,0,0,0-2.822-2.14,11.53,11.53,0,0,1-1.886-.245,1.506,1.506,0,0,1-1.426-1.609q-.035-2.954,0-5.909a1.52,1.52,0,0,1,1.506-1.632,10,10,0,0,1,1.791-.231,2.539,2.539,0,0,0,2.867-2.313,1.493,1.493,0,0,0-.136-1.012c-.6-.9-1.287-1.732-1.921-2.606a1.539,1.539,0,0,1,.15-2.363q1.97-2.006,3.977-3.975a1.54,1.54,0,0,1,2.362-.153c.851.611,1.655,1.293,2.535,1.856a1.776,1.776,0,0,0,1.17.159,2.4,2.4,0,0,0,2.2-2.737,10.176,10.176,0,0,1,.267-1.978,1.513,1.513,0,0,1,1.626-1.411q2.954-.017,5.908,0a1.512,1.512,0,0,1,1.607,1.433,10.471,10.471,0,0,1,.251,1.885,2.472,2.472,0,0,0,2.237,2.811,1.649,1.649,0,0,0,1.092-.113c.9-.588,1.732-1.286,2.606-1.919a1.547,1.547,0,0,1,2.363.179q2,1.97,3.973,3.978a1.523,1.523,0,0,1,.177,2.29c-.627.878-1.333,1.7-1.915,2.609a1.81,1.81,0,0,0-.132,1.173,2.4,2.4,0,0,0,2.752,2.176,10.008,10.008,0,0,1,1.884.259,1.529,1.529,0,0,1,1.478,1.663q.031,2.907,0,5.814a1.527,1.527,0,0,1-1.459,1.681c-1.034.167-2.07.327-3.112.436-.613.064-.845.392-1.149.908a2.444,2.444,0,0,0,.491,3.345,13.147,13.147,0,0,1,1.208,1.592,1.509,1.509,0,0,1-.143,2.149q-2.072,2.105-4.177,4.178a1.507,1.507,0,0,1-2.149.134c-.869-.641-1.749-1.268-2.587-1.948a1.257,1.257,0,0,0-1.282-.171A2.51,2.51,0,0,0,230.2,51.3a10.771,10.771,0,0,1-.255,1.885,1.541,1.541,0,0,1-1.686,1.454c-.953.02-1.906,0-2.859,0M211.29,21.668c.683.914,1.378,1.858,2.088,2.791a1.753,1.753,0,0,1,.153,1.958c-.5,1.092-.966,2.2-1.382,3.327a1.771,1.771,0,0,1-1.561,1.314c-1.157.142-2.307.345-3.477.525v3.423c1.155.177,2.276.385,3.406.509a1.855,1.855,0,0,1,1.673,1.438,25,25,0,0,0,1.264,3.067,1.906,1.906,0,0,1-.2,2.282c-.691.866-1.332,1.772-1.928,2.569l2.368,2.545c.943-.7,1.867-1.373,2.766-2.075a1.823,1.823,0,0,1,2.119-.161,32.674,32.674,0,0,0,3.153,1.3,1.813,1.813,0,0,1,1.4,1.595c.135,1.158.342,2.307.52,3.477h3.429c.168-1.124.373-2.214.484-3.314a1.931,1.931,0,0,1,1.545-1.8,17.314,17.314,0,0,0,2.891-1.189,1.972,1.972,0,0,1,2.443.208c.847.694,1.753,1.316,2.5,1.874l2.534-2.369c-.72-.965-1.413-1.911-2.125-2.842a1.746,1.746,0,0,1-.155-1.956c.5-1.092.967-2.2,1.381-3.327a1.763,1.763,0,0,1,1.559-1.314c1.158-.139,2.308-.341,3.481-.52V31.574c-1.152-.174-2.273-.379-3.4-.5a1.854,1.854,0,0,1-1.676-1.434,24.59,24.59,0,0,0-1.262-3.068,1.9,1.9,0,0,1,.194-2.28c.694-.863,1.332-1.772,1.941-2.588l-2.427-2.493c-.915.683-1.859,1.378-2.792,2.087a1.754,1.754,0,0,1-1.958.154c-1.092-.5-2.2-.966-3.326-1.379a1.767,1.767,0,0,1-1.315-1.559c-.14-1.158-.342-2.308-.521-3.482h-3.428c-.175,1.153-.38,2.274-.5,3.4a1.856,1.856,0,0,1-1.435,1.676,24.71,24.71,0,0,0-3.068,1.261,1.9,1.9,0,0,1-2.28-.195c-.864-.693-1.772-1.332-2.678-2.007l-2.4,2.5" transform="translate(-12186.242 -17231)" fill="#f9bb19" stroke="#fff" stroke-width="1.7"/>
      <rect id="Rectangle_7156" data-name="Rectangle 7156" width="15.16" height="2.901" transform="translate(-12009.596 -17182.377)" fill="#0d4d75" stroke="#fff" stroke-width="1.7"/>
      <rect id="Rectangle_7157" data-name="Rectangle 7157" width="15.118" height="2.943" transform="translate(-12006.556 -17176.311)" fill="#0d4d75" stroke="#fff" stroke-width="1.7"/>
      <rect id="Rectangle_7158" data-name="Rectangle 7158" width="15.129" height="2.955" transform="translate(-12006.562 -17170.217)" fill="#0d4d75" stroke="#fff" stroke-width="1.7"/>
      <path id="Path_34309" data-name="Path 34309" d="M64.888,86.178l2.239,2.1L63.47,91.685l3.767,3.373-2.441,2.3c-.627-.67-1.3-1.41-2-2.129-.774-.8-1.585-1.558-2.348-2.366a1.423,1.423,0,0,1-.115-2.132c1.492-1.553,3.044-3.049,4.555-4.551" transform="translate(-12078.74 -17286.379)" fill="#0d4d75" stroke="#fff" stroke-width="1.7"/>
      <path id="Path_34310" data-name="Path 34310" d="M100.947,81.922l2.85,1.07L99.233,95.173,96.38,94.113l4.567-12.191" transform="translate(-12105.949 -17283.203)" fill="#0d4d75" stroke="#fff" stroke-width="1.7"/>
      <path id="Path_34311" data-name="Path 34311" d="M135.811,97.7l-1.991-2.152L137.3,92.26l-3.615-3.473,2.269-2.04c1.454,1.414,3.069,2.93,4.612,4.515a1.264,1.264,0,0,1-.04,1.827c-1.53,1.558-3.116,3.061-4.711,4.614" transform="translate(-12133.774 -17286.803)" fill="#0d4d75" stroke="#fff" stroke-width="1.7"/>
      <rect id="Rectangle_7159" data-name="Rectangle 7159" width="5.973" height="2.943" transform="translate(-12018.754 -17182.41)" fill="#0d4d75" stroke="#fff" stroke-width="1.7"/>
      <rect id="Rectangle_7160" data-name="Rectangle 7160" width="5.966" height="2.967" transform="translate(-12015.701 -17176.307)" fill="#0d4d75" stroke="#fff" stroke-width="1.7"/>
      <rect id="Rectangle_7161" data-name="Rectangle 7161" width="5.991" height="2.928" transform="translate(-12015.697 -17170.203)" fill="#0d4d75" stroke="#fff" stroke-width="1.7"/>
      <rect id="Rectangle_7162" data-name="Rectangle 7162" width="2.965" height="2.898" transform="translate(-11988.295 -17176.283)" fill="#0d4d75" stroke="#fff" stroke-width="1.7"/>
      <rect id="Rectangle_7163" data-name="Rectangle 7163" width="2.961" height="2.911" transform="translate(-11988.245 -17170.195)" fill="#0d4d75" stroke="#fff" stroke-width="1.7"/>
      <rect id="Rectangle_7165" data-name="Rectangle 7165" width="2.897" height="2.966" transform="translate(-11963.841 -17154.986)" fill="#0d4d75" stroke="#fff" stroke-width="1.7"/>
      <path id="Path_34315" data-name="Path 34315" d="M261.221,59.986a9.147,9.147,0,1,1-9.154,9.042,9.171,9.171,0,0,1,9.154-9.042m6.088,9.134a6.1,6.1,0,1,0-6.109,6.113,6.108,6.108,0,0,0,6.109-6.113" transform="translate(-12222.085 -17266.84)" fill="#f9bb19" stroke="#fff" stroke-width="1.7"/>
    </g>
  </g>
</svg>