<svg xmlns="http://www.w3.org/2000/svg" width="100" height="100" viewBox="0 0 100 100">
  <g id="Group_22448" data-name="Group 22448" transform="translate(-41 -366)">
    <g id="Rectangle_7097" data-name="Rectangle 7097" transform="translate(41 366)" fill="#fff" stroke="#707070" stroke-width="1" opacity="0">
      <rect width="100" height="100" stroke="none"/>
      <rect x="0.5" y="0.5" width="99" height="99" fill="none"/>
    </g>
    <g id="Group_22447" data-name="Group 22447" transform="translate(12173 17469)">
      <path id="Path_34234" data-name="Path 34234" d="M210.039,155.341a16.209,16.209,0,0,1-1.831-.638,6.923,6.923,0,0,1-4.221-6.581c-.037-6.924-.012-13.849-.012-20.774q0-17.832,0-35.664c0-4.7,2.982-7.683,7.68-7.684q13.642,0,27.283,0c4.207,0,6.63,1.858,7.738,5.924.014.052.068.093.1.14v59.214c-.065.19-.142.378-.193.572a7.018,7.018,0,0,1-3.811,4.744,19.587,19.587,0,0,1-2.061.749Zm-3.169-11.476h36.987V121.142H206.87ZM236.678,94.03c-.062.216-.11.388-.16.558-.8,2.775-2,3.678-4.872,3.678q-6.462,0-12.924,0a3.986,3.986,0,0,1-4.277-3.029c-.137-.389-.248-.787-.376-1.2h-7.177v24.134h36.993V94.03Zm-29.813-2.9h.773q3.655,0,7.311,0c1.327,0,1.759.4,1.883,1.7a7.706,7.706,0,0,0,.191,1.141c.294,1.164.663,1.44,1.871,1.441h12.392c1.986,0,2.335-.3,2.61-2.279.029-.205.022-.416.047-.622a1.417,1.417,0,0,1,1.468-1.372c.563-.026,1.129-.007,1.694-.007h6.757a4.171,4.171,0,0,0-4.246-4.274c-4.428-.022-8.856-.007-13.284-.007-5.052,0-10.1-.012-15.156.006a4.219,4.219,0,0,0-4.311,4.275m.042,55.679c-.6,3.754,1.932,5.757,4.961,5.718,9.115-.117,18.232-.04,27.349-.043,3.287,0,5.242-2.406,4.593-5.675Z" transform="translate(-12283.462 -17163.021)" fill="#f9bb19" stroke="#fff" stroke-width="2.3"/>
      <path id="Path_34235" data-name="Path 34235" d="M35.671,0c.019.023.034.058.058.067,4.238,1.45,5.649,3.425,5.649,7.909v3.393h2.793v2.892H2.854v1.045q0,34.184,0,68.368c0,3.086,1.709,4.79,4.8,4.791q18.407,0,36.813,0h1.19v2.854H6.064c-.19-.065-.378-.141-.572-.192a7.035,7.035,0,0,1-4.744-3.81A19.394,19.394,0,0,1,0,85.254V6.064c.064-.191.14-.379.191-.574A7.029,7.029,0,0,1,4,.746,18.905,18.905,0,0,1,6.064,0Zm2.834,11.375c0-1.682.091-3.314-.023-4.932a3.93,3.93,0,0,0-3.9-3.579q-13.766-.031-27.532,0A4.135,4.135,0,0,0,2.915,6.557c-.141,1.582-.028,3.186-.028,4.818Z" transform="translate(-12128 -17099)" fill="#0d4d75" stroke="#fff" stroke-width="2.3"/>
      <path id="Path_34236" data-name="Path 34236" d="M242.459,18.549h-2.843V14.3H198.3V11.443h41.225a40.64,40.64,0,0,0-.043-5.124c-.279-2.147-2.111-3.462-4.409-3.463q-16.4-.006-32.8,0h-1.19V0h35.315c.191.064.379.14.574.191a7.086,7.086,0,0,1,4.9,4.129c.25.557.4,1.161.591,1.744Z" transform="translate(-12279.141 -17099)" fill="#0d4d75" stroke="#fff" stroke-width="2.3"/>
      <rect id="Rectangle_7121" data-name="Rectangle 7121" width="2.854" height="2.793" transform="translate(-12083.768 -17099)" fill="#0d4d75" stroke="#fff" stroke-width="2.3"/>
      <path id="Path_34241" data-name="Path 34241" d="M26.894,111.074v4.288H63.882v2.882H26.039c-1.629,0-2.039-.416-2.039-2.063q0-15.068,0-30.135C24,84.41,24.412,84,26.054,84H63.9v2.831H48.322v21.411H63.906v2.832ZM45.363,86.917H26.925v21.291H45.363Z" transform="translate(-12146.293 -17163.023)" fill="#0d4d75" stroke="#fff" stroke-width="2.3"/>
      <path id="Path_34242" data-name="Path 34242" d="M38.347,240q6.153,0,12.306,0c1.4,0,1.88.472,1.88,1.863q0,12.4,0,24.791c0,1.4-.474,1.88-1.865,1.88q-12.4,0-24.79,0c-1.4,0-1.878-.471-1.879-1.865q0-12.4,0-24.79c0-1.4.469-1.878,1.864-1.879q6.242-.005,12.484,0m-.184,11.982,9.037-9.046H29.12l9.044,9.046M35.912,254.4l-9-9V263.4l9-9m13.738-9.282-9.069,9.071,9.069,9.068Zm-2.244,20.54-9.032-9.043-9.042,9.043Z" transform="translate(-12146.291 -17281.924)" fill="#0d4d75" stroke="#fff" stroke-width="2.3"/>
      <rect id="Rectangle_7122" data-name="Rectangle 7122" width="2.743" height="2.75" transform="translate(-12045.175 -17093.234)" fill="#0d4d75" stroke="#fff" stroke-width="2.3"/>
      <rect id="Rectangle_7123" data-name="Rectangle 7123" width="2.727" height="2.774" transform="translate(-12056.586 -17093.26)" fill="#0d4d75" stroke="#fff" stroke-width="2.3"/>
      <rect id="Rectangle_7124" data-name="Rectangle 7124" width="2.75" height="2.743" transform="translate(-12050.891 -17093.252)" fill="#0d4d75" stroke="#fff" stroke-width="2.3"/>
      <rect id="Rectangle_7126" data-name="Rectangle 7126" width="28.455" height="2.742" transform="translate(-12072.314 -17031.889)" fill="#f9bb19" stroke="#fff" stroke-width="2.3"/>
      <rect id="Rectangle_7127" data-name="Rectangle 7127" width="28.455" height="2.741" transform="translate(-12072.314 -17026.182)" fill="#f9bb19" stroke="#fff" stroke-width="2.3"/>
      <rect id="Rectangle_7128" data-name="Rectangle 7128" width="22.716" height="2.745" transform="translate(-12066.604 -17037.6)" fill="#f9bb19" stroke="#fff" stroke-width="2.3"/>
      <rect id="Rectangle_7129" data-name="Rectangle 7129" width="2.738" height="2.754" transform="translate(-12072.303 -17037.604)" fill="#f9bb19" stroke="#fff" stroke-width="2.3"/>
      <path id="Path_34252" data-name="Path 34252" d="M243.671,155.991q5.482,0,10.964,0c3.018,0,4.728,1.727,4.731,4.77,0,1.664.008,3.328,0,4.992a4.268,4.268,0,0,1-4.462,4.5q-11.231.015-22.463,0a4.263,4.263,0,0,1-4.461-4.413q-.021-2.719,0-5.437a4.267,4.267,0,0,1,4.461-4.412c3.744-.011,7.488,0,11.231,0m-.006,11.415c3.716,0,7.431.006,11.146,0,1.167,0,1.689-.525,1.7-1.687q.019-2.586,0-5.172c-.008-1.168-.525-1.694-1.688-1.7q-11.146-.01-22.293,0c-1.17,0-1.687.521-1.7,1.685-.013,1.664-.007,3.329,0,4.993,0,1.4.473,1.876,1.867,1.878q5.484.006,10.968,0" transform="translate(-12301.757 -17217.893)" fill="#f9bb19" stroke="#fff" stroke-width="2.3"/>
      <rect id="Rectangle_7130" data-name="Rectangle 7130" width="11.302" height="2.745" transform="translate(-12063.72 -17073.256)" fill="#f9bb19" stroke="#fff" stroke-width="2.3"/>
      <rect id="Rectangle_7131" data-name="Rectangle 7131" width="11.302" height="2.747" transform="translate(-12063.72 -17014.754)" fill="#f9bb19" stroke="#fff" stroke-width="2.3"/>
      <rect id="Rectangle_7132" data-name="Rectangle 7132" width="24.143" height="2.745" transform="translate(-12122.221 -17093.23)" fill="#0d4d75" stroke="#fff" stroke-width="2.3"/>
      <rect id="Rectangle_7133" data-name="Rectangle 7133" width="2.764" height="2.748" transform="translate(-12095.145 -17093.23)" fill="#0d4d75" stroke="#fff" stroke-width="2.3"/>
      <rect id="Rectangle_7134" data-name="Rectangle 7134" width="2.754" height="2.738" transform="translate(-12065.177 -17056.129)" fill="#f9bb19" stroke="#fff" stroke-width="2.3"/>
      <rect id="Rectangle_7135" data-name="Rectangle 7135" width="2.728" height="2.775" transform="translate(-12059.456 -17056.18)" fill="#f9bb19" stroke="#fff" stroke-width="2.3"/>
      <rect id="Rectangle_7136" data-name="Rectangle 7136" width="2.775" height="2.728" transform="translate(-12053.788 -17056.125)" fill="#f9bb19" stroke="#fff" stroke-width="2.3"/>
    </g>
  </g>
</svg>
