<svg xmlns="http://www.w3.org/2000/svg" width="100" height="100" viewBox="0 0 100 100">
  <g id="Group_22450" data-name="Group 22450" transform="translate(-41 -551)">
    <g id="Rectangle_7099" data-name="Rectangle 7099" transform="translate(41 551)" fill="#fff" stroke="#707070" stroke-width="1" opacity="0">
      <rect width="100" height="100" stroke="none"/>
      <rect x="0.5" y="0.5" width="99" height="99" fill="none"/>
    </g>
    <g id="Group_22449" data-name="Group 22449" transform="translate(12116 17704.402)">
      <path id="Path_34254" data-name="Path 34254" d="M0,19.953H2.85v1.19q0,31.132,0,62.264c0,3.331,1.635,4.956,4.986,4.956H83.373c3.349,0,4.991-1.628,4.991-4.951q0-34.027,0-68.054V14.287H47.087V11.422h41.15a38.145,38.145,0,0,0-.049-5.26c-.3-2.082-2.095-3.308-4.335-3.31q-12.916-.007-25.832,0H49.883V0H85.157c.191.064.379.14.573.191a7.078,7.078,0,0,1,4.894,4.124c.25.557.4,1.16.591,1.742v79.1c-.065.19-.141.377-.192.571a7.011,7.011,0,0,1-3.807,4.738,19.561,19.561,0,0,1-2.058.748H6.057c-.19-.065-.377-.141-.571-.192A7.027,7.027,0,0,1,.747,87.216,19.39,19.39,0,0,1,0,85.157v-65.2" transform="translate(-12071 -17149)" fill="#0d4d75" stroke="#fff" stroke-width="2.3"/>
      <path id="Path_34255" data-name="Path 34255" d="M35.63,0c.019.023.034.058.058.066,4.234,1.448,5.643,3.421,5.643,7.9v3.389h2.79v2.889H2.872V17.1H0V6.057c.064-.191.14-.379.191-.573A7.021,7.021,0,0,1,4,.745,18.789,18.789,0,0,1,6.057,0Zm2.848,11.36c0-1.616.036-3.13-.009-4.641a4.026,4.026,0,0,0-3.907-3.865c-.593-.019-1.187,0-1.78,0q-12.727,0-25.454,0c-2.03,0-3.845,1.082-4.2,2.908a41.969,41.969,0,0,0-.37,5.6Z" transform="translate(-12071 -17149)" fill="#0d4d75" stroke="#fff" stroke-width="2.3"/>
      <rect id="Rectangle_7137" data-name="Rectangle 7137" width="2.85" height="2.79" transform="translate(-12026.818 -17149)" fill="#0d4d75" stroke="#fff" stroke-width="2.3"/>
      <path id="Path_34260" data-name="Path 34260" d="M58.5,72H84.959c1.636,0,2.049.413,2.05,2.048q0,13.628,0,27.256c0,1.634-.416,2.049-2.05,2.049H32.048c-1.635,0-2.048-.413-2.048-2.05q0-13.628,0-27.257C30,72.41,30.411,72,32.049,72H58.5M55.458,87.678,32.9,75.8V99.559L55.458,87.678M84.112,99.543V75.815L61.58,87.679,84.112,99.543M37.412,74.9c.219.15.3.224.4.275q10.071,5.3,20.134,10.613a1.211,1.211,0,0,0,1.3-.089q7.036-3.716,14.077-7.423l6.4-3.376Zm.171,25.423.044.131H79.593c-.2-.144-.289-.219-.386-.271Q69.132,94.877,59.042,89.6a1.492,1.492,0,0,0-1.186.06C52.57,92.412,47.3,95.2,42.028,97.975q-2.223,1.171-4.444,2.344" transform="translate(-12093.874 -17203.898)" fill="#f9bb19" stroke="#fff" stroke-width="2.3"/>
      <path id="Path_34261" data-name="Path 34261" d="M30,233.1q0-7.571,0-15.142c0-1.518.441-1.959,1.958-1.96q13.717,0,27.434,0c1.516,0,1.961.443,1.961,1.958q0,15.142,0,30.285c0,1.515-.446,1.961-1.959,1.962q-13.717,0-27.434,0c-1.516,0-1.959-.444-1.96-1.959q0-7.571,0-15.142M58.455,218.91H32.932v17.831c1.986-2,3.843-3.875,5.708-5.743,1.006-1.008,1.648-1.013,2.644-.032.74.729,1.471,1.467,2.2,2.2,1.188,1.191,2.375,2.382,3.535,3.545a1.258,1.258,0,0,0,.259-.123q2.272-2.26,4.539-4.525c2.409-2.407,2.411-2.41,4.786-.028.577.578,1.136,1.174,1.847,1.91Zm-25.6,28.369H58.5c0-3.021,0-6.013,0-9a.628.628,0,0,0-.122-.406c-1.372-1.38-2.756-2.749-3.976-3.96l-5.185,5.2,2.932,2.823-1.919,2.107L40,233.805c-.074.027-.143.03-.18.067-2.228,2.22-4.46,4.438-6.669,6.677a1.224,1.224,0,0,0-.287.78c-.024,1.958-.013,3.917-.013,5.95" transform="translate(-12093.873 -17313.691)" fill="#0d4d75" stroke="#fff" stroke-width="2.3"/>
      <path id="Path_34262" data-name="Path 34262" d="M300.527,87.731q0,6.858,0,13.717c0,1.445-.465,1.9-1.928,1.9q-7.348,0-14.7,0c-1.445,0-1.9-.464-1.9-1.929q0-13.762,0-27.523c0-1.448.46-1.9,1.926-1.9q7.348,0,14.7,0c1.447,0,1.9.462,1.9,1.927q0,6.9,0,13.806m-15.634,12.711H297.61V74.891H284.892Z" transform="translate(-12286.015 -17203.895)" fill="#0d4d75" stroke="#fff" stroke-width="2.3"/>
      <rect id="Rectangle_7138" data-name="Rectangle 7138" width="44.068" height="2.742" transform="translate(-12029.595 -17084.805)" fill="#0d4d75" stroke="#fff" stroke-width="2.3"/>
      <rect id="Rectangle_7139" data-name="Rectangle 7139" width="44.1" height="2.738" transform="translate(-12029.63 -17079.117)" fill="#0d4d75" stroke="#fff" stroke-width="2.3"/>
      <rect id="Rectangle_7140" data-name="Rectangle 7140" width="38.367" height="2.744" transform="translate(-12029.628 -17073.418)" fill="#0d4d75" stroke="#fff" stroke-width="2.3"/>
      <rect id="Rectangle_7141" data-name="Rectangle 7141" width="35.517" height="2.745" transform="translate(-12021.046 -17090.506)" fill="#0d4d75" stroke="#fff" stroke-width="2.3"/>
      <rect id="Rectangle_7142" data-name="Rectangle 7142" width="2.735" height="2.75" transform="translate(-11999.689 -17143.258)" fill="#0d4d75" stroke="#fff" stroke-width="2.3"/>
      <rect id="Rectangle_7143" data-name="Rectangle 7143" width="2.751" height="2.735" transform="translate(-11993.996 -17143.234)" fill="#0d4d75" stroke="#fff" stroke-width="2.3"/>
      <rect id="Rectangle_7144" data-name="Rectangle 7144" width="2.746" height="2.73" transform="translate(-11988.293 -17143.232)" fill="#0d4d75" stroke="#fff" stroke-width="2.3"/>
      <rect id="Rectangle_7145" data-name="Rectangle 7145" width="2.735" height="2.75" transform="translate(-12026.768 -17090.523)" fill="#0d4d75" stroke="#fff" stroke-width="2.3"/>
      <rect id="Rectangle_7147" data-name="Rectangle 7147" width="24.115" height="2.746" transform="translate(-12065.256 -17143.256)" fill="#0d4d75" stroke="#fff" stroke-width="2.3"/>
      <rect id="Rectangle_7148" data-name="Rectangle 7148" width="2.734" height="2.772" transform="translate(-12038.17 -17143.258)" fill="#0d4d75" stroke="#fff" stroke-width="2.3"/>
      <rect id="Rectangle_7149" data-name="Rectangle 7149" width="14.139" height="2.744" transform="translate(-12052.4 -17091.93)" fill="#0d4d75" stroke="#fff" stroke-width="2.3"/>
      <rect id="Rectangle_7150" data-name="Rectangle 7150" width="2.708" height="2.772" transform="translate(-12058.104 -17091.932)" fill="#0d4d75" stroke="#fff" stroke-width="2.3"/>
    </g>
  </g>
</svg>
